<svg width="43" height="44" viewBox="0 0 43 44" fill="none" xmlns="http://www.w3.org/2000/svg">
<path fill-rule="evenodd" clip-rule="evenodd" d="M26.6543 26.3688C26.6543 26.3688 29.4625 24.8136 31.3641 23.6826C33.2658 22.5515 35.5279 20.4641 36.049 17.8528C36.5702 15.2414 36.3096 12.1117 33.9616 11.7624C33.1688 11.646 32.2568 11.8955 31.3641 12.3751C31.3641 12.3751 31.9463 18.1439 26.6543 20.8245V26.3688Z" fill="#FE8C00"/>
<path d="M26.6573 26.7596C26.588 26.7596 26.5187 26.7402 26.4577 26.7042C26.3385 26.6349 26.2637 26.5046 26.2637 26.366V20.8245C26.2637 20.6776 26.3468 20.5418 26.4799 20.4752C31.4753 17.9443 30.9818 12.4693 30.9763 12.4139C30.9597 12.2559 31.04 12.1034 31.1814 12.0286C32.2071 11.4769 33.1884 11.2496 34.0229 11.3716C34.799 11.488 35.4228 11.8705 35.8746 12.5137C36.6785 13.6558 36.8892 15.6794 36.4401 17.9276C35.7693 21.2902 32.5425 23.4386 31.5695 24.018C29.6845 25.1379 26.8763 26.6959 26.8486 26.7097C26.7904 26.7458 26.7238 26.7596 26.6573 26.7596ZM27.051 21.0629V25.6979C27.9768 25.1823 29.812 24.1483 31.1676 23.3416C32.0685 22.8038 35.0596 20.819 35.6695 17.7724C36.077 15.7293 35.9134 13.933 35.2315 12.9628C34.9044 12.497 34.4719 12.2309 33.9064 12.1478C33.2966 12.059 32.5619 12.2171 31.7719 12.6052C31.8079 13.7999 31.6416 18.5957 27.051 21.0629Z" fill="#312F30"/>
<path fill-rule="evenodd" clip-rule="evenodd" d="M39.3619 8.54118C37.2745 5.75796 33.7067 5.58332 30.4883 7.23551C27.2699 8.88769 25.1797 11.7596 23.3528 14.8062C21.526 17.8527 21.3652 23.5079 21.3652 23.5079V29.3377V35.1674V40.6091L26.6572 37.5653V32.1236C28.6337 30.9871 30.7877 29.7452 32.3983 28.8137C36.3125 26.5517 38.4887 24.3756 40.3155 20.2007C42.1451 16.0259 41.4493 11.3272 39.3619 8.54118ZM36.0547 17.8527C35.5336 20.4641 33.2715 22.5515 31.3698 23.6825C30.5576 24.1649 28.6171 25.2654 26.66 26.3687V20.8245C26.66 20.8245 26.4854 19.5049 27.3558 16.8936C28.2262 14.2822 31.6193 11.4131 33.9673 11.7596C36.3153 12.1089 36.5759 15.2414 36.0547 17.8527Z" fill="#AA076B"/>
<path d="M21.3643 41C21.295 41 21.2285 40.9834 21.1675 40.9473C21.0456 40.878 20.9707 40.7477 20.9707 40.6064V23.5079C20.9762 23.2612 21.1537 17.703 23.0138 14.6066C24.8018 11.6238 26.9252 8.6271 30.3044 6.88898C33.947 5.0178 37.6229 5.57499 39.6715 8.30831C42.0056 11.4186 42.4186 16.3752 40.675 20.3615C38.8897 24.4393 36.7774 26.7402 32.5942 29.1575C31.0363 30.0584 28.9711 31.2477 27.0472 32.3537V37.5681C27.0472 37.7095 26.9724 37.8398 26.8504 37.9091L21.5584 40.9529C21.5002 40.9834 21.4336 41 21.3643 41ZM34.5403 6.56187C33.3233 6.56187 32.0038 6.90007 30.6648 7.58756C27.4602 9.23143 25.4172 12.1255 23.6874 15.0085C21.9354 17.9304 21.758 23.4635 21.758 23.519V39.93L26.2655 37.338V32.1236C26.2655 31.9823 26.3403 31.852 26.4623 31.7827C28.4388 30.6461 30.5928 29.4042 32.2034 28.4728C36.2202 26.1525 38.2494 23.9459 39.957 20.0427C41.5925 16.3059 41.2183 11.6737 39.045 8.7768C37.9472 7.31312 36.356 6.56187 34.5403 6.56187ZM26.6563 26.7596C26.587 26.7596 26.5205 26.7429 26.4567 26.7069C26.3375 26.6376 26.2627 26.5073 26.2627 26.3687V20.8466C26.2405 20.6249 26.1518 19.2554 26.9779 16.7716C28.0618 13.5227 31.818 11.0444 34.0219 11.3743C34.7981 11.4907 35.4218 11.8733 35.8737 12.5164C36.6776 13.6585 36.8882 15.6822 36.4392 17.9331C35.7655 21.2957 32.5416 23.4441 31.5685 24.0235C30.6925 24.5447 28.5192 25.7755 26.8504 26.7152C26.7894 26.7429 26.7229 26.7596 26.6563 26.7596ZM33.5728 12.1255C31.5325 12.1255 28.5386 14.5789 27.7264 17.0183C26.9031 19.4855 27.0444 20.7635 27.0472 20.7746C27.05 20.7912 27.05 20.8078 27.05 20.8245V25.6951C29.1208 24.528 30.5373 23.7186 31.1666 23.3443C32.0675 22.8065 35.0586 20.8217 35.6685 17.7751C36.076 15.7321 35.9125 13.9357 35.2305 12.9655C34.9034 12.4998 34.471 12.2336 33.9054 12.1505C33.8001 12.1338 33.6892 12.1255 33.5728 12.1255Z" fill="#312F30"/>
<path d="M8.7622 32.24C9.66314 32.4285 10.5558 32.2012 11.3846 31.7438C11.3846 31.7383 11.2322 30.89 11.4733 29.5511L6.56113 26.8177C6.55836 26.8177 5.77662 31.6108 8.7622 32.24Z" fill="#EC008C"/>
<path d="M9.41364 32.7002C9.16692 32.7002 8.92297 32.6753 8.68457 32.6254C7.28742 32.3315 6.4142 31.1977 6.15639 29.3487C5.97343 28.0292 6.16748 26.8067 6.1758 26.7568C6.1952 26.6293 6.27837 26.5211 6.39202 26.4657C6.50845 26.4103 6.64151 26.413 6.75517 26.4768L11.6674 29.2101C11.8143 29.2905 11.8919 29.4568 11.8642 29.6231C11.6397 30.8706 11.7755 31.6718 11.7755 31.6801C11.8032 31.8436 11.7256 32.0127 11.5787 32.0931C10.8413 32.4951 10.115 32.7002 9.41364 32.7002ZM8.84535 31.8547C9.51066 31.9961 10.2231 31.8824 10.966 31.5193C10.9383 31.1811 10.9217 30.5657 11.0436 29.759L6.891 27.4498C6.8023 28.6612 6.83002 31.4306 8.84535 31.8547Z" fill="#312F30"/>
<path d="M12.2398 36.7641C9.85573 38.0171 7.91524 37.9367 6.76758 37.6845L7.21389 37.8369L21.36 40.6091V23.5078C21.3573 23.5189 20.7807 27.0007 19.3752 29.1962C17.967 31.3917 16.129 34.7183 12.2398 36.7641Z" fill="#6190E8"/>
<path d="M21.3626 41C21.3377 41 21.3127 40.9972 21.2878 40.9917L7.14164 38.2195C7.125 38.2168 7.10837 38.2112 7.09174 38.2057L6.64543 38.0532C6.44861 37.9867 6.33772 37.776 6.39316 37.5764C6.44861 37.3768 6.65097 37.2521 6.85611 37.2992C7.98991 37.5487 9.81397 37.5958 12.0622 36.4149C15.5107 34.6019 17.332 31.7078 18.6598 29.5982C18.7929 29.3848 18.9232 29.1796 19.0507 28.9828C20.3952 26.8815 20.9745 23.4774 20.9801 23.4441C21.0134 23.2417 21.1991 23.0976 21.3987 23.117C21.601 23.1336 21.7591 23.3027 21.7591 23.5079V40.6091C21.7591 40.7255 21.7064 40.8392 21.6149 40.9113C21.5428 40.9695 21.4541 41 21.3626 41ZM10.1023 38.0005L20.9718 40.1295V26.6376C20.6585 27.5746 20.2427 28.5753 19.7105 29.4069C19.5857 29.601 19.4582 29.8061 19.3251 30.0168C17.9502 32.204 16.0651 35.2007 12.4281 37.1107L12.2451 36.7642L12.4281 37.1107C11.5964 37.5487 10.8202 37.8287 10.1023 38.0005Z" fill="#312F30"/>
<path fill-rule="evenodd" clip-rule="evenodd" d="M31.7335 3.72039C31.7335 3.72039 28.2905 2.48957 25.1719 4.78766C22.056 7.08298 20.6367 9.03733 19.2395 11.7318C15.8464 18.2685 17.4376 21.9028 15.3752 27.106C14.66 28.9135 11.7465 32.8693 8.76366 32.24C5.78085 31.6107 6.55982 26.8177 6.55982 26.8177L1.39258 29.8033C1.39258 29.8033 1.947 36.5368 6.62635 37.6512C7.74906 37.9256 9.75608 38.0726 12.2454 36.7641C16.1347 34.7183 17.9727 31.3917 19.3809 29.1935C20.7864 26.9952 21.363 23.5078 21.363 23.5078C21.363 23.5023 21.5238 17.8499 23.3478 14.8061C25.1746 11.7623 27.2621 8.8904 30.4833 7.23545C32.7204 6.08779 35.1266 5.81889 37.0865 6.70043L31.7335 3.72039Z" fill="#87DCFF"/>
<path d="M8.21692 38.2334C7.5627 38.2334 6.99719 38.1475 6.53147 38.0338C4.49119 37.5487 2.88335 35.963 1.88816 33.4543C1.15078 31.5997 1.00663 29.9059 1.00108 29.8366C0.989993 29.6842 1.06484 29.54 1.19513 29.4652L6.36514 26.4796C6.49543 26.4047 6.65899 26.4103 6.78374 26.4962C6.90848 26.5822 6.97224 26.7319 6.94729 26.8815C6.93897 26.9259 6.26258 31.3142 8.84342 31.8575C11.5851 32.4369 14.3655 28.5919 15.0086 26.9647C15.8708 24.7914 16.0787 22.9035 16.3004 20.9076C16.6026 18.1826 16.9131 15.3634 18.8896 11.5572C20.2868 8.8655 21.7227 6.84462 24.9384 4.47723C28.1845 2.08488 31.7162 3.30462 31.8632 3.35729C31.8826 3.3656 31.902 3.37392 31.9214 3.38501L37.2771 6.36504C37.4601 6.46761 37.5322 6.6977 37.4379 6.88343C37.3436 7.07194 37.1191 7.15233 36.9251 7.06639C35.1481 6.27079 32.8667 6.46207 30.6628 7.5931C27.4582 9.23974 25.4152 12.1338 23.6854 15.0141C21.9306 17.9414 21.756 23.4663 21.756 23.5217C21.756 23.5384 21.7532 23.5578 21.7504 23.5744C21.7255 23.7213 21.1433 27.1698 19.7074 29.4097C19.5826 29.6038 19.4551 29.8089 19.3221 30.0196C17.9471 32.2068 16.062 35.2035 12.425 37.1135C10.8061 37.9645 9.37567 38.2334 8.21692 38.2334ZM1.81054 30.014C1.96578 31.2005 2.85841 36.3484 6.71443 37.2687C7.87318 37.5542 9.74159 37.6346 12.0591 36.4149C15.5076 34.6019 17.3289 31.7078 18.6567 29.5982C18.7898 29.3848 18.9201 29.1796 19.0476 28.9828C20.3339 26.9758 20.9188 23.7823 20.9715 23.4663C20.9881 23.0006 21.2099 17.6088 23.0118 14.6038C24.7998 11.621 26.9232 8.62433 30.3024 6.8862C31.755 6.1405 33.2464 5.76627 34.6408 5.78844L31.5721 4.08081C31.2505 3.97824 28.1651 3.06899 25.4041 5.10373C22.3132 7.38241 20.9299 9.32567 19.5882 11.9148C17.6782 15.5935 17.376 18.3379 17.0822 20.9908C16.8549 23.0422 16.6414 24.9799 15.7405 27.253C15.3635 28.2039 14.4293 29.6897 13.1901 30.8734C11.671 32.3232 10.1131 32.9276 8.67987 32.6282C6.12674 32.0904 5.99922 29.0216 6.08793 27.5469L1.81054 30.014Z" fill="#312F30"/>
</svg>
