<svg width="100" height="62" viewBox="0 0 100 62" fill="none" xmlns="http://www.w3.org/2000/svg">
<g opacity="0.06">
<path d="M33.1602 31.36C33.1602 40.3733 34.7602 47.44 37.9602 52.56C41.1602 57.6266 46.4935 60.16 53.9602 60.16C61.4268 60.16 66.7602 57.6 69.9602 52.48C73.1602 47.36 74.7602 40.32 74.7602 31.36C74.7602 22.4533 73.1602 15.4666 69.9602 10.4C66.7602 5.27997 61.4268 2.71997 53.9602 2.71997C46.4935 2.71997 41.1602 5.2533 37.9602 10.32C34.7602 15.3866 33.1602 22.4 33.1602 31.36ZM65.6402 31.36C65.6402 37.8666 64.8402 42.8533 63.2402 46.32C61.6402 49.7866 58.5468 51.52 53.9602 51.52C49.3202 51.52 46.2002 49.7866 44.6002 46.32C43.0002 42.8533 42.2002 37.8666 42.2002 31.36C42.2002 24.9066 43.0002 19.9733 44.6002 16.56C46.2002 13.1466 49.3202 11.44 53.9602 11.44C58.5468 11.44 61.6402 13.1733 63.2402 16.64C64.8402 20.0533 65.6402 24.96 65.6402 31.36Z" fill="#193130"/>
<path d="M81.4839 12.08V3.51997H99.5639V60H89.9639V12.08H81.4839Z" fill="#193130"/>
</g>
</svg>
