<svg width="100" height="62" viewBox="0 0 100 62" fill="none" xmlns="http://www.w3.org/2000/svg">
<g opacity="0.06">
<path d="M9.16016 31.36C9.16016 40.3733 10.7602 47.44 13.9602 52.56C17.1602 57.6266 22.4935 60.16 29.9602 60.16C37.4268 60.16 42.7602 57.6 45.9602 52.48C49.1602 47.36 50.7602 40.32 50.7602 31.36C50.7602 22.4533 49.1602 15.4667 45.9602 10.4C42.7602 5.27998 37.4268 2.71998 29.9602 2.71998C22.4935 2.71998 17.1602 5.25332 13.9602 10.32C10.7602 15.3866 9.16016 22.4 9.16016 31.36ZM41.6402 31.36C41.6402 37.8667 40.8402 42.8533 39.2402 46.32C37.6402 49.7867 34.5468 51.52 29.9602 51.52C25.3202 51.52 22.2002 49.7867 20.6002 46.32C19.0002 42.8533 18.2002 37.8667 18.2002 31.36C18.2002 24.9067 19.0002 19.9733 20.6002 16.56C22.2002 13.1466 25.3202 11.44 29.9602 11.44C34.5468 11.44 37.6402 13.1733 39.2402 16.64C40.8402 20.0533 41.6402 24.96 41.6402 31.36Z" fill="#193130"/>
<path d="M59.6439 52.88C68.2839 46.96 75.1906 41.1733 80.3639 35.52C85.5906 29.8133 88.2039 24.5333 88.2039 19.68C88.2039 16.8 87.4839 14.5066 86.0439 12.8C84.6572 11.0933 82.3906 10.24 79.2439 10.24C75.9906 10.24 73.5372 11.3066 71.8839 13.44C70.2306 15.52 69.2972 18.5066 69.0839 22.4H60.2039C60.5772 15.9466 62.5506 11.0133 66.1239 7.59998C69.7506 4.18665 74.3639 2.47998 79.9639 2.47998C85.4572 2.47998 89.7506 3.94665 92.8439 6.87998C95.9906 9.75998 97.5639 13.76 97.5639 18.88C97.5639 22.9867 96.2839 27.1467 93.7239 31.36C91.2172 35.5733 88.0172 39.4667 84.1239 43.04C80.2306 46.56 76.2039 49.6 72.0439 52.16H98.8439V59.6H59.6439V52.88Z" fill="#193130"/>
</g>
</svg>
