<svg width="100" height="62" viewBox="0 0 100 62" fill="none" xmlns="http://www.w3.org/2000/svg">
<g opacity="0.06">
<path d="M9.16016 31.36C9.16016 40.3733 10.7602 47.44 13.9602 52.56C17.1602 57.6267 22.4935 60.16 29.9602 60.16C37.4268 60.16 42.7602 57.6 45.9602 52.48C49.1602 47.36 50.7602 40.32 50.7602 31.36C50.7602 22.4533 49.1602 15.4667 45.9602 10.4C42.7602 5.28001 37.4268 2.72001 29.9602 2.72001C22.4935 2.72001 17.1602 5.25334 13.9602 10.32C10.7602 15.3867 9.16016 22.4 9.16016 31.36ZM41.6402 31.36C41.6402 37.8667 40.8402 42.8533 39.2402 46.32C37.6402 49.7867 34.5468 51.52 29.9602 51.52C25.3202 51.52 22.2002 49.7867 20.6002 46.32C19.0002 42.8533 18.2002 37.8667 18.2002 31.36C18.2002 24.9067 19.0002 19.9733 20.6002 16.56C22.2002 13.1467 25.3202 11.44 29.9602 11.44C34.5468 11.44 37.6402 13.1733 39.2402 16.64C40.8402 20.0533 41.6402 24.96 41.6402 31.36Z" fill="#193130"/>
<path d="M80.4439 1.76001C84.1772 1.76001 87.3772 2.42668 90.0439 3.76001C92.7106 5.04001 94.7106 6.82668 96.0439 9.12001C97.4306 11.4133 98.1239 13.9733 98.1239 16.8C98.1239 20.3733 97.1106 23.36 95.0839 25.76C93.1106 28.1067 90.3106 29.52 86.6839 30V30.4C90.5772 31.52 93.6172 33.2 95.8039 35.44C98.0439 37.6267 99.1639 40.6667 99.1639 44.56C99.1639 49.3067 97.5906 53.1734 94.4439 56.16C91.2972 59.0934 86.7906 60.56 80.9239 60.56C74.8972 60.56 70.0439 59.04 66.3639 56C62.6839 52.9067 60.5772 48.3467 60.0439 42.32H69.0839C69.4039 45.52 70.5506 48.08 72.5239 50C74.4972 51.8667 77.1639 52.8 80.5239 52.8C83.6706 52.8 86.0706 51.9733 87.7239 50.32C89.4306 48.6667 90.2839 46.5333 90.2839 43.92C90.2839 40.7733 89.0572 38.3733 86.6039 36.72C84.2039 35.0667 80.7106 34.24 76.1239 34.24H73.9639V26.72H76.1239C84.8172 26.8267 89.1639 23.8667 89.1639 17.84C89.1639 15.2267 88.3639 13.1733 86.7639 11.68C85.1639 10.1867 82.9772 9.44001 80.2039 9.44001C77.4306 9.44001 75.1106 10.2933 73.2439 12C71.3772 13.6533 70.2572 16.08 69.8839 19.28H60.9239C61.2972 13.7333 63.1639 9.44001 66.5239 6.40001C69.8839 3.30668 74.5239 1.76001 80.4439 1.76001Z" fill="#193130"/>
</g>
</svg>
