<svg width="160" height="90" viewBox="0 0 160 90" fill="none" xmlns="http://www.w3.org/2000/svg">
<rect width="160" height="90" rx="4" fill="#EAEDED"/>
<path d="M48.58 31.528V37.504C48.58 38.32 48.352 38.956 47.896 39.412C47.448 39.86 46.824 40.084 46.024 40.084C45.16 40.084 44.476 39.836 43.972 39.34C43.468 38.844 43.216 38.136 43.216 37.216H44.884C44.884 37.648 44.972 37.98 45.148 38.212C45.332 38.444 45.6 38.56 45.952 38.56C46.272 38.56 46.508 38.468 46.66 38.284C46.812 38.092 46.888 37.832 46.888 37.504V31.528H48.58ZM51.753 36.856V40H50.061V31.528H53.145C54.145 31.528 54.897 31.768 55.401 32.248C55.913 32.728 56.169 33.38 56.169 34.204C56.169 35.012 55.905 35.656 55.377 36.136C54.857 36.616 54.113 36.856 53.145 36.856H51.753ZM52.965 35.5C53.957 35.5 54.453 35.068 54.453 34.204C54.453 33.78 54.337 33.456 54.105 33.232C53.873 33.008 53.493 32.896 52.965 32.896H51.753V35.5H52.965ZM60.34 33.268C60.988 33.268 61.568 33.404 62.08 33.676C62.6 33.948 63.008 34.344 63.304 34.864C63.6 35.376 63.748 35.98 63.748 36.676C63.748 37.372 63.6 37.976 63.304 38.488C63.008 39 62.6 39.396 62.08 39.676C61.568 39.948 60.988 40.084 60.34 40.084C59.692 40.084 59.108 39.948 58.588 39.676C58.076 39.396 57.672 39 57.376 38.488C57.08 37.976 56.932 37.372 56.932 36.676C56.932 35.98 57.08 35.376 57.376 34.864C57.672 34.344 58.076 33.948 58.588 33.676C59.108 33.404 59.692 33.268 60.34 33.268ZM60.34 34.732C59.868 34.732 59.468 34.9 59.14 35.236C58.812 35.564 58.648 36.044 58.648 36.676C58.648 37.308 58.812 37.792 59.14 38.128C59.468 38.456 59.868 38.62 60.34 38.62C60.812 38.62 61.212 38.456 61.54 38.128C61.868 37.792 62.032 37.308 62.032 36.676C62.032 36.044 61.868 35.564 61.54 35.236C61.212 34.9 60.812 34.732 60.34 34.732ZM66.6358 34.624C66.8838 34.2 67.2118 33.868 67.6198 33.628C68.0278 33.38 68.4838 33.256 68.9878 33.256V35.068H68.4958C67.2558 35.068 66.6358 35.644 66.6358 36.796V40H64.9438V33.352H66.6358V34.624ZM73.4763 38.548V40H72.5883C71.8443 40 71.2723 39.82 70.8723 39.46C70.4803 39.1 70.2843 38.5 70.2843 37.66V34.78H69.3603V33.352H70.2843V31.708H71.9763V33.352H73.4643V34.78H71.9763V37.684C71.9763 38.004 72.0403 38.228 72.1683 38.356C72.2963 38.484 72.5123 38.548 72.8163 38.548H73.4763ZM86.4391 31.624V40H84.7591V34.156L82.6111 40H81.1471L78.9991 34.18V40H77.3071V31.624H79.3591L81.9031 37.924L84.3991 31.624H86.4391ZM90.5751 33.268C91.1351 33.268 91.6151 33.4 92.0151 33.664C92.4151 33.928 92.6991 34.284 92.8671 34.732V33.352H94.5471V40H92.8671V38.608C92.6991 39.056 92.4151 39.416 92.0151 39.688C91.6151 39.952 91.1351 40.084 90.5751 40.084C90.0151 40.084 89.5111 39.948 89.0631 39.676C88.6151 39.404 88.2631 39.012 88.0071 38.5C87.7591 37.98 87.6351 37.372 87.6351 36.676C87.6351 35.98 87.7591 35.376 88.0071 34.864C88.2631 34.344 88.6151 33.948 89.0631 33.676C89.5111 33.404 90.0151 33.268 90.5751 33.268ZM91.1031 34.744C90.5751 34.744 90.1511 34.916 89.8311 35.26C89.5111 35.604 89.3511 36.076 89.3511 36.676C89.3511 37.276 89.5111 37.748 89.8311 38.092C90.1511 38.428 90.5751 38.596 91.1031 38.596C91.6151 38.596 92.0351 38.424 92.3631 38.08C92.6991 37.728 92.8671 37.26 92.8671 36.676C92.8671 36.084 92.6991 35.616 92.3631 35.272C92.0351 34.92 91.6151 34.744 91.1031 34.744ZM99.6325 38.548V40H98.7445C98.0005 40 97.4285 39.82 97.0285 39.46C96.6365 39.1 96.4405 38.5 96.4405 37.66V34.78H95.5165V33.352H96.4405V31.708H98.1325V33.352H99.6205V34.78H98.1325V37.684C98.1325 38.004 98.1965 38.228 98.3245 38.356C98.4525 38.484 98.6685 38.548 98.9725 38.548H99.6325ZM103.838 33.268C104.694 33.268 105.406 33.5 105.974 33.964C106.55 34.428 106.91 35.06 107.054 35.86H105.266C105.194 35.508 105.03 35.232 104.774 35.032C104.518 34.824 104.194 34.72 103.802 34.72C103.354 34.72 102.978 34.888 102.674 35.224C102.378 35.552 102.23 36.036 102.23 36.676C102.23 37.316 102.378 37.804 102.674 38.14C102.978 38.468 103.354 38.632 103.802 38.632C104.194 38.632 104.518 38.532 104.774 38.332C105.03 38.124 105.194 37.844 105.266 37.492H107.054C106.91 38.292 106.55 38.924 105.974 39.388C105.406 39.852 104.694 40.084 103.838 40.084C103.19 40.084 102.614 39.948 102.11 39.676C101.606 39.396 101.214 39 100.934 38.488C100.654 37.976 100.514 37.372 100.514 36.676C100.514 35.98 100.654 35.376 100.934 34.864C101.214 34.344 101.606 33.948 102.11 33.676C102.614 33.404 103.19 33.268 103.838 33.268ZM112.216 33.256C112.984 33.256 113.596 33.508 114.052 34.012C114.508 34.516 114.736 35.224 114.736 36.136V40H113.056V36.328C113.056 35.8 112.92 35.392 112.648 35.104C112.376 34.808 112.004 34.66 111.532 34.66C111.052 34.66 110.668 34.816 110.38 35.128C110.092 35.44 109.948 35.888 109.948 36.472V40H108.256V31.12H109.948V34.684C110.124 34.236 110.412 33.888 110.812 33.64C111.22 33.384 111.688 33.256 112.216 33.256ZM47.2 52.996L46.288 53.236V51.412H47.284V50.104H46.288V47.848H44.92V50.104H43.528V51.412H44.92V53.572C44.308 53.716 43.744 53.848 43.288 53.944L43.588 55.324L44.92 54.964V57.424C44.92 57.604 44.86 57.652 44.716 57.652C44.56 57.664 44.068 57.664 43.6 57.64C43.78 58.036 43.96 58.648 43.996 59.032C44.824 59.032 45.388 58.984 45.784 58.744C46.168 58.528 46.288 58.144 46.288 57.436V54.58C46.648 54.472 47.008 54.376 47.356 54.268L47.2 52.996ZM49.66 56.884C49.312 56.884 49.252 56.836 49.252 56.536V56.224C50.092 56.056 51.052 55.804 51.796 55.492L50.968 54.616C50.548 54.832 49.9 55.048 49.252 55.228V54.58H48.94C49.012 54.484 49.072 54.4 49.144 54.304H52.996C52.864 56.548 52.696 57.496 52.456 57.736C52.336 57.856 52.228 57.892 52.024 57.892C51.916 57.892 51.736 57.892 51.52 57.88C51.916 57.724 52.096 57.364 52.192 56.632C51.868 56.56 51.364 56.368 51.124 56.2C51.088 56.788 51.028 56.884 50.752 56.884H49.66ZM49.216 50.788H52.48V51.436H49.216V50.788ZM49.216 49.216H52.48V49.852H49.216V49.216ZM49.852 53.128C49.972 52.9 50.08 52.672 50.164 52.444H53.836V48.208H47.92V52.444H48.7C48.22 53.476 47.464 54.412 46.576 55.012C46.876 55.228 47.368 55.732 47.572 55.984C47.728 55.864 47.884 55.72 48.04 55.576V56.548C48.04 57.64 48.304 57.976 49.504 57.976H50.848C51.004 58.3 51.112 58.72 51.136 59.02C51.736 59.044 52.3 59.044 52.66 59.008C53.044 58.948 53.344 58.852 53.608 58.528C53.992 58.084 54.184 56.86 54.352 53.68C54.376 53.512 54.388 53.128 54.388 53.128H49.852ZM66.28 49.528C65.968 49.048 65.296 48.364 64.768 47.884L63.724 48.58C64.24 49.084 64.9 49.828 65.164 50.296L66.28 49.528ZM61.54 56.956H59.344V56.488H61.384V53.536H59.356V53.068H61.552V52.072H59.356V51.544H61.996C62.092 53.296 62.296 54.904 62.632 56.164C62.296 56.56 61.924 56.908 61.54 57.22V56.956ZM57.124 55.348H58.204V55.792H57.124V55.348ZM57.124 54.232H58.204V54.676H57.124V54.232ZM59.236 54.676V54.232H60.34V54.676H59.236ZM59.236 55.792V55.348H60.34V55.792H59.236ZM64.816 52.06C64.54 52.984 64.168 53.848 63.724 54.616C63.568 53.728 63.46 52.684 63.388 51.544H66.448V50.368H63.34C63.316 49.552 63.304 48.712 63.328 47.848H61.888C61.888 48.7 61.9 49.54 61.936 50.368H59.416V49.732H61.336V48.652H59.416V47.848H58.048V48.652H56.116V49.732H58.048V50.368H55.588V51.544H58.072V52.072H55.912V53.068H58.072V53.536H56.128V56.488H58.096V56.956H55.744V57.988H58.096V59.056H59.344V57.988H60.46C60.808 58.276 61.204 58.708 61.408 59.068C62.044 58.648 62.62 58.156 63.148 57.616C63.592 58.516 64.18 59.044 64.948 59.044C66.004 59.044 66.436 58.528 66.628 56.44C66.28 56.308 65.8 56.008 65.5 55.684C65.44 57.076 65.32 57.652 65.08 57.652C64.72 57.652 64.408 57.196 64.144 56.416C64.96 55.288 65.608 53.956 66.088 52.456L64.816 52.06ZM72.148 47.788C71.248 49.312 69.316 51.22 67.24 52.288C67.552 52.588 67.96 53.116 68.14 53.44C70.12 52.324 71.968 50.656 72.94 49.192C73.972 50.668 75.976 52.396 77.836 53.428C78.112 52.984 78.436 52.516 78.796 52.144C76.876 51.316 74.908 49.684 73.612 47.788H72.148ZM73.816 55.024H77.032V53.764H73.816V51.196H72.316V57.424H70.612V53.26H69.208V57.424H67.9V58.72H78.112V57.424H73.816V55.024ZM86.476 50.956C86.344 51.28 86.2 51.628 86.056 51.916H83.812L84.016 51.88C83.932 51.616 83.776 51.268 83.608 50.956H86.476ZM90.352 56.308V55.132H85.684V54.604H89.284V53.572H85.684V53.032H89.848V51.916H87.496C87.676 51.628 87.868 51.304 88.06 50.956H90.316V49.792H88.756C89.032 49.372 89.356 48.832 89.692 48.28L88.192 47.92C88.024 48.448 87.724 49.168 87.436 49.66L87.868 49.792H86.8V47.836H85.456V49.792H84.568V47.836H83.236V49.792H82.144L82.732 49.576C82.564 49.108 82.168 48.4 81.82 47.884L80.596 48.304C80.86 48.76 81.172 49.336 81.34 49.792H79.732V50.956H82.24L82.096 50.98C82.252 51.256 82.408 51.616 82.504 51.916H80.224V53.032H84.28V53.572H80.824V54.604H84.28V55.132H79.696V56.308H83.14C82.108 56.932 80.692 57.436 79.348 57.712C79.648 58 80.056 58.552 80.26 58.9C81.688 58.528 83.164 57.832 84.28 56.956V59.044H85.684V56.884C86.788 57.82 88.24 58.54 89.716 58.912C89.932 58.528 90.352 57.928 90.676 57.616C89.284 57.4 87.892 56.932 86.872 56.308H90.352Z" fill="#768486"/>
</svg>
