<svg width="100" height="50" viewBox="0 0 100 50" fill="none" xmlns="http://www.w3.org/2000/svg">
<path d="M0 10C0 4.47715 4.47715 0 10 0H100V40C100 45.5228 95.5228 50 90 50H0V10Z" fill="#5FBBB8"/>
<path d="M20.32 23.67H21.69C21.69 22.03 20.9 21 19.34 21C17.96 21 17 22 17 23.43V25.85C17 27.29 17.96 28.29 19.34 28.29C20.93 28.29 21.69 27.34 21.69 25.54H20.32V25.63C20.32 26.66 19.98 26.97 19.34 26.97C18.87 26.97 18.37 26.72 18.37 25.89V23.39C18.37 22.58 18.87 22.32 19.34 22.32C19.82 22.32 20.32 22.53 20.32 23.57V23.67Z" fill="white"/>
<path d="M25.7795 28.28C27.1595 28.28 28.1295 27.28 28.1295 25.85V23.45C28.1295 22.01 27.1595 21 25.7795 21C24.3995 21 23.4395 22.01 23.4395 23.45V25.85C23.4395 27.28 24.3995 28.28 25.7795 28.28ZM25.7795 26.96C25.2695 26.96 24.8095 26.68 24.8095 25.89V23.39C24.8095 22.58 25.2995 22.32 25.7795 22.32C26.2995 22.32 26.7595 22.61 26.7595 23.4V25.9C26.7595 26.71 26.2495 26.96 25.7795 26.96Z" fill="white"/>
<path d="M32.6266 26.86H33.5566L34.6466 24.21V28.18H36.0166V21.13H34.6566L33.0966 25.04L31.5366 21.13H30.1766V28.18H31.5466V24.23L32.6266 26.86Z" fill="white"/>
<path d="M39.6962 21.13H38.3262V28.18H39.6962V21.13Z" fill="white"/>
<path d="M46.7305 21.15H45.3505V25.23L43.3005 21.13H42.0105V28.18H43.3805V24.1L45.4405 28.18H46.7305V21.15Z" fill="white"/>
<path d="M51.1173 24.57V25.78H52.0873V25.9C52.0873 26.68 51.6173 26.96 51.1073 26.96C50.5173 26.96 50.1473 26.62 50.1473 25.9V23.58C50.1473 22.64 50.5173 22.32 51.1273 22.32C51.7073 22.32 52.0873 22.63 52.0873 23.38H53.4573C53.4273 21.98 52.4773 21 51.1073 21C49.7373 21 48.7773 22 48.7773 23.44V25.85C48.7773 27.29 49.7373 28.28 51.1073 28.28C52.4973 28.28 53.4573 27.29 53.4573 25.85V24.57H51.1173Z" fill="white"/>
<path d="M61.732 26.17C61.732 26.75 61.312 27.02 60.732 27.02C60.132 27.02 59.712 26.68 59.712 25.86H58.352C58.352 27.37 59.322 28.3 60.732 28.3C62.152 28.3 63.102 27.5 63.102 26.16C63.102 23.64 59.802 24.47 59.802 23.07C59.802 22.54 60.132 22.26 60.712 22.26C61.302 22.26 61.662 22.61 61.662 23.36H63.012C63.012 21.91 62.082 21 60.732 21C59.352 21 58.442 21.78 58.442 23.07C58.442 25.57 61.732 24.83 61.732 26.17Z" fill="white"/>
<path d="M67.1838 28.28C68.5638 28.28 69.5337 27.28 69.5337 25.85V23.45C69.5337 22.01 68.5638 21 67.1838 21C65.8038 21 64.8438 22.01 64.8438 23.45V25.85C64.8438 27.28 65.8038 28.28 67.1838 28.28ZM67.1838 26.96C66.6738 26.96 66.2137 26.68 66.2137 25.89V23.39C66.2137 22.58 66.7038 22.32 67.1838 22.32C67.7038 22.32 68.1637 22.61 68.1637 23.4V25.9C68.1637 26.71 67.6538 26.96 67.1838 26.96Z" fill="white"/>
<path d="M73.7209 28.28C75.1009 28.28 76.0709 27.28 76.0709 25.85V23.45C76.0709 22.01 75.1009 21 73.7209 21C72.3409 21 71.3809 22.01 71.3809 23.45V25.85C71.3809 27.28 72.3409 28.28 73.7209 28.28ZM73.7209 26.96C73.2109 26.96 72.7509 26.68 72.7509 25.89V23.39C72.7509 22.58 73.2409 22.32 73.7209 22.32C74.2409 22.32 74.7009 22.61 74.7009 23.4V25.9C74.7009 26.71 74.1909 26.96 73.7209 26.96Z" fill="white"/>
<path d="M82.838 21.15H81.458V25.23L79.408 21.13H78.118V28.18H79.488V24.1L81.548 28.18H82.838V21.15Z" fill="white"/>
</svg>
