<svg width="530" height="210" viewBox="0 0 530 210" fill="none" xmlns="http://www.w3.org/2000/svg">
<path d="M185.62 28.456C186.652 28.456 187.504 28.712 188.176 29.224C188.848 29.728 189.312 30.42 189.568 31.3H188.416C188.2 30.74 187.852 30.296 187.372 29.968C186.892 29.632 186.304 29.464 185.608 29.464C185.056 29.464 184.56 29.6 184.12 29.872C183.688 30.136 183.344 30.52 183.088 31.024C182.84 31.52 182.716 32.104 182.716 32.776C182.716 33.44 182.84 34.02 183.088 34.516C183.344 35.012 183.688 35.396 184.12 35.668C184.56 35.932 185.056 36.064 185.608 36.064C186.304 36.064 186.892 35.9 187.372 35.572C187.852 35.236 188.2 34.788 188.416 34.228H189.568C189.312 35.108 188.848 35.804 188.176 36.316C187.504 36.82 186.652 37.072 185.62 37.072C184.828 37.072 184.128 36.892 183.52 36.532C182.912 36.164 182.436 35.656 182.092 35.008C181.756 34.352 181.588 33.608 181.588 32.776C181.588 31.936 181.756 31.188 182.092 30.532C182.436 29.876 182.912 29.368 183.52 29.008C184.128 28.64 184.828 28.456 185.62 28.456ZM194.496 30.304C195.264 30.304 195.884 30.552 196.356 31.048C196.828 31.536 197.064 32.244 197.064 33.172V37H195.972V33.268C195.972 32.612 195.804 32.108 195.468 31.756C195.132 31.404 194.676 31.228 194.1 31.228C193.5 31.228 193.02 31.424 192.66 31.816C192.3 32.2 192.12 32.764 192.12 33.508V37H191.028V28.12H192.12V31.972C192.288 31.436 192.584 31.024 193.008 30.736C193.44 30.448 193.936 30.304 194.496 30.304ZM201.439 30.328C202.079 30.328 202.619 30.488 203.059 30.808C203.507 31.128 203.819 31.556 203.995 32.092V30.412H205.087V37H203.995V35.32C203.819 35.856 203.507 36.284 203.059 36.604C202.619 36.924 202.079 37.084 201.439 37.084C200.855 37.084 200.335 36.948 199.879 36.676C199.423 36.404 199.063 36.016 198.799 35.512C198.543 35 198.415 34.4 198.415 33.712C198.415 33.024 198.543 32.424 198.799 31.912C199.063 31.4 199.423 31.008 199.879 30.736C200.335 30.464 200.855 30.328 201.439 30.328ZM201.751 31.3C201.079 31.3 200.539 31.516 200.131 31.948C199.731 32.372 199.531 32.96 199.531 33.712C199.531 34.464 199.731 35.056 200.131 35.488C200.539 35.912 201.079 36.124 201.751 36.124C202.183 36.124 202.567 36.024 202.903 35.824C203.247 35.624 203.515 35.344 203.707 34.984C203.899 34.616 203.995 34.192 203.995 33.712C203.995 33.232 203.899 32.808 203.707 32.44C203.515 32.072 203.247 31.792 202.903 31.6C202.567 31.4 202.183 31.3 201.751 31.3ZM209.969 36.04V37H209.153C208.481 37 207.977 36.84 207.641 36.52C207.313 36.2 207.149 35.664 207.149 34.912V31.36H206.165V30.412H207.149V28.768H208.253V30.412H209.957V31.36H208.253V34.936C208.253 35.36 208.329 35.652 208.481 35.812C208.641 35.964 208.913 36.04 209.297 36.04H209.969ZM190.348 64.684V73H189.256V66.364L186.604 73H185.632L182.968 66.388V73H181.876V64.684H183.184L186.136 71.668L189.04 64.684H190.348ZM198.155 69.34C198.155 69.572 198.139 69.772 198.107 69.94H192.839C192.863 70.692 193.075 71.256 193.475 71.632C193.883 72.008 194.379 72.196 194.963 72.196C195.491 72.196 195.931 72.064 196.283 71.8C196.643 71.528 196.863 71.168 196.943 70.72H198.107C198.027 71.176 197.847 71.584 197.567 71.944C197.295 72.304 196.939 72.584 196.499 72.784C196.059 72.984 195.563 73.084 195.011 73.084C194.379 73.084 193.819 72.948 193.331 72.676C192.843 72.404 192.459 72.016 192.179 71.512C191.907 71 191.771 70.4 191.771 69.712C191.771 69.024 191.907 68.424 192.179 67.912C192.459 67.4 192.843 67.008 193.331 66.736C193.819 66.464 194.379 66.328 195.011 66.328C195.651 66.328 196.207 66.464 196.679 66.736C197.159 67.008 197.523 67.372 197.771 67.828C198.027 68.284 198.155 68.788 198.155 69.34ZM197.051 69.412C197.075 68.924 196.995 68.516 196.811 68.188C196.627 67.86 196.375 67.616 196.055 67.456C195.735 67.296 195.387 67.216 195.011 67.216C194.411 67.216 193.907 67.404 193.499 67.78C193.091 68.148 192.871 68.692 192.839 69.412H197.051ZM205.643 69.34C205.643 69.572 205.627 69.772 205.595 69.94H200.327C200.351 70.692 200.563 71.256 200.963 71.632C201.371 72.008 201.867 72.196 202.451 72.196C202.979 72.196 203.419 72.064 203.771 71.8C204.131 71.528 204.351 71.168 204.431 70.72H205.595C205.515 71.176 205.335 71.584 205.055 71.944C204.783 72.304 204.427 72.584 203.987 72.784C203.547 72.984 203.051 73.084 202.499 73.084C201.867 73.084 201.307 72.948 200.819 72.676C200.331 72.404 199.947 72.016 199.667 71.512C199.395 71 199.259 70.4 199.259 69.712C199.259 69.024 199.395 68.424 199.667 67.912C199.947 67.4 200.331 67.008 200.819 66.736C201.307 66.464 201.867 66.328 202.499 66.328C203.139 66.328 203.695 66.464 204.167 66.736C204.647 67.008 205.011 67.372 205.259 67.828C205.515 68.284 205.643 68.788 205.643 69.34ZM204.539 69.412C204.563 68.924 204.483 68.516 204.299 68.188C204.115 67.86 203.863 67.616 203.543 67.456C203.223 67.296 202.875 67.216 202.499 67.216C201.899 67.216 201.395 67.404 200.987 67.78C200.579 68.148 200.359 68.692 200.327 69.412H204.539ZM210.215 72.04V73H209.399C208.727 73 208.223 72.84 207.887 72.52C207.559 72.2 207.395 71.664 207.395 70.912V67.36H206.411V66.412H207.395V64.768H208.499V66.412H210.203V67.36H208.499V70.936C208.499 71.36 208.575 71.652 208.727 71.812C208.887 71.964 209.159 72.04 209.543 72.04H210.215ZM182.968 100.54V109H181.876V100.54H182.968ZM188.192 102.304C188.96 102.304 189.58 102.552 190.052 103.048C190.524 103.536 190.76 104.244 190.76 105.172V109H189.668V105.268C189.668 104.612 189.5 104.108 189.164 103.756C188.828 103.404 188.372 103.228 187.796 103.228C187.196 103.228 186.716 103.424 186.356 103.816C185.996 104.2 185.816 104.764 185.816 105.508V109H184.724V102.412H185.816V103.972C185.984 103.436 186.28 103.024 186.704 102.736C187.136 102.448 187.632 102.304 188.192 102.304ZM194.991 107.836L197.031 102.412H198.207L195.627 109H194.331L191.751 102.412H192.927L194.991 107.836ZM199.086 100.48C199.086 100.28 199.154 100.12 199.29 100C199.426 99.872 199.606 99.808 199.83 99.808C200.054 99.808 200.234 99.872 200.37 100C200.506 100.12 200.574 100.28 200.574 100.48C200.574 100.68 200.506 100.844 200.37 100.972C200.234 101.092 200.054 101.152 199.83 101.152C199.606 101.152 199.426 101.092 199.29 100.972C199.154 100.844 199.086 100.68 199.086 100.48ZM200.37 102.412V109H199.278V102.412H200.37ZM205.27 108.04V109H204.454C203.782 109 203.278 108.84 202.942 108.52C202.614 108.2 202.45 107.664 202.45 106.912V103.36H201.466V102.412H202.45V100.768H203.554V102.412H205.258V103.36H203.554V106.936C203.554 107.36 203.63 107.652 203.782 107.812C203.942 107.964 204.214 108.04 204.598 108.04H205.27ZM212.663 105.34C212.663 105.572 212.647 105.772 212.615 105.94H207.347C207.371 106.692 207.583 107.256 207.983 107.632C208.391 108.008 208.887 108.196 209.471 108.196C209.999 108.196 210.439 108.064 210.791 107.8C211.151 107.528 211.371 107.168 211.451 106.72H212.615C212.535 107.176 212.355 107.584 212.075 107.944C211.803 108.304 211.447 108.584 211.007 108.784C210.567 108.984 210.071 109.084 209.519 109.084C208.887 109.084 208.327 108.948 207.839 108.676C207.351 108.404 206.967 108.016 206.687 107.512C206.415 107 206.279 106.4 206.279 105.712C206.279 105.024 206.415 104.424 206.687 103.912C206.967 103.4 207.351 103.008 207.839 102.736C208.327 102.464 208.887 102.328 209.519 102.328C210.159 102.328 210.715 102.464 211.187 102.736C211.667 103.008 212.031 103.372 212.279 103.828C212.535 104.284 212.663 104.788 212.663 105.34ZM211.559 105.412C211.583 104.924 211.503 104.516 211.319 104.188C211.135 103.86 210.883 103.616 210.563 103.456C210.243 103.296 209.895 103.216 209.519 103.216C208.919 103.216 208.415 103.404 208.007 103.78C207.599 104.148 207.379 104.692 207.347 105.412H211.559ZM220.2 108.04V109H219.384C218.712 109 218.208 108.84 217.872 108.52C217.544 108.2 217.38 107.664 217.38 106.912V103.36H216.396V102.412H217.38V100.768H218.484V102.412H220.188V103.36H218.484V106.936C218.484 107.36 218.56 107.652 218.712 107.812C218.872 107.964 219.144 108.04 219.528 108.04H220.2ZM224.52 102.328C225.152 102.328 225.716 102.464 226.212 102.736C226.716 103.008 227.108 103.4 227.388 103.912C227.676 104.424 227.82 105.024 227.82 105.712C227.82 106.4 227.676 107 227.388 107.512C227.108 108.016 226.716 108.404 226.212 108.676C225.716 108.948 225.152 109.084 224.52 109.084C223.888 109.084 223.32 108.948 222.816 108.676C222.32 108.404 221.928 108.016 221.64 107.512C221.352 107 221.208 106.4 221.208 105.712C221.208 105.024 221.352 104.424 221.64 103.912C221.928 103.4 222.32 103.008 222.816 102.736C223.32 102.464 223.888 102.328 224.52 102.328ZM224.52 103.288C224.128 103.288 223.764 103.376 223.428 103.552C223.1 103.728 222.832 104 222.624 104.368C222.424 104.728 222.324 105.176 222.324 105.712C222.324 106.24 222.424 106.688 222.624 107.056C222.832 107.416 223.1 107.684 223.428 107.86C223.764 108.036 224.128 108.124 224.52 108.124C224.912 108.124 225.272 108.036 225.6 107.86C225.936 107.684 226.204 107.416 226.404 107.056C226.612 106.688 226.716 106.24 226.716 105.712C226.716 105.176 226.612 104.728 226.404 104.368C226.204 104 225.936 103.728 225.6 103.552C225.272 103.376 224.912 103.288 224.52 103.288ZM232.664 102.412L234.8 107.596L236.78 102.412H237.992L234.08 112.12H232.844L234.212 108.892L231.44 102.412H232.664ZM241.981 102.328C242.613 102.328 243.177 102.464 243.673 102.736C244.177 103.008 244.569 103.4 244.849 103.912C245.137 104.424 245.281 105.024 245.281 105.712C245.281 106.4 245.137 107 244.849 107.512C244.569 108.016 244.177 108.404 243.673 108.676C243.177 108.948 242.613 109.084 241.981 109.084C241.349 109.084 240.781 108.948 240.277 108.676C239.781 108.404 239.389 108.016 239.101 107.512C238.813 107 238.669 106.4 238.669 105.712C238.669 105.024 238.813 104.424 239.101 103.912C239.389 103.4 239.781 103.008 240.277 102.736C240.781 102.464 241.349 102.328 241.981 102.328ZM241.981 103.288C241.589 103.288 241.225 103.376 240.889 103.552C240.561 103.728 240.293 104 240.085 104.368C239.885 104.728 239.785 105.176 239.785 105.712C239.785 106.24 239.885 106.688 240.085 107.056C240.293 107.416 240.561 107.684 240.889 107.86C241.225 108.036 241.589 108.124 241.981 108.124C242.373 108.124 242.733 108.036 243.061 107.86C243.397 107.684 243.665 107.416 243.865 107.056C244.073 106.688 244.177 106.24 244.177 105.712C244.177 105.176 244.073 104.728 243.865 104.368C243.665 104 243.397 103.728 243.061 103.552C242.733 103.376 242.373 103.288 241.981 103.288ZM252.56 102.412V109H251.468V107.452C251.3 107.988 251 108.4 250.568 108.688C250.144 108.968 249.648 109.108 249.08 109.108C248.32 109.108 247.704 108.864 247.232 108.376C246.76 107.88 246.524 107.172 246.524 106.252V102.412H247.616V106.144C247.616 106.8 247.784 107.308 248.12 107.668C248.456 108.02 248.912 108.196 249.488 108.196C250.088 108.196 250.568 108.004 250.928 107.62C251.288 107.228 251.468 106.66 251.468 105.916V102.412H252.56ZM255.402 103.744C255.618 103.288 255.934 102.936 256.35 102.688C256.766 102.432 257.262 102.304 257.838 102.304V103.492H257.502C256.886 103.492 256.382 103.652 255.99 103.972C255.598 104.284 255.402 104.804 255.402 105.532V109H254.31V102.412H255.402V103.744ZM264.796 102.328C265.636 102.328 266.332 102.552 266.884 103C267.436 103.448 267.776 104.048 267.904 104.8H266.752C266.672 104.328 266.452 103.96 266.092 103.696C265.74 103.424 265.3 103.288 264.772 103.288C264.388 103.288 264.036 103.376 263.716 103.552C263.404 103.728 263.152 104 262.96 104.368C262.768 104.728 262.672 105.176 262.672 105.712C262.672 106.248 262.768 106.7 262.96 107.068C263.152 107.428 263.404 107.696 263.716 107.872C264.036 108.048 264.388 108.136 264.772 108.136C265.3 108.136 265.74 108 266.092 107.728C266.452 107.456 266.672 107.084 266.752 106.612H267.904C267.776 107.372 267.436 107.976 266.884 108.424C266.332 108.864 265.636 109.084 264.796 109.084C264.164 109.084 263.604 108.948 263.116 108.676C262.628 108.404 262.244 108.016 261.964 107.512C261.692 107 261.556 106.4 261.556 105.712C261.556 105.024 261.692 104.424 261.964 103.912C262.244 103.4 262.628 103.008 263.116 102.736C263.604 102.464 264.164 102.328 264.796 102.328ZM272.321 102.328C272.953 102.328 273.517 102.464 274.013 102.736C274.517 103.008 274.909 103.4 275.189 103.912C275.477 104.424 275.621 105.024 275.621 105.712C275.621 106.4 275.477 107 275.189 107.512C274.909 108.016 274.517 108.404 274.013 108.676C273.517 108.948 272.953 109.084 272.321 109.084C271.689 109.084 271.121 108.948 270.617 108.676C270.121 108.404 269.729 108.016 269.441 107.512C269.153 107 269.009 106.4 269.009 105.712C269.009 105.024 269.153 104.424 269.441 103.912C269.729 103.4 270.121 103.008 270.617 102.736C271.121 102.464 271.689 102.328 272.321 102.328ZM272.321 103.288C271.929 103.288 271.565 103.376 271.229 103.552C270.901 103.728 270.633 104 270.425 104.368C270.225 104.728 270.125 105.176 270.125 105.712C270.125 106.24 270.225 106.688 270.425 107.056C270.633 107.416 270.901 107.684 271.229 107.86C271.565 108.036 271.929 108.124 272.321 108.124C272.713 108.124 273.073 108.036 273.401 107.86C273.737 107.684 274.005 107.416 274.205 107.056C274.413 106.688 274.517 106.24 274.517 105.712C274.517 105.176 274.413 104.728 274.205 104.368C274.005 104 273.737 103.728 273.401 103.552C273.073 103.376 272.713 103.288 272.321 103.288ZM285.144 102.304C285.912 102.304 286.528 102.552 286.992 103.048C287.464 103.536 287.7 104.244 287.7 105.172V109H286.608V105.268C286.608 104.62 286.448 104.124 286.128 103.78C285.816 103.436 285.384 103.264 284.832 103.264C284.256 103.264 283.792 103.456 283.44 103.84C283.096 104.216 282.924 104.772 282.924 105.508V109H281.832V105.268C281.832 104.62 281.672 104.124 281.352 103.78C281.032 103.436 280.6 103.264 280.056 103.264C279.472 103.264 279.004 103.456 278.652 103.84C278.308 104.216 278.136 104.772 278.136 105.508V109H277.044V102.412H278.136V103.912C278.296 103.392 278.58 102.996 278.988 102.724C279.404 102.444 279.88 102.304 280.416 102.304C280.976 102.304 281.46 102.448 281.868 102.736C282.284 103.016 282.58 103.432 282.756 103.984C282.94 103.448 283.248 103.036 283.68 102.748C284.112 102.452 284.6 102.304 285.144 102.304ZM293.032 102.328C293.616 102.328 294.136 102.464 294.592 102.736C295.048 103.008 295.404 103.4 295.66 103.912C295.924 104.424 296.056 105.024 296.056 105.712C296.056 106.4 295.924 107 295.66 107.512C295.404 108.016 295.048 108.404 294.592 108.676C294.136 108.948 293.616 109.084 293.032 109.084C292.392 109.084 291.848 108.924 291.4 108.604C290.96 108.276 290.656 107.848 290.488 107.32V112.12H289.396V102.412H290.488V104.092C290.656 103.564 290.96 103.14 291.4 102.82C291.848 102.492 292.392 102.328 293.032 102.328ZM292.72 103.3C292.296 103.3 291.912 103.4 291.568 103.6C291.224 103.792 290.956 104.072 290.764 104.44C290.572 104.808 290.476 105.232 290.476 105.712C290.476 106.192 290.572 106.616 290.764 106.984C290.956 107.344 291.224 107.624 291.568 107.824C291.912 108.024 292.296 108.124 292.72 108.124C293.4 108.124 293.94 107.912 294.34 107.488C294.748 107.056 294.952 106.464 294.952 105.712C294.952 104.96 294.748 104.372 294.34 103.948C293.94 103.516 293.4 103.3 292.72 103.3ZM300.181 102.328C300.821 102.328 301.361 102.488 301.801 102.808C302.249 103.128 302.561 103.556 302.737 104.092V102.412H303.829V109H302.737V107.32C302.561 107.856 302.249 108.284 301.801 108.604C301.361 108.924 300.821 109.084 300.181 109.084C299.597 109.084 299.077 108.948 298.621 108.676C298.165 108.404 297.805 108.016 297.541 107.512C297.285 107 297.157 106.4 297.157 105.712C297.157 105.024 297.285 104.424 297.541 103.912C297.805 103.4 298.165 103.008 298.621 102.736C299.077 102.464 299.597 102.328 300.181 102.328ZM300.493 103.3C299.821 103.3 299.281 103.516 298.873 103.948C298.473 104.372 298.273 104.96 298.273 105.712C298.273 106.464 298.473 107.056 298.873 107.488C299.281 107.912 299.821 108.124 300.493 108.124C300.925 108.124 301.309 108.024 301.645 107.824C301.989 107.624 302.257 107.344 302.449 106.984C302.641 106.616 302.737 106.192 302.737 105.712C302.737 105.232 302.641 104.808 302.449 104.44C302.257 104.072 301.989 103.792 301.645 103.6C301.309 103.4 300.925 103.3 300.493 103.3ZM309.035 102.304C309.803 102.304 310.423 102.552 310.895 103.048C311.367 103.536 311.603 104.244 311.603 105.172V109H310.511V105.268C310.511 104.612 310.343 104.108 310.007 103.756C309.671 103.404 309.215 103.228 308.639 103.228C308.039 103.228 307.559 103.424 307.199 103.816C306.839 104.2 306.659 104.764 306.659 105.508V109H305.567V102.412H306.659V103.972C306.827 103.436 307.123 103.024 307.547 102.736C307.979 102.448 308.475 102.304 309.035 102.304ZM313.734 102.412L315.87 107.596L317.85 102.412H319.062L315.15 112.12H313.914L315.282 108.892L312.51 102.412H313.734Z" fill="white"/>
<path d="M152.755 29.416V27.704H156.371V39H154.451V29.416H152.755ZM155.56 58.616H154.44V44.344H155.56V58.616ZM151.101 73.576C152.829 72.392 154.21 71.2347 155.245 70.104C156.29 68.9627 156.813 67.9067 156.813 66.936C156.813 66.36 156.669 65.9013 156.381 65.56C156.104 65.2187 155.65 65.048 155.021 65.048C154.37 65.048 153.88 65.2613 153.549 65.688C153.218 66.104 153.032 66.7013 152.989 67.48H151.213C151.288 66.1893 151.682 65.2027 152.397 64.52C153.122 63.8373 154.045 63.496 155.165 63.496C156.264 63.496 157.122 63.7893 157.741 64.376C158.37 64.952 158.685 65.752 158.685 66.776C158.685 67.5973 158.429 68.4293 157.917 69.272C157.416 70.1147 156.776 70.8933 155.997 71.608C155.218 72.312 154.413 72.92 153.581 73.432H158.941V74.92H151.101V73.576ZM155.56 94.616H154.44V80.344H155.56V94.616ZM155.05 99.352C155.797 99.352 156.437 99.4853 156.97 99.752C157.503 100.008 157.903 100.365 158.17 100.824C158.447 101.283 158.586 101.795 158.586 102.36C158.586 103.075 158.383 103.672 157.978 104.152C157.583 104.621 157.023 104.904 156.298 105V105.08C157.077 105.304 157.685 105.64 158.122 106.088C158.57 106.525 158.794 107.133 158.794 107.912C158.794 108.861 158.479 109.635 157.85 110.232C157.221 110.819 156.319 111.112 155.146 111.112C153.941 111.112 152.97 110.808 152.234 110.2C151.498 109.581 151.077 108.669 150.97 107.464H152.778C152.842 108.104 153.071 108.616 153.466 109C153.861 109.373 154.394 109.56 155.066 109.56C155.695 109.56 156.175 109.395 156.506 109.064C156.847 108.733 157.018 108.307 157.018 107.784C157.018 107.155 156.773 106.675 156.282 106.344C155.802 106.013 155.103 105.848 154.186 105.848H153.754V104.344H154.186C155.925 104.365 156.794 103.773 156.794 102.568C156.794 102.045 156.634 101.635 156.314 101.336C155.994 101.037 155.557 100.888 155.002 100.888C154.447 100.888 153.983 101.059 153.61 101.4C153.237 101.731 153.013 102.216 152.938 102.856H151.146C151.221 101.747 151.594 100.888 152.266 100.28C152.938 99.6613 153.866 99.352 155.05 99.352Z" fill="white"/>
<path fill-rule="evenodd" clip-rule="evenodd" d="M0.933772 15.8667C0.933772 7.10377 8.03936 0 16.8049 0H87.7594C96.5249 0 103.631 7.10377 103.631 15.8667V53.2C104.146 53.2 104.564 53.6179 104.564 54.1333V70.9333C104.564 71.4488 104.146 71.8667 103.631 71.8667V194.133C103.631 202.896 96.5249 210 87.7594 210H16.8049C8.03936 210 0.933772 202.896 0.933772 194.133V77.4667C0.417909 77.4667 0 77.0488 0 76.5333V64.4C0 63.8846 0.417909 63.4667 0.933772 63.4667V61.6C0.417909 61.6 0 61.1821 0 60.6667V48.5334C0 48.0179 0.417909 47.6 0.933772 47.6V40.1334C0.417909 40.1334 0 39.7155 0 39.2V31.7333C0 31.2179 0.417909 30.8 0.933772 30.8V15.8667ZM5.6015 16.8C5.6015 10.099 11.0355 4.66667 17.7383 4.66667H27.0745C27.0745 8.79042 30.4185 12.1334 34.5435 12.1334H70.4875C74.6125 12.1334 77.9562 8.79042 77.9562 4.66667H86.8257C93.5285 4.66667 98.9624 10.099 98.9624 16.8V193.2C98.9624 199.901 93.5285 205.333 86.8257 205.333H17.7383C11.0355 205.333 5.6015 199.901 5.6015 193.2V16.8Z" fill="white"/>
<path d="M29.383 115.174H36.655V116.734H38.371V113.65H36.919C37.219 113.266 37.519 112.846 37.819 112.414L35.911 111.874C35.707 112.414 35.359 113.086 34.999 113.65H33.343L34.003 113.398C33.847 112.918 33.451 112.222 33.079 111.718L31.531 112.294C31.783 112.702 32.047 113.218 32.215 113.65H30.631L31.099 113.434C30.907 112.978 30.439 112.354 30.031 111.898L28.543 112.558C28.795 112.882 29.071 113.29 29.275 113.65H27.751V116.734H29.383V115.174ZM38.467 118.594H34.339C35.155 118.03 35.911 117.334 36.499 116.674L35.407 115.834L35.035 115.918H29.875V117.418H33.499C33.319 117.574 33.115 117.73 32.911 117.874H32.155V118.594H27.655V120.19H32.155V121.33C32.155 121.498 32.083 121.546 31.843 121.546C31.603 121.546 30.655 121.546 29.983 121.51C30.247 121.966 30.571 122.71 30.679 123.202C31.663 123.202 32.467 123.178 33.103 122.938C33.751 122.686 33.943 122.242 33.943 121.39V120.19H38.467V118.594ZM46.699 121.162V119.098H50.143V117.418H46.699V115.582H50.623V113.878H46.699V111.79H44.875V113.878H43.339C43.543 113.362 43.723 112.846 43.867 112.318L42.055 111.91C41.647 113.53 40.879 115.174 39.955 116.158C40.399 116.398 41.179 116.914 41.527 117.214C41.887 116.77 42.235 116.206 42.571 115.582H44.875V117.418H41.767V119.098H44.875V121.162H40.339V122.866H51.259V121.162H46.699ZM56.047 112.318C56.071 113.05 55.987 113.878 55.819 114.802C55.291 114.838 54.799 114.874 54.451 114.886C53.983 114.898 53.527 114.922 53.071 114.886L53.227 116.818C53.623 116.746 54.307 116.65 54.691 116.602C54.859 116.578 55.123 116.542 55.435 116.494C54.991 118.114 54.223 120.334 53.095 121.858L54.979 122.614C55.987 120.982 56.875 118.126 57.355 116.278C57.571 116.266 57.775 116.254 57.907 116.254C58.651 116.254 59.011 116.362 59.011 117.226C59.011 118.33 58.867 119.686 58.567 120.274C58.411 120.598 58.135 120.73 57.763 120.73C57.463 120.73 56.743 120.598 56.311 120.478L56.623 122.374C57.043 122.47 57.607 122.542 58.063 122.542C59.035 122.542 59.731 122.242 60.139 121.39C60.643 120.334 60.799 118.426 60.799 117.034C60.799 115.258 59.899 114.61 58.531 114.61C58.315 114.61 58.039 114.622 57.727 114.646C57.799 114.334 57.871 114.01 57.931 113.686C58.003 113.35 58.099 112.906 58.183 112.546L56.047 112.318ZM60.547 114.286C61.411 115.39 62.203 117.562 62.491 118.942L64.327 118.09C63.979 116.938 63.007 114.634 62.287 113.566L60.547 114.286ZM68.767 114.01C69.703 114.25 72.391 114.814 73.639 114.982L74.071 113.206C73.027 113.086 70.411 112.654 69.223 112.282L68.767 114.01ZM69.487 114.79L67.555 114.526C67.471 116.134 67.195 118.366 66.967 119.578L68.611 119.986C68.731 119.722 68.863 119.53 69.103 119.242C69.799 118.402 70.963 117.946 72.175 117.946C73.123 117.946 73.771 118.45 73.771 119.122C73.771 120.574 71.851 121.33 68.383 120.814L68.947 122.698C74.179 123.154 75.799 121.366 75.799 119.158C75.799 117.706 74.587 116.314 72.355 116.314C71.215 116.314 70.099 116.614 69.067 117.274C69.127 116.638 69.331 115.378 69.487 114.79ZM37.687 140.41C37.651 139.942 37.627 139.258 37.627 138.85V132.622C37.627 132.226 37.651 131.698 37.663 131.41C37.483 131.422 36.907 131.446 36.523 131.446H30.403C29.971 131.446 29.299 131.41 28.819 131.362V133.378C29.191 133.354 29.863 133.33 30.403 133.33H35.599V137.89H30.259C29.695 137.89 29.143 137.854 28.675 137.818V139.894C29.107 139.846 29.863 139.81 30.319 139.81H35.587L35.575 140.41H37.687ZM46.747 136.258C47.683 135.538 48.547 134.686 49.171 133.99C49.459 133.666 49.891 133.198 50.239 132.838L49.039 131.674C48.715 131.758 48.331 131.806 47.911 131.806H46.771V131.278C46.771 130.882 46.819 130.438 46.855 130.138H44.791C44.839 130.45 44.863 130.87 44.863 131.278V131.806H42.943C42.523 131.806 41.851 131.794 41.359 131.722V133.606C41.743 133.57 42.535 133.546 42.979 133.546H46.963C46.639 134.002 46.015 134.566 45.175 135.106C44.167 135.754 42.607 136.606 40.267 137.098L41.383 138.814C42.523 138.466 43.771 137.986 44.851 137.446V139.186C44.851 139.69 44.803 140.506 44.755 140.83H46.831C46.795 140.458 46.747 139.69 46.747 139.186V136.258ZM47.347 136.966C48.331 137.542 49.159 138.058 50.203 138.91L51.415 137.302C50.239 136.498 49.627 136.162 48.535 135.574L47.347 136.966ZM61.987 131.698C61.675 131.794 61.195 131.854 60.799 131.854H58.867C59.047 131.542 59.335 131.05 59.611 130.666L57.487 129.97C57.355 130.438 57.067 131.062 56.851 131.398C56.215 132.406 55.243 133.846 53.119 135.154L54.751 136.366C55.855 135.598 56.923 134.566 57.775 133.498H60.763C60.607 134.278 59.935 135.658 59.179 136.498C58.159 137.638 56.911 138.658 54.319 139.45L56.047 140.986C58.303 140.062 59.755 138.958 60.919 137.53C62.023 136.174 62.671 134.59 62.995 133.594C63.115 133.234 63.307 132.874 63.463 132.61L61.987 131.698ZM75.775 135.454C74.767 134.962 72.439 134.11 70.819 133.642V131.998C70.819 131.422 70.891 130.894 70.939 130.438H68.671C68.767 130.894 68.815 131.518 68.815 131.998V138.85C68.815 139.342 68.755 140.146 68.671 140.662H70.951C70.891 140.122 70.819 139.174 70.819 138.85V135.766C72.091 136.222 73.735 136.858 74.947 137.482L75.775 135.454Z" fill="white"/>
<path fill-rule="evenodd" clip-rule="evenodd" d="M49.0695 83.3034C48.6822 83.8895 48.5403 84.631 48.5403 85.1185V89.0705L50.7619 90.4537V99.3371H48.7216V91.5868L46.5 90.2036V85.1185C46.5 84.3379 46.7072 83.1775 47.3673 82.1786C48.0636 81.1248 49.244 80.2944 51.0113 80.2944H53.6802L53.6805 80.2967C54.4365 80.3227 55.4738 80.576 56.3619 81.2727C57.3482 82.0465 58.0615 83.2998 58.0615 85.1185V90.2036L55.8399 91.5868V99.3371H53.7996V90.4537L56.0213 89.0705V85.1185C56.0213 83.894 55.5709 83.2454 55.1026 82.878C54.5882 82.4744 53.9501 82.3347 53.5503 82.3347H51.0113C49.9857 82.3347 49.4204 82.7723 49.0695 83.3034Z" fill="white"/>
<path fill-rule="evenodd" clip-rule="evenodd" d="M52.2796 73.4931C51.3405 73.4931 50.5793 74.2544 50.5793 75.1934C50.5793 76.1324 51.3405 76.8936 52.2796 76.8936C53.2186 76.8936 53.9798 76.1324 53.9798 75.1934C53.9798 74.2544 53.2186 73.4931 52.2796 73.4931ZM48.5391 75.1934C48.5391 73.1276 50.2137 71.4529 52.2796 71.4529C54.3454 71.4529 56.02 73.1276 56.02 75.1934C56.02 77.2592 54.3454 78.9339 52.2796 78.9339C50.2137 78.9339 48.5391 77.2592 48.5391 75.1934Z" fill="white"/>
<path d="M61 77L66 72M66 72V77M66 72H61" stroke="white"/>
<path d="M61 94L66 99M66 99V94M66 99H61" stroke="white"/>
<path d="M44 77L39 72M39 72V77M39 72H44" stroke="white"/>
<path d="M44 94L39 99M39 99V94M39 99H44" stroke="white"/>
</svg>
