<svg width="530" height="210" viewBox="0 0 530 210" fill="none" xmlns="http://www.w3.org/2000/svg">
<path d="M187.228 34.804C187.228 35.204 187.132 35.576 186.94 35.92C186.748 36.264 186.456 36.544 186.064 36.76C185.672 36.976 185.188 37.084 184.612 37.084C184.052 37.084 183.552 36.984 183.112 36.784C182.68 36.576 182.332 36.296 182.068 35.944C181.812 35.584 181.664 35.176 181.624 34.72H182.788C182.812 34.96 182.892 35.196 183.028 35.428C183.172 35.652 183.372 35.84 183.628 35.992C183.892 36.136 184.208 36.208 184.576 36.208C185.056 36.208 185.424 36.08 185.68 35.824C185.936 35.568 186.064 35.24 186.064 34.84C186.064 34.496 185.972 34.216 185.788 34C185.612 33.784 185.392 33.616 185.128 33.496C184.864 33.368 184.504 33.232 184.048 33.088C183.512 32.912 183.08 32.748 182.752 32.596C182.432 32.436 182.156 32.2 181.924 31.888C181.7 31.576 181.588 31.164 181.588 30.652C181.588 30.212 181.692 29.824 181.9 29.488C182.116 29.152 182.42 28.892 182.812 28.708C183.212 28.524 183.68 28.432 184.216 28.432C185.048 28.432 185.708 28.636 186.196 29.044C186.684 29.444 186.968 29.956 187.048 30.58H185.872C185.808 30.244 185.636 29.948 185.356 29.692C185.076 29.436 184.696 29.308 184.216 29.308C183.776 29.308 183.424 29.424 183.16 29.656C182.896 29.88 182.764 30.2 182.764 30.616C182.764 30.944 182.848 31.212 183.016 31.42C183.192 31.62 183.408 31.78 183.664 31.9C183.92 32.012 184.272 32.14 184.72 32.284C185.264 32.46 185.7 32.628 186.028 32.788C186.364 32.948 186.648 33.192 186.88 33.52C187.112 33.84 187.228 34.268 187.228 34.804ZM194.756 33.34C194.756 33.572 194.74 33.772 194.708 33.94H189.44C189.464 34.692 189.676 35.256 190.076 35.632C190.484 36.008 190.98 36.196 191.564 36.196C192.092 36.196 192.532 36.064 192.884 35.8C193.244 35.528 193.464 35.168 193.544 34.72H194.708C194.628 35.176 194.448 35.584 194.168 35.944C193.896 36.304 193.54 36.584 193.1 36.784C192.66 36.984 192.164 37.084 191.612 37.084C190.98 37.084 190.42 36.948 189.932 36.676C189.444 36.404 189.06 36.016 188.78 35.512C188.508 35 188.372 34.4 188.372 33.712C188.372 33.024 188.508 32.424 188.78 31.912C189.06 31.4 189.444 31.008 189.932 30.736C190.42 30.464 190.98 30.328 191.612 30.328C192.252 30.328 192.808 30.464 193.28 30.736C193.76 31.008 194.124 31.372 194.372 31.828C194.628 32.284 194.756 32.788 194.756 33.34ZM193.652 33.412C193.676 32.924 193.596 32.516 193.412 32.188C193.228 31.86 192.976 31.616 192.656 31.456C192.336 31.296 191.988 31.216 191.612 31.216C191.012 31.216 190.508 31.404 190.1 31.78C189.692 32.148 189.472 32.692 189.44 33.412H193.652ZM199.329 36.04V37H198.513C197.841 37 197.337 36.84 197.001 36.52C196.673 36.2 196.509 35.664 196.509 34.912V31.36H195.525V30.412H196.509V28.768H197.613V30.412H199.317V31.36H197.613V34.936C197.613 35.36 197.689 35.652 197.841 35.812C198.001 35.964 198.273 36.04 198.657 36.04H199.329ZM208.81 28.54V29.428H206.422V37H205.33V29.428H202.942V28.54H208.81ZM212.596 30.328C213.236 30.328 213.776 30.488 214.216 30.808C214.664 31.128 214.976 31.556 215.152 32.092V30.412H216.244V37H215.152V35.32C214.976 35.856 214.664 36.284 214.216 36.604C213.776 36.924 213.236 37.084 212.596 37.084C212.012 37.084 211.492 36.948 211.036 36.676C210.58 36.404 210.22 36.016 209.956 35.512C209.7 35 209.572 34.4 209.572 33.712C209.572 33.024 209.7 32.424 209.956 31.912C210.22 31.4 210.58 31.008 211.036 30.736C211.492 30.464 212.012 30.328 212.596 30.328ZM212.908 31.3C212.236 31.3 211.696 31.516 211.288 31.948C210.888 32.372 210.688 32.96 210.688 33.712C210.688 34.464 210.888 35.056 211.288 35.488C211.696 35.912 212.236 36.124 212.908 36.124C213.34 36.124 213.724 36.024 214.06 35.824C214.404 35.624 214.672 35.344 214.864 34.984C215.056 34.616 215.152 34.192 215.152 33.712C215.152 33.232 215.056 32.808 214.864 32.44C214.672 32.072 214.404 31.792 214.06 31.6C213.724 31.4 213.34 31.3 212.908 31.3ZM219.073 31.744C219.289 31.288 219.605 30.936 220.021 30.688C220.437 30.432 220.933 30.304 221.509 30.304V31.492H221.173C220.557 31.492 220.053 31.652 219.661 31.972C219.269 32.284 219.073 32.804 219.073 33.532V37H217.981V30.412H219.073V31.744ZM225.287 30.328C225.927 30.328 226.467 30.488 226.907 30.808C227.355 31.128 227.667 31.556 227.843 32.092V30.412H228.935V37.108C228.935 37.716 228.807 38.256 228.551 38.728C228.295 39.2 227.935 39.568 227.471 39.832C227.007 40.096 226.467 40.228 225.851 40.228C224.963 40.228 224.239 40.012 223.679 39.58C223.119 39.156 222.763 38.58 222.611 37.852H223.691C223.819 38.292 224.059 38.636 224.411 38.884C224.771 39.14 225.231 39.268 225.791 39.268C226.383 39.268 226.871 39.076 227.255 38.692C227.647 38.316 227.843 37.788 227.843 37.108V35.32C227.667 35.856 227.355 36.284 226.907 36.604C226.467 36.924 225.927 37.084 225.287 37.084C224.703 37.084 224.183 36.948 223.727 36.676C223.271 36.404 222.911 36.016 222.647 35.512C222.391 35 222.263 34.4 222.263 33.712C222.263 33.024 222.391 32.424 222.647 31.912C222.911 31.4 223.271 31.008 223.727 30.736C224.183 30.464 224.703 30.328 225.287 30.328ZM225.599 31.3C224.927 31.3 224.387 31.516 223.979 31.948C223.579 32.372 223.379 32.96 223.379 33.712C223.379 34.464 223.579 35.056 223.979 35.488C224.387 35.912 224.927 36.124 225.599 36.124C226.031 36.124 226.415 36.024 226.751 35.824C227.095 35.624 227.363 35.344 227.555 34.984C227.747 34.616 227.843 34.192 227.843 33.712C227.843 33.232 227.747 32.808 227.555 32.44C227.363 32.072 227.095 31.792 226.751 31.6C226.415 31.4 226.031 31.3 225.599 31.3ZM236.733 33.34C236.733 33.572 236.717 33.772 236.685 33.94H231.417C231.441 34.692 231.653 35.256 232.053 35.632C232.461 36.008 232.957 36.196 233.541 36.196C234.069 36.196 234.509 36.064 234.861 35.8C235.221 35.528 235.441 35.168 235.521 34.72H236.685C236.605 35.176 236.425 35.584 236.145 35.944C235.873 36.304 235.517 36.584 235.077 36.784C234.637 36.984 234.141 37.084 233.589 37.084C232.957 37.084 232.397 36.948 231.909 36.676C231.421 36.404 231.037 36.016 230.757 35.512C230.485 35 230.349 34.4 230.349 33.712C230.349 33.024 230.485 32.424 230.757 31.912C231.037 31.4 231.421 31.008 231.909 30.736C232.397 30.464 232.957 30.328 233.589 30.328C234.229 30.328 234.785 30.464 235.257 30.736C235.737 31.008 236.101 31.372 236.349 31.828C236.605 32.284 236.733 32.788 236.733 33.34ZM235.629 33.412C235.653 32.924 235.573 32.516 235.389 32.188C235.205 31.86 234.953 31.616 234.633 31.456C234.313 31.296 233.965 31.216 233.589 31.216C232.989 31.216 232.485 31.404 232.077 31.78C231.669 32.148 231.449 32.692 231.417 33.412H235.629ZM241.305 36.04V37H240.489C239.817 37 239.313 36.84 238.977 36.52C238.649 36.2 238.485 35.664 238.485 34.912V31.36H237.501V30.412H238.485V28.768H239.589V30.412H241.293V31.36H239.589V34.936C239.589 35.36 239.665 35.652 239.817 35.812C239.977 35.964 240.249 36.04 240.633 36.04H241.305ZM182.428 64.54L185.008 71.788L187.624 64.54H188.812L185.704 73H184.324L181.228 64.54H182.428ZM189.723 64.48C189.723 64.28 189.791 64.12 189.927 64C190.063 63.872 190.243 63.808 190.467 63.808C190.691 63.808 190.871 63.872 191.007 64C191.143 64.12 191.211 64.28 191.211 64.48C191.211 64.68 191.143 64.844 191.007 64.972C190.871 65.092 190.691 65.152 190.467 65.152C190.243 65.152 190.063 65.092 189.927 64.972C189.791 64.844 189.723 64.68 189.723 64.48ZM191.007 66.412V73H189.915V66.412H191.007ZM198.823 69.34C198.823 69.572 198.807 69.772 198.775 69.94H193.507C193.531 70.692 193.743 71.256 194.143 71.632C194.551 72.008 195.047 72.196 195.631 72.196C196.159 72.196 196.599 72.064 196.951 71.8C197.311 71.528 197.531 71.168 197.611 70.72H198.775C198.695 71.176 198.515 71.584 198.235 71.944C197.963 72.304 197.607 72.584 197.167 72.784C196.727 72.984 196.231 73.084 195.679 73.084C195.047 73.084 194.487 72.948 193.999 72.676C193.511 72.404 193.127 72.016 192.847 71.512C192.575 71 192.439 70.4 192.439 69.712C192.439 69.024 192.575 68.424 192.847 67.912C193.127 67.4 193.511 67.008 193.999 66.736C194.487 66.464 195.047 66.328 195.679 66.328C196.319 66.328 196.875 66.464 197.347 66.736C197.827 67.008 198.191 67.372 198.439 67.828C198.695 68.284 198.823 68.788 198.823 69.34ZM197.719 69.412C197.743 68.924 197.663 68.516 197.479 68.188C197.295 67.86 197.043 67.616 196.723 67.456C196.403 67.296 196.055 67.216 195.679 67.216C195.079 67.216 194.575 67.404 194.167 67.78C193.759 68.148 193.539 68.692 193.507 69.412H197.719ZM209.299 66.412L207.403 73H206.227L204.415 67.636L202.591 73H201.403L199.531 66.412H200.635L202.039 71.956L203.863 66.412H205.003L206.839 71.944L208.255 66.412H209.299ZM221.754 64.684V73H220.662V66.364L218.01 73H217.038L214.374 66.388V73H213.282V64.684H214.59L217.542 71.668L220.446 64.684H221.754ZM226.201 66.328C226.841 66.328 227.381 66.488 227.821 66.808C228.269 67.128 228.581 67.556 228.757 68.092V66.412H229.849V73H228.757V71.32C228.581 71.856 228.269 72.284 227.821 72.604C227.381 72.924 226.841 73.084 226.201 73.084C225.617 73.084 225.097 72.948 224.641 72.676C224.185 72.404 223.825 72.016 223.561 71.512C223.305 71 223.177 70.4 223.177 69.712C223.177 69.024 223.305 68.424 223.561 67.912C223.825 67.4 224.185 67.008 224.641 66.736C225.097 66.464 225.617 66.328 226.201 66.328ZM226.513 67.3C225.841 67.3 225.301 67.516 224.893 67.948C224.493 68.372 224.293 68.96 224.293 69.712C224.293 70.464 224.493 71.056 224.893 71.488C225.301 71.912 225.841 72.124 226.513 72.124C226.945 72.124 227.329 72.024 227.665 71.824C228.009 71.624 228.277 71.344 228.469 70.984C228.661 70.616 228.757 70.192 228.757 69.712C228.757 69.232 228.661 68.808 228.469 68.44C228.277 68.072 228.009 67.792 227.665 67.6C227.329 67.4 226.945 67.3 226.513 67.3ZM234.731 72.04V73H233.915C233.243 73 232.739 72.84 232.403 72.52C232.075 72.2 231.911 71.664 231.911 70.912V67.36H230.927V66.412H231.911V64.768H233.015V66.412H234.719V67.36H233.015V70.936C233.015 71.36 233.091 71.652 233.243 71.812C233.403 71.964 233.675 72.04 234.059 72.04H234.731ZM238.98 66.328C239.82 66.328 240.516 66.552 241.068 67C241.62 67.448 241.96 68.048 242.088 68.8H240.936C240.856 68.328 240.636 67.96 240.276 67.696C239.924 67.424 239.484 67.288 238.956 67.288C238.572 67.288 238.22 67.376 237.9 67.552C237.588 67.728 237.336 68 237.144 68.368C236.952 68.728 236.856 69.176 236.856 69.712C236.856 70.248 236.952 70.7 237.144 71.068C237.336 71.428 237.588 71.696 237.9 71.872C238.22 72.048 238.572 72.136 238.956 72.136C239.484 72.136 239.924 72 240.276 71.728C240.636 71.456 240.856 71.084 240.936 70.612H242.088C241.96 71.372 241.62 71.976 241.068 72.424C240.516 72.864 239.82 73.084 238.98 73.084C238.348 73.084 237.788 72.948 237.3 72.676C236.812 72.404 236.428 72.016 236.148 71.512C235.876 71 235.74 70.4 235.74 69.712C235.74 69.024 235.876 68.424 236.148 67.912C236.428 67.4 236.812 67.008 237.3 66.736C237.788 66.464 238.348 66.328 238.98 66.328ZM246.985 66.304C247.753 66.304 248.373 66.552 248.845 67.048C249.317 67.536 249.553 68.244 249.553 69.172V73H248.461V69.268C248.461 68.612 248.293 68.108 247.957 67.756C247.621 67.404 247.165 67.228 246.589 67.228C245.989 67.228 245.509 67.424 245.149 67.816C244.789 68.2 244.609 68.764 244.609 69.508V73H243.517V64.12H244.609V67.972C244.777 67.436 245.073 67.024 245.497 66.736C245.929 66.448 246.425 66.304 246.985 66.304ZM257.288 69.34C257.288 69.572 257.272 69.772 257.24 69.94H251.972C251.996 70.692 252.208 71.256 252.608 71.632C253.016 72.008 253.512 72.196 254.096 72.196C254.624 72.196 255.064 72.064 255.416 71.8C255.776 71.528 255.996 71.168 256.076 70.72H257.24C257.16 71.176 256.98 71.584 256.7 71.944C256.428 72.304 256.072 72.584 255.632 72.784C255.192 72.984 254.696 73.084 254.144 73.084C253.512 73.084 252.952 72.948 252.464 72.676C251.976 72.404 251.592 72.016 251.312 71.512C251.04 71 250.904 70.4 250.904 69.712C250.904 69.024 251.04 68.424 251.312 67.912C251.592 67.4 251.976 67.008 252.464 66.736C252.952 66.464 253.512 66.328 254.144 66.328C254.784 66.328 255.34 66.464 255.812 66.736C256.292 67.008 256.656 67.372 256.904 67.828C257.16 68.284 257.288 68.788 257.288 69.34ZM256.184 69.412C256.208 68.924 256.128 68.516 255.944 68.188C255.76 67.86 255.508 67.616 255.188 67.456C254.868 67.296 254.52 67.216 254.144 67.216C253.544 67.216 253.04 67.404 252.632 67.78C252.224 68.148 252.004 68.692 251.972 69.412H256.184ZM260.78 66.328C261.524 66.328 262.12 66.524 262.568 66.916C263.024 67.3 263.3 67.82 263.396 68.476H262.352C262.304 68.084 262.14 67.764 261.86 67.516C261.588 67.26 261.22 67.132 260.756 67.132C260.364 67.132 260.056 67.228 259.832 67.42C259.616 67.604 259.508 67.856 259.508 68.176C259.508 68.416 259.58 68.612 259.724 68.764C259.876 68.908 260.06 69.02 260.276 69.1C260.5 69.172 260.804 69.252 261.188 69.34C261.676 69.452 262.068 69.568 262.364 69.688C262.668 69.8 262.924 69.984 263.132 70.24C263.348 70.496 263.456 70.84 263.456 71.272C263.456 71.808 263.252 72.244 262.844 72.58C262.444 72.916 261.908 73.084 261.236 73.084C260.452 73.084 259.812 72.896 259.316 72.52C258.82 72.144 258.528 71.62 258.44 70.948H259.496C259.536 71.348 259.708 71.672 260.012 71.92C260.324 72.168 260.732 72.292 261.236 72.292C261.612 72.292 261.904 72.196 262.112 72.004C262.328 71.812 262.436 71.56 262.436 71.248C262.436 70.992 262.36 70.788 262.208 70.636C262.056 70.484 261.868 70.368 261.644 70.288C261.42 70.208 261.112 70.124 260.72 70.036C260.232 69.924 259.84 69.812 259.544 69.7C259.256 69.588 259.008 69.412 258.8 69.172C258.6 68.924 258.5 68.592 258.5 68.176C258.5 67.624 258.704 67.18 259.112 66.844C259.52 66.5 260.076 66.328 260.78 66.328ZM186.832 107.044H183.112L182.404 109H181.228L184.36 100.696H185.596L188.716 109H187.54L186.832 107.044ZM186.52 106.192L184.972 101.92L183.424 106.192H186.52ZM193.457 102.328C194.041 102.328 194.561 102.464 195.017 102.736C195.473 103.008 195.829 103.4 196.085 103.912C196.349 104.424 196.481 105.024 196.481 105.712C196.481 106.4 196.349 107 196.085 107.512C195.829 108.016 195.473 108.404 195.017 108.676C194.561 108.948 194.041 109.084 193.457 109.084C192.817 109.084 192.273 108.924 191.825 108.604C191.385 108.276 191.081 107.848 190.913 107.32V112.12H189.821V102.412H190.913V104.092C191.081 103.564 191.385 103.14 191.825 102.82C192.273 102.492 192.817 102.328 193.457 102.328ZM193.145 103.3C192.721 103.3 192.337 103.4 191.993 103.6C191.649 103.792 191.381 104.072 191.189 104.44C190.997 104.808 190.901 105.232 190.901 105.712C190.901 106.192 190.997 106.616 191.189 106.984C191.381 107.344 191.649 107.624 191.993 107.824C192.337 108.024 192.721 108.124 193.145 108.124C193.825 108.124 194.365 107.912 194.765 107.488C195.173 107.056 195.377 106.464 195.377 105.712C195.377 104.96 195.173 104.372 194.765 103.948C194.365 103.516 193.825 103.3 193.145 103.3ZM201.543 102.328C202.127 102.328 202.647 102.464 203.103 102.736C203.559 103.008 203.915 103.4 204.171 103.912C204.435 104.424 204.567 105.024 204.567 105.712C204.567 106.4 204.435 107 204.171 107.512C203.915 108.016 203.559 108.404 203.103 108.676C202.647 108.948 202.127 109.084 201.543 109.084C200.903 109.084 200.359 108.924 199.911 108.604C199.471 108.276 199.167 107.848 198.999 107.32V112.12H197.907V102.412H198.999V104.092C199.167 103.564 199.471 103.14 199.911 102.82C200.359 102.492 200.903 102.328 201.543 102.328ZM201.231 103.3C200.807 103.3 200.423 103.4 200.079 103.6C199.735 103.792 199.467 104.072 199.275 104.44C199.083 104.808 198.987 105.232 198.987 105.712C198.987 106.192 199.083 106.616 199.275 106.984C199.467 107.344 199.735 107.624 200.079 107.824C200.423 108.024 200.807 108.124 201.231 108.124C201.911 108.124 202.451 107.912 202.851 107.488C203.259 107.056 203.463 106.464 203.463 105.712C203.463 104.96 203.259 104.372 202.851 103.948C202.451 103.516 201.911 103.3 201.231 103.3ZM212.053 105.34C212.053 105.572 212.037 105.772 212.005 105.94H206.737C206.761 106.692 206.973 107.256 207.373 107.632C207.781 108.008 208.277 108.196 208.861 108.196C209.389 108.196 209.829 108.064 210.181 107.8C210.541 107.528 210.761 107.168 210.841 106.72H212.005C211.925 107.176 211.745 107.584 211.465 107.944C211.193 108.304 210.837 108.584 210.397 108.784C209.957 108.984 209.461 109.084 208.909 109.084C208.277 109.084 207.717 108.948 207.229 108.676C206.741 108.404 206.357 108.016 206.077 107.512C205.805 107 205.669 106.4 205.669 105.712C205.669 105.024 205.805 104.424 206.077 103.912C206.357 103.4 206.741 103.008 207.229 102.736C207.717 102.464 208.277 102.328 208.909 102.328C209.549 102.328 210.105 102.464 210.577 102.736C211.057 103.008 211.421 103.372 211.669 103.828C211.925 104.284 212.053 104.788 212.053 105.34ZM210.949 105.412C210.973 104.924 210.893 104.516 210.709 104.188C210.525 103.86 210.273 103.616 209.953 103.456C209.633 103.296 209.285 103.216 208.909 103.216C208.309 103.216 207.805 103.404 207.397 103.78C206.989 104.148 206.769 104.692 206.737 105.412H210.949ZM216.181 102.328C216.821 102.328 217.361 102.488 217.801 102.808C218.249 103.128 218.561 103.556 218.737 104.092V102.412H219.829V109H218.737V107.32C218.561 107.856 218.249 108.284 217.801 108.604C217.361 108.924 216.821 109.084 216.181 109.084C215.597 109.084 215.077 108.948 214.621 108.676C214.165 108.404 213.805 108.016 213.541 107.512C213.285 107 213.157 106.4 213.157 105.712C213.157 105.024 213.285 104.424 213.541 103.912C213.805 103.4 214.165 103.008 214.621 102.736C215.077 102.464 215.597 102.328 216.181 102.328ZM216.493 103.3C215.821 103.3 215.281 103.516 214.873 103.948C214.473 104.372 214.273 104.96 214.273 105.712C214.273 106.464 214.473 107.056 214.873 107.488C215.281 107.912 215.821 108.124 216.493 108.124C216.925 108.124 217.309 108.024 217.645 107.824C217.989 107.624 218.257 107.344 218.449 106.984C218.641 106.616 218.737 106.192 218.737 105.712C218.737 105.232 218.641 104.808 218.449 104.44C218.257 104.072 217.989 103.792 217.645 103.6C217.309 103.4 216.925 103.3 216.493 103.3ZM222.659 100.12V109H221.567V100.12H222.659ZM185.62 136.456C186.652 136.456 187.504 136.712 188.176 137.224C188.848 137.728 189.312 138.42 189.568 139.3H188.416C188.2 138.74 187.852 138.296 187.372 137.968C186.892 137.632 186.304 137.464 185.608 137.464C185.056 137.464 184.56 137.6 184.12 137.872C183.688 138.136 183.344 138.52 183.088 139.024C182.84 139.52 182.716 140.104 182.716 140.776C182.716 141.44 182.84 142.02 183.088 142.516C183.344 143.012 183.688 143.396 184.12 143.668C184.56 143.932 185.056 144.064 185.608 144.064C186.304 144.064 186.892 143.9 187.372 143.572C187.852 143.236 188.2 142.788 188.416 142.228H189.568C189.312 143.108 188.848 143.804 188.176 144.316C187.504 144.82 186.652 145.072 185.62 145.072C184.828 145.072 184.128 144.892 183.52 144.532C182.912 144.164 182.436 143.656 182.092 143.008C181.756 142.352 181.588 141.608 181.588 140.776C181.588 139.936 181.756 139.188 182.092 138.532C182.436 137.876 182.912 137.368 183.52 137.008C184.128 136.64 184.828 136.456 185.62 136.456ZM194.016 138.328C194.648 138.328 195.212 138.464 195.708 138.736C196.212 139.008 196.604 139.4 196.884 139.912C197.172 140.424 197.316 141.024 197.316 141.712C197.316 142.4 197.172 143 196.884 143.512C196.604 144.016 196.212 144.404 195.708 144.676C195.212 144.948 194.648 145.084 194.016 145.084C193.384 145.084 192.816 144.948 192.312 144.676C191.816 144.404 191.424 144.016 191.136 143.512C190.848 143 190.704 142.4 190.704 141.712C190.704 141.024 190.848 140.424 191.136 139.912C191.424 139.4 191.816 139.008 192.312 138.736C192.816 138.464 193.384 138.328 194.016 138.328ZM194.016 139.288C193.624 139.288 193.26 139.376 192.924 139.552C192.596 139.728 192.328 140 192.12 140.368C191.92 140.728 191.82 141.176 191.82 141.712C191.82 142.24 191.92 142.688 192.12 143.056C192.328 143.416 192.596 143.684 192.924 143.86C193.26 144.036 193.624 144.124 194.016 144.124C194.408 144.124 194.768 144.036 195.096 143.86C195.432 143.684 195.7 143.416 195.9 143.056C196.108 142.688 196.212 142.24 196.212 141.712C196.212 141.176 196.108 140.728 195.9 140.368C195.7 140 195.432 139.728 195.096 139.552C194.768 139.376 194.408 139.288 194.016 139.288ZM202.207 138.304C202.975 138.304 203.595 138.552 204.067 139.048C204.539 139.536 204.775 140.244 204.775 141.172V145H203.683V141.268C203.683 140.612 203.515 140.108 203.179 139.756C202.843 139.404 202.387 139.228 201.811 139.228C201.211 139.228 200.731 139.424 200.371 139.816C200.011 140.2 199.831 140.764 199.831 141.508V145H198.739V138.412H199.831V139.972C199.999 139.436 200.295 139.024 200.719 138.736C201.151 138.448 201.647 138.304 202.207 138.304ZM209.918 138.304C210.686 138.304 211.306 138.552 211.778 139.048C212.25 139.536 212.486 140.244 212.486 141.172V145H211.394V141.268C211.394 140.612 211.226 140.108 210.89 139.756C210.554 139.404 210.098 139.228 209.522 139.228C208.922 139.228 208.442 139.424 208.082 139.816C207.722 140.2 207.542 140.764 207.542 141.508V145H206.45V138.412H207.542V139.972C207.71 139.436 208.006 139.024 208.43 138.736C208.862 138.448 209.358 138.304 209.918 138.304ZM220.221 141.34C220.221 141.572 220.205 141.772 220.173 141.94H214.905C214.929 142.692 215.141 143.256 215.541 143.632C215.949 144.008 216.445 144.196 217.029 144.196C217.557 144.196 217.997 144.064 218.349 143.8C218.709 143.528 218.929 143.168 219.009 142.72H220.173C220.093 143.176 219.913 143.584 219.633 143.944C219.361 144.304 219.005 144.584 218.565 144.784C218.125 144.984 217.629 145.084 217.077 145.084C216.445 145.084 215.885 144.948 215.397 144.676C214.909 144.404 214.525 144.016 214.245 143.512C213.973 143 213.837 142.4 213.837 141.712C213.837 141.024 213.973 140.424 214.245 139.912C214.525 139.4 214.909 139.008 215.397 138.736C215.885 138.464 216.445 138.328 217.077 138.328C217.717 138.328 218.273 138.464 218.745 138.736C219.225 139.008 219.589 139.372 219.837 139.828C220.093 140.284 220.221 140.788 220.221 141.34ZM219.117 141.412C219.141 140.924 219.061 140.516 218.877 140.188C218.693 139.86 218.441 139.616 218.121 139.456C217.801 139.296 217.453 139.216 217.077 139.216C216.477 139.216 215.973 139.404 215.565 139.78C215.157 140.148 214.937 140.692 214.905 141.412H219.117ZM224.565 138.328C225.405 138.328 226.101 138.552 226.653 139C227.205 139.448 227.545 140.048 227.673 140.8H226.521C226.441 140.328 226.221 139.96 225.861 139.696C225.509 139.424 225.069 139.288 224.541 139.288C224.157 139.288 223.805 139.376 223.485 139.552C223.173 139.728 222.921 140 222.729 140.368C222.537 140.728 222.441 141.176 222.441 141.712C222.441 142.248 222.537 142.7 222.729 143.068C222.921 143.428 223.173 143.696 223.485 143.872C223.805 144.048 224.157 144.136 224.541 144.136C225.069 144.136 225.509 144 225.861 143.728C226.221 143.456 226.441 143.084 226.521 142.612H227.673C227.545 143.372 227.205 143.976 226.653 144.424C226.101 144.864 225.405 145.084 224.565 145.084C223.933 145.084 223.373 144.948 222.885 144.676C222.397 144.404 222.013 144.016 221.733 143.512C221.461 143 221.325 142.4 221.325 141.712C221.325 141.024 221.461 140.424 221.733 139.912C222.013 139.4 222.397 139.008 222.885 138.736C223.373 138.464 223.933 138.328 224.565 138.328ZM232.247 144.04V145H231.431C230.759 145 230.255 144.84 229.919 144.52C229.591 144.2 229.427 143.664 229.427 142.912V139.36H228.443V138.412H229.427V136.768H230.531V138.412H232.235V139.36H230.531V142.936C230.531 143.36 230.607 143.652 230.759 143.812C230.919 143.964 231.191 144.04 231.575 144.04H232.247ZM185.62 172.456C186.652 172.456 187.504 172.712 188.176 173.224C188.848 173.728 189.312 174.42 189.568 175.3H188.416C188.2 174.74 187.852 174.296 187.372 173.968C186.892 173.632 186.304 173.464 185.608 173.464C185.056 173.464 184.56 173.6 184.12 173.872C183.688 174.136 183.344 174.52 183.088 175.024C182.84 175.52 182.716 176.104 182.716 176.776C182.716 177.44 182.84 178.02 183.088 178.516C183.344 179.012 183.688 179.396 184.12 179.668C184.56 179.932 185.056 180.064 185.608 180.064C186.304 180.064 186.892 179.9 187.372 179.572C187.852 179.236 188.2 178.788 188.416 178.228H189.568C189.312 179.108 188.848 179.804 188.176 180.316C187.504 180.82 186.652 181.072 185.62 181.072C184.828 181.072 184.128 180.892 183.52 180.532C182.912 180.164 182.436 179.656 182.092 179.008C181.756 178.352 181.588 177.608 181.588 176.776C181.588 175.936 181.756 175.188 182.092 174.532C182.436 173.876 182.912 173.368 183.52 173.008C184.128 172.64 184.828 172.456 185.62 172.456ZM194.496 174.304C195.264 174.304 195.884 174.552 196.356 175.048C196.828 175.536 197.064 176.244 197.064 177.172V181H195.972V177.268C195.972 176.612 195.804 176.108 195.468 175.756C195.132 175.404 194.676 175.228 194.1 175.228C193.5 175.228 193.02 175.424 192.66 175.816C192.3 176.2 192.12 176.764 192.12 177.508V181H191.028V172.12H192.12V175.972C192.288 175.436 192.584 175.024 193.008 174.736C193.44 174.448 193.936 174.304 194.496 174.304ZM201.439 174.328C202.079 174.328 202.619 174.488 203.059 174.808C203.507 175.128 203.819 175.556 203.995 176.092V174.412H205.087V181H203.995V179.32C203.819 179.856 203.507 180.284 203.059 180.604C202.619 180.924 202.079 181.084 201.439 181.084C200.855 181.084 200.335 180.948 199.879 180.676C199.423 180.404 199.063 180.016 198.799 179.512C198.543 179 198.415 178.4 198.415 177.712C198.415 177.024 198.543 176.424 198.799 175.912C199.063 175.4 199.423 175.008 199.879 174.736C200.335 174.464 200.855 174.328 201.439 174.328ZM201.751 175.3C201.079 175.3 200.539 175.516 200.131 175.948C199.731 176.372 199.531 176.96 199.531 177.712C199.531 178.464 199.731 179.056 200.131 179.488C200.539 179.912 201.079 180.124 201.751 180.124C202.183 180.124 202.567 180.024 202.903 179.824C203.247 179.624 203.515 179.344 203.707 178.984C203.899 178.616 203.995 178.192 203.995 177.712C203.995 177.232 203.899 176.808 203.707 176.44C203.515 176.072 203.247 175.792 202.903 175.6C202.567 175.4 202.183 175.3 201.751 175.3ZM209.969 180.04V181H209.153C208.481 181 207.977 180.84 207.641 180.52C207.313 180.2 207.149 179.664 207.149 178.912V175.36H206.165V174.412H207.149V172.768H208.253V174.412H209.957V175.36H208.253V178.936C208.253 179.36 208.329 179.652 208.481 179.812C208.641 179.964 208.913 180.04 209.297 180.04H209.969ZM218.203 182.284H217.099V171.448H218.203V182.284ZM234.223 172.684V181H233.131V174.364L230.479 181H229.507L226.843 174.388V181H225.751V172.684H227.059L230.011 179.668L232.915 172.684H234.223ZM242.03 177.34C242.03 177.572 242.014 177.772 241.982 177.94H236.714C236.738 178.692 236.95 179.256 237.35 179.632C237.758 180.008 238.254 180.196 238.838 180.196C239.366 180.196 239.806 180.064 240.158 179.8C240.518 179.528 240.738 179.168 240.818 178.72H241.982C241.902 179.176 241.722 179.584 241.442 179.944C241.17 180.304 240.814 180.584 240.374 180.784C239.934 180.984 239.438 181.084 238.886 181.084C238.254 181.084 237.694 180.948 237.206 180.676C236.718 180.404 236.334 180.016 236.054 179.512C235.782 179 235.646 178.4 235.646 177.712C235.646 177.024 235.782 176.424 236.054 175.912C236.334 175.4 236.718 175.008 237.206 174.736C237.694 174.464 238.254 174.328 238.886 174.328C239.526 174.328 240.082 174.464 240.554 174.736C241.034 175.008 241.398 175.372 241.646 175.828C241.902 176.284 242.03 176.788 242.03 177.34ZM240.926 177.412C240.95 176.924 240.87 176.516 240.686 176.188C240.502 175.86 240.25 175.616 239.93 175.456C239.61 175.296 239.262 175.216 238.886 175.216C238.286 175.216 237.782 175.404 237.374 175.78C236.966 176.148 236.746 176.692 236.714 177.412H240.926ZM249.518 177.34C249.518 177.572 249.502 177.772 249.47 177.94H244.202C244.226 178.692 244.438 179.256 244.838 179.632C245.246 180.008 245.742 180.196 246.326 180.196C246.854 180.196 247.294 180.064 247.646 179.8C248.006 179.528 248.226 179.168 248.306 178.72H249.47C249.39 179.176 249.21 179.584 248.93 179.944C248.658 180.304 248.302 180.584 247.862 180.784C247.422 180.984 246.926 181.084 246.374 181.084C245.742 181.084 245.182 180.948 244.694 180.676C244.206 180.404 243.822 180.016 243.542 179.512C243.27 179 243.134 178.4 243.134 177.712C243.134 177.024 243.27 176.424 243.542 175.912C243.822 175.4 244.206 175.008 244.694 174.736C245.182 174.464 245.742 174.328 246.374 174.328C247.014 174.328 247.57 174.464 248.042 174.736C248.522 175.008 248.886 175.372 249.134 175.828C249.39 176.284 249.518 176.788 249.518 177.34ZM248.414 177.412C248.438 176.924 248.358 176.516 248.174 176.188C247.99 175.86 247.738 175.616 247.418 175.456C247.098 175.296 246.75 175.216 246.374 175.216C245.774 175.216 245.27 175.404 244.862 175.78C244.454 176.148 244.234 176.692 244.202 177.412H248.414ZM254.09 180.04V181H253.274C252.602 181 252.098 180.84 251.762 180.52C251.434 180.2 251.27 179.664 251.27 178.912V175.36H250.286V174.412H251.27V172.768H252.374V174.412H254.078V175.36H252.374V178.936C252.374 179.36 252.45 179.652 252.602 179.812C252.762 179.964 253.034 180.04 253.418 180.04H254.09ZM262.325 182.284H261.221V171.448H262.325V182.284ZM270.964 172.54V181H269.872V172.54H270.964ZM276.188 174.304C276.956 174.304 277.576 174.552 278.048 175.048C278.52 175.536 278.756 176.244 278.756 177.172V181H277.664V177.268C277.664 176.612 277.496 176.108 277.16 175.756C276.824 175.404 276.368 175.228 275.792 175.228C275.192 175.228 274.712 175.424 274.352 175.816C273.992 176.2 273.812 176.764 273.812 177.508V181H272.72V174.412H273.812V175.972C273.98 175.436 274.276 175.024 274.7 174.736C275.132 174.448 275.628 174.304 276.188 174.304ZM282.987 179.836L285.027 174.412H286.203L283.623 181H282.327L279.747 174.412H280.923L282.987 179.836ZM287.082 172.48C287.082 172.28 287.15 172.12 287.286 172C287.422 171.872 287.602 171.808 287.826 171.808C288.05 171.808 288.23 171.872 288.366 172C288.502 172.12 288.57 172.28 288.57 172.48C288.57 172.68 288.502 172.844 288.366 172.972C288.23 173.092 288.05 173.152 287.826 173.152C287.602 173.152 287.422 173.092 287.286 172.972C287.15 172.844 287.082 172.68 287.082 172.48ZM288.366 174.412V181H287.274V174.412H288.366ZM293.266 180.04V181H292.45C291.778 181 291.274 180.84 290.938 180.52C290.61 180.2 290.446 179.664 290.446 178.912V175.36H289.462V174.412H290.446V172.768H291.55V174.412H293.254V175.36H291.55V178.936C291.55 179.36 291.626 179.652 291.778 179.812C291.938 179.964 292.21 180.04 292.594 180.04H293.266ZM300.659 177.34C300.659 177.572 300.643 177.772 300.611 177.94H295.343C295.367 178.692 295.579 179.256 295.979 179.632C296.387 180.008 296.883 180.196 297.467 180.196C297.995 180.196 298.435 180.064 298.787 179.8C299.147 179.528 299.367 179.168 299.447 178.72H300.611C300.531 179.176 300.351 179.584 300.071 179.944C299.799 180.304 299.443 180.584 299.003 180.784C298.563 180.984 298.067 181.084 297.515 181.084C296.883 181.084 296.323 180.948 295.835 180.676C295.347 180.404 294.963 180.016 294.683 179.512C294.411 179 294.275 178.4 294.275 177.712C294.275 177.024 294.411 176.424 294.683 175.912C294.963 175.4 295.347 175.008 295.835 174.736C296.323 174.464 296.883 174.328 297.515 174.328C298.155 174.328 298.711 174.464 299.183 174.736C299.663 175.008 300.027 175.372 300.275 175.828C300.531 176.284 300.659 176.788 300.659 177.34ZM299.555 177.412C299.579 176.924 299.499 176.516 299.315 176.188C299.131 175.86 298.879 175.616 298.559 175.456C298.239 175.296 297.891 175.216 297.515 175.216C296.915 175.216 296.411 175.404 296.003 175.78C295.595 176.148 295.375 176.692 295.343 177.412H299.555ZM308.196 180.04V181H307.38C306.708 181 306.204 180.84 305.868 180.52C305.54 180.2 305.376 179.664 305.376 178.912V175.36H304.392V174.412H305.376V172.768H306.48V174.412H308.184V175.36H306.48V178.936C306.48 179.36 306.556 179.652 306.708 179.812C306.868 179.964 307.14 180.04 307.524 180.04H308.196ZM312.516 174.328C313.148 174.328 313.712 174.464 314.208 174.736C314.712 175.008 315.104 175.4 315.384 175.912C315.672 176.424 315.816 177.024 315.816 177.712C315.816 178.4 315.672 179 315.384 179.512C315.104 180.016 314.712 180.404 314.208 180.676C313.712 180.948 313.148 181.084 312.516 181.084C311.884 181.084 311.316 180.948 310.812 180.676C310.316 180.404 309.924 180.016 309.636 179.512C309.348 179 309.204 178.4 309.204 177.712C309.204 177.024 309.348 176.424 309.636 175.912C309.924 175.4 310.316 175.008 310.812 174.736C311.316 174.464 311.884 174.328 312.516 174.328ZM312.516 175.288C312.124 175.288 311.76 175.376 311.424 175.552C311.096 175.728 310.828 176 310.62 176.368C310.42 176.728 310.32 177.176 310.32 177.712C310.32 178.24 310.42 178.688 310.62 179.056C310.828 179.416 311.096 179.684 311.424 179.86C311.76 180.036 312.124 180.124 312.516 180.124C312.908 180.124 313.268 180.036 313.596 179.86C313.932 179.684 314.2 179.416 314.4 179.056C314.608 178.688 314.712 178.24 314.712 177.712C314.712 177.176 314.608 176.728 314.4 176.368C314.2 176 313.932 175.728 313.596 175.552C313.268 175.376 312.908 175.288 312.516 175.288ZM320.66 174.412L322.796 179.596L324.776 174.412H325.988L322.076 184.12H320.84L322.208 180.892L319.436 174.412H320.66ZM329.977 174.328C330.609 174.328 331.173 174.464 331.669 174.736C332.173 175.008 332.565 175.4 332.845 175.912C333.133 176.424 333.277 177.024 333.277 177.712C333.277 178.4 333.133 179 332.845 179.512C332.565 180.016 332.173 180.404 331.669 180.676C331.173 180.948 330.609 181.084 329.977 181.084C329.345 181.084 328.777 180.948 328.273 180.676C327.777 180.404 327.385 180.016 327.097 179.512C326.809 179 326.665 178.4 326.665 177.712C326.665 177.024 326.809 176.424 327.097 175.912C327.385 175.4 327.777 175.008 328.273 174.736C328.777 174.464 329.345 174.328 329.977 174.328ZM329.977 175.288C329.585 175.288 329.221 175.376 328.885 175.552C328.557 175.728 328.289 176 328.081 176.368C327.881 176.728 327.781 177.176 327.781 177.712C327.781 178.24 327.881 178.688 328.081 179.056C328.289 179.416 328.557 179.684 328.885 179.86C329.221 180.036 329.585 180.124 329.977 180.124C330.369 180.124 330.729 180.036 331.057 179.86C331.393 179.684 331.661 179.416 331.861 179.056C332.069 178.688 332.173 178.24 332.173 177.712C332.173 177.176 332.069 176.728 331.861 176.368C331.661 176 331.393 175.728 331.057 175.552C330.729 175.376 330.369 175.288 329.977 175.288ZM340.556 174.412V181H339.464V179.452C339.296 179.988 338.996 180.4 338.564 180.688C338.14 180.968 337.644 181.108 337.076 181.108C336.316 181.108 335.7 180.864 335.228 180.376C334.756 179.88 334.52 179.172 334.52 178.252V174.412H335.612V178.144C335.612 178.8 335.78 179.308 336.116 179.668C336.452 180.02 336.908 180.196 337.484 180.196C338.084 180.196 338.564 180.004 338.924 179.62C339.284 179.228 339.464 178.66 339.464 177.916V174.412H340.556ZM343.398 175.744C343.614 175.288 343.93 174.936 344.346 174.688C344.762 174.432 345.258 174.304 345.834 174.304V175.492H345.498C344.882 175.492 344.378 175.652 343.986 175.972C343.594 176.284 343.398 176.804 343.398 177.532V181H342.306V174.412H343.398V175.744ZM352.792 174.328C353.632 174.328 354.328 174.552 354.88 175C355.432 175.448 355.772 176.048 355.9 176.8H354.748C354.668 176.328 354.448 175.96 354.088 175.696C353.736 175.424 353.296 175.288 352.768 175.288C352.384 175.288 352.032 175.376 351.712 175.552C351.4 175.728 351.148 176 350.956 176.368C350.764 176.728 350.668 177.176 350.668 177.712C350.668 178.248 350.764 178.7 350.956 179.068C351.148 179.428 351.4 179.696 351.712 179.872C352.032 180.048 352.384 180.136 352.768 180.136C353.296 180.136 353.736 180 354.088 179.728C354.448 179.456 354.668 179.084 354.748 178.612H355.9C355.772 179.372 355.432 179.976 354.88 180.424C354.328 180.864 353.632 181.084 352.792 181.084C352.16 181.084 351.6 180.948 351.112 180.676C350.624 180.404 350.24 180.016 349.96 179.512C349.688 179 349.552 178.4 349.552 177.712C349.552 177.024 349.688 176.424 349.96 175.912C350.24 175.4 350.624 175.008 351.112 174.736C351.6 174.464 352.16 174.328 352.792 174.328ZM360.317 174.328C360.949 174.328 361.513 174.464 362.009 174.736C362.513 175.008 362.905 175.4 363.185 175.912C363.473 176.424 363.617 177.024 363.617 177.712C363.617 178.4 363.473 179 363.185 179.512C362.905 180.016 362.513 180.404 362.009 180.676C361.513 180.948 360.949 181.084 360.317 181.084C359.685 181.084 359.117 180.948 358.613 180.676C358.117 180.404 357.725 180.016 357.437 179.512C357.149 179 357.005 178.4 357.005 177.712C357.005 177.024 357.149 176.424 357.437 175.912C357.725 175.4 358.117 175.008 358.613 174.736C359.117 174.464 359.685 174.328 360.317 174.328ZM360.317 175.288C359.925 175.288 359.561 175.376 359.225 175.552C358.897 175.728 358.629 176 358.421 176.368C358.221 176.728 358.121 177.176 358.121 177.712C358.121 178.24 358.221 178.688 358.421 179.056C358.629 179.416 358.897 179.684 359.225 179.86C359.561 180.036 359.925 180.124 360.317 180.124C360.709 180.124 361.069 180.036 361.397 179.86C361.733 179.684 362.001 179.416 362.201 179.056C362.409 178.688 362.513 178.24 362.513 177.712C362.513 177.176 362.409 176.728 362.201 176.368C362.001 176 361.733 175.728 361.397 175.552C361.069 175.376 360.709 175.288 360.317 175.288ZM373.14 174.304C373.908 174.304 374.524 174.552 374.988 175.048C375.46 175.536 375.696 176.244 375.696 177.172V181H374.604V177.268C374.604 176.62 374.444 176.124 374.124 175.78C373.812 175.436 373.38 175.264 372.828 175.264C372.252 175.264 371.788 175.456 371.436 175.84C371.092 176.216 370.92 176.772 370.92 177.508V181H369.828V177.268C369.828 176.62 369.668 176.124 369.348 175.78C369.028 175.436 368.596 175.264 368.052 175.264C367.468 175.264 367 175.456 366.648 175.84C366.304 176.216 366.132 176.772 366.132 177.508V181H365.04V174.412H366.132V175.912C366.292 175.392 366.576 174.996 366.984 174.724C367.4 174.444 367.876 174.304 368.412 174.304C368.972 174.304 369.456 174.448 369.864 174.736C370.28 175.016 370.576 175.432 370.752 175.984C370.936 175.448 371.244 175.036 371.676 174.748C372.108 174.452 372.596 174.304 373.14 174.304ZM381.028 174.328C381.612 174.328 382.132 174.464 382.588 174.736C383.044 175.008 383.4 175.4 383.656 175.912C383.92 176.424 384.052 177.024 384.052 177.712C384.052 178.4 383.92 179 383.656 179.512C383.4 180.016 383.044 180.404 382.588 180.676C382.132 180.948 381.612 181.084 381.028 181.084C380.388 181.084 379.844 180.924 379.396 180.604C378.956 180.276 378.652 179.848 378.484 179.32V184.12H377.392V174.412H378.484V176.092C378.652 175.564 378.956 175.14 379.396 174.82C379.844 174.492 380.388 174.328 381.028 174.328ZM380.716 175.3C380.292 175.3 379.908 175.4 379.564 175.6C379.22 175.792 378.952 176.072 378.76 176.44C378.568 176.808 378.472 177.232 378.472 177.712C378.472 178.192 378.568 178.616 378.76 178.984C378.952 179.344 379.22 179.624 379.564 179.824C379.908 180.024 380.292 180.124 380.716 180.124C381.396 180.124 381.936 179.912 382.336 179.488C382.744 179.056 382.948 178.464 382.948 177.712C382.948 176.96 382.744 176.372 382.336 175.948C381.936 175.516 381.396 175.3 380.716 175.3ZM388.178 174.328C388.818 174.328 389.358 174.488 389.798 174.808C390.246 175.128 390.558 175.556 390.734 176.092V174.412H391.826V181H390.734V179.32C390.558 179.856 390.246 180.284 389.798 180.604C389.358 180.924 388.818 181.084 388.178 181.084C387.594 181.084 387.074 180.948 386.618 180.676C386.162 180.404 385.802 180.016 385.538 179.512C385.282 179 385.154 178.4 385.154 177.712C385.154 177.024 385.282 176.424 385.538 175.912C385.802 175.4 386.162 175.008 386.618 174.736C387.074 174.464 387.594 174.328 388.178 174.328ZM388.49 175.3C387.818 175.3 387.278 175.516 386.87 175.948C386.47 176.372 386.27 176.96 386.27 177.712C386.27 178.464 386.47 179.056 386.87 179.488C387.278 179.912 387.818 180.124 388.49 180.124C388.922 180.124 389.306 180.024 389.642 179.824C389.986 179.624 390.254 179.344 390.446 178.984C390.638 178.616 390.734 178.192 390.734 177.712C390.734 177.232 390.638 176.808 390.446 176.44C390.254 176.072 389.986 175.792 389.642 175.6C389.306 175.4 388.922 175.3 388.49 175.3ZM397.032 174.304C397.8 174.304 398.42 174.552 398.892 175.048C399.364 175.536 399.6 176.244 399.6 177.172V181H398.508V177.268C398.508 176.612 398.34 176.108 398.004 175.756C397.668 175.404 397.212 175.228 396.636 175.228C396.036 175.228 395.556 175.424 395.196 175.816C394.836 176.2 394.656 176.764 394.656 177.508V181H393.564V174.412H394.656V175.972C394.824 175.436 395.12 175.024 395.544 174.736C395.976 174.448 396.472 174.304 397.032 174.304ZM401.73 174.412L403.866 179.596L405.846 174.412H407.058L403.146 184.12H401.91L403.278 180.892L400.506 174.412H401.73Z" fill="white"/>
<path d="M153.255 29.416V27.704H156.871V39H154.951V29.416H153.255ZM156.06 58.616H154.94V44.344H156.06V58.616ZM151.601 73.576C153.329 72.392 154.71 71.2347 155.745 70.104C156.79 68.9627 157.313 67.9067 157.313 66.936C157.313 66.36 157.169 65.9013 156.881 65.56C156.604 65.2187 156.15 65.048 155.521 65.048C154.87 65.048 154.38 65.2613 154.049 65.688C153.718 66.104 153.532 66.7013 153.489 67.48H151.713C151.788 66.1893 152.182 65.2027 152.897 64.52C153.622 63.8373 154.545 63.496 155.665 63.496C156.764 63.496 157.622 63.7893 158.241 64.376C158.87 64.952 159.185 65.752 159.185 66.776C159.185 67.5973 158.929 68.4293 158.417 69.272C157.916 70.1147 157.276 70.8933 156.497 71.608C155.718 72.312 154.913 72.92 154.081 73.432H159.441V74.92H151.601V73.576ZM156.06 94.616H154.94V80.344H156.06V94.616ZM155.55 99.352C156.297 99.352 156.937 99.4853 157.47 99.752C158.003 100.008 158.403 100.365 158.67 100.824C158.947 101.283 159.086 101.795 159.086 102.36C159.086 103.075 158.883 103.672 158.478 104.152C158.083 104.621 157.523 104.904 156.798 105V105.08C157.577 105.304 158.185 105.64 158.622 106.088C159.07 106.525 159.294 107.133 159.294 107.912C159.294 108.861 158.979 109.635 158.35 110.232C157.721 110.819 156.819 111.112 155.646 111.112C154.441 111.112 153.47 110.808 152.734 110.2C151.998 109.581 151.577 108.669 151.47 107.464H153.278C153.342 108.104 153.571 108.616 153.966 109C154.361 109.373 154.894 109.56 155.566 109.56C156.195 109.56 156.675 109.395 157.006 109.064C157.347 108.733 157.518 108.307 157.518 107.784C157.518 107.155 157.273 106.675 156.782 106.344C156.302 106.013 155.603 105.848 154.686 105.848H154.254V104.344H154.686C156.425 104.365 157.294 103.773 157.294 102.568C157.294 102.045 157.134 101.635 156.814 101.336C156.494 101.037 156.057 100.888 155.502 100.888C154.947 100.888 154.483 101.059 154.11 101.4C153.737 101.731 153.513 102.216 153.438 102.856H151.646C151.721 101.747 152.094 100.888 152.766 100.28C153.438 99.6613 154.366 99.352 155.55 99.352ZM156.06 130.616H154.94V116.344H156.06V130.616ZM150.982 144.568V143.032L156.598 135.608H158.55V142.968H160.134V144.568H158.55V147H156.71V144.568H150.982ZM156.838 137.784L152.87 142.968H156.838V137.784ZM156.06 166.616H154.94V152.344H156.06V166.616ZM159.164 173.144H153.58V176.504C153.836 176.173 154.198 175.912 154.668 175.72C155.137 175.517 155.654 175.416 156.22 175.416C157.009 175.416 157.665 175.587 158.188 175.928C158.71 176.259 159.094 176.701 159.34 177.256C159.596 177.811 159.724 178.424 159.724 179.096C159.724 180.28 159.393 181.24 158.732 181.976C158.07 182.701 157.11 183.064 155.852 183.064C154.668 183.064 153.713 182.749 152.988 182.12C152.262 181.491 151.868 180.653 151.804 179.608H153.596C153.692 180.184 153.926 180.637 154.3 180.968C154.684 181.299 155.169 181.464 155.756 181.464C156.481 181.464 157.025 181.245 157.388 180.808C157.75 180.371 157.932 179.789 157.932 179.064C157.932 178.381 157.745 177.848 157.372 177.464C156.998 177.069 156.465 176.872 155.772 176.872C155.281 176.872 154.849 176.979 154.476 177.192C154.113 177.405 153.846 177.688 153.676 178.04H151.9V171.528H159.164V173.144Z" fill="white"/>
<path fill-rule="evenodd" clip-rule="evenodd" d="M0.933772 15.8667C0.933772 7.10377 8.03936 0 16.8049 0H87.7594C96.5249 0 103.631 7.10377 103.631 15.8667V53.2C104.146 53.2 104.564 53.6179 104.564 54.1333V70.9333C104.564 71.4488 104.146 71.8667 103.631 71.8667V194.133C103.631 202.896 96.5249 210 87.7594 210H16.8049C8.03936 210 0.933772 202.896 0.933772 194.133V77.4667C0.417909 77.4667 0 77.0488 0 76.5333V64.4C0 63.8846 0.417909 63.4667 0.933772 63.4667V61.6C0.417909 61.6 0 61.1821 0 60.6667V48.5334C0 48.0179 0.417909 47.6 0.933772 47.6V40.1334C0.417909 40.1334 0 39.7155 0 39.2V31.7333C0 31.2179 0.417909 30.8 0.933772 30.8V15.8667ZM5.6015 16.8C5.6015 10.099 11.0355 4.66667 17.7383 4.66667H27.0745C27.0745 8.79042 30.4185 12.1334 34.5435 12.1334H70.4875C74.6125 12.1334 77.9562 8.79042 77.9562 4.66667H86.8257C93.5285 4.66667 98.9624 10.099 98.9624 16.8V193.2C98.9624 199.901 93.5285 205.333 86.8257 205.333H17.7383C11.0355 205.333 5.6015 199.901 5.6015 193.2V16.8Z" fill="white"/>
<path d="M31.219 115.354C31.963 114.742 32.599 114.094 33.055 113.482C33.511 114.106 34.195 114.754 34.975 115.354H31.219ZM30.271 116.95H35.839V115.966C36.475 116.386 37.135 116.77 37.771 117.058C38.083 116.53 38.467 115.906 38.899 115.462C36.991 114.838 35.191 113.578 33.907 111.814H32.059C31.195 113.17 29.323 114.862 27.271 115.726C27.631 116.098 28.099 116.77 28.303 117.19C28.987 116.878 29.659 116.482 30.271 116.062V116.95ZM35.155 119.29L33.883 119.95C34.195 120.25 34.519 120.586 34.831 120.934C33.847 120.97 32.851 121.006 31.903 121.042C32.203 120.49 32.515 119.878 32.815 119.29H35.155ZM38.083 119.29V117.67H28.087V119.29H30.667C30.475 119.89 30.223 120.538 29.959 121.102C29.287 121.126 28.675 121.15 28.123 121.162L28.351 122.866C30.403 122.77 33.307 122.638 36.067 122.482C36.235 122.734 36.391 122.974 36.499 123.19L38.131 122.206C37.603 121.342 36.595 120.19 35.599 119.29H38.083ZM45.571 118.594C45.331 118.354 44.467 117.586 43.891 117.118C44.431 116.338 44.887 115.474 45.223 114.574L44.251 113.938L43.951 113.998H43.687V111.802H41.959V113.998H40.339V115.57H43.015C42.271 116.842 41.107 117.97 39.871 118.606C40.123 118.942 40.531 119.818 40.675 120.286C41.107 120.022 41.539 119.698 41.959 119.326V123.202H43.687V118.942C43.999 119.326 44.299 119.71 44.515 120.01L45.571 118.594ZM49.135 121.138V117.07H51.271V115.39H49.135V111.922H47.335V115.39H45.211V117.07H47.335V121.138H44.707V122.854H51.571V121.138H49.135ZM56.047 112.318C56.071 113.05 55.987 113.878 55.819 114.802C55.291 114.838 54.799 114.874 54.451 114.886C53.983 114.898 53.527 114.922 53.071 114.886L53.227 116.818C53.623 116.746 54.307 116.65 54.691 116.602C54.859 116.578 55.123 116.542 55.435 116.494C54.991 118.114 54.223 120.334 53.095 121.858L54.979 122.614C55.987 120.982 56.875 118.126 57.355 116.278C57.571 116.266 57.775 116.254 57.907 116.254C58.651 116.254 59.011 116.362 59.011 117.226C59.011 118.33 58.867 119.686 58.567 120.274C58.411 120.598 58.135 120.73 57.763 120.73C57.463 120.73 56.743 120.598 56.311 120.478L56.623 122.374C57.043 122.47 57.607 122.542 58.063 122.542C59.035 122.542 59.731 122.242 60.139 121.39C60.643 120.334 60.799 118.426 60.799 117.034C60.799 115.258 59.899 114.61 58.531 114.61C58.315 114.61 58.039 114.622 57.727 114.646C57.799 114.334 57.871 114.01 57.931 113.686C58.003 113.35 58.099 112.906 58.183 112.546L56.047 112.318ZM60.547 114.286C61.411 115.39 62.203 117.562 62.491 118.942L64.327 118.09C63.979 116.938 63.007 114.634 62.287 113.566L60.547 114.286ZM68.767 114.01C69.703 114.25 72.391 114.814 73.639 114.982L74.071 113.206C73.027 113.086 70.411 112.654 69.223 112.282L68.767 114.01ZM69.487 114.79L67.555 114.526C67.471 116.134 67.195 118.366 66.967 119.578L68.611 119.986C68.731 119.722 68.863 119.53 69.103 119.242C69.799 118.402 70.963 117.946 72.175 117.946C73.123 117.946 73.771 118.45 73.771 119.122C73.771 120.574 71.851 121.33 68.383 120.814L68.947 122.698C74.179 123.154 75.799 121.366 75.799 119.158C75.799 117.706 74.587 116.314 72.355 116.314C71.215 116.314 70.099 116.614 69.067 117.274C69.127 116.638 69.331 115.378 69.487 114.79ZM31.603 133.558C31.675 133.99 31.699 134.338 31.699 134.758C31.699 136.714 31.399 137.734 30.067 138.742C29.563 139.126 29.119 139.33 28.699 139.474L30.391 140.854C33.775 138.97 33.715 136.378 33.715 133.558H31.603ZM37.507 130.858C37.255 130.93 36.463 130.978 36.067 130.978H29.839C29.311 130.978 28.807 130.918 28.315 130.846V132.85C28.939 132.79 29.311 132.754 29.839 132.754H35.767C35.503 133.258 34.675 134.17 33.787 134.734L35.287 135.934C36.367 135.154 37.507 133.654 38.119 132.646C38.239 132.454 38.515 132.106 38.659 131.926L37.507 130.858ZM49.783 132.082C49.435 132.082 49.147 131.794 49.147 131.446C49.147 131.098 49.435 130.81 49.783 130.81C50.131 130.81 50.419 131.098 50.419 131.446C50.419 131.794 50.131 132.082 49.783 132.082ZM43.531 132.142C43.531 131.794 43.567 131.146 43.627 130.738H41.491C41.551 131.146 41.587 131.878 41.587 132.142V138.634C41.587 139.714 42.247 140.362 43.351 140.566C43.879 140.65 44.611 140.71 45.427 140.71C46.759 140.71 48.583 140.638 49.771 140.47V138.346C48.787 138.61 46.795 138.778 45.547 138.778C45.043 138.778 44.623 138.766 44.275 138.718C43.759 138.622 43.531 138.502 43.531 138.034V136.054C45.115 135.658 46.963 135.082 48.115 134.65C48.535 134.494 49.135 134.242 49.663 134.026L49.147 132.79C49.339 132.886 49.555 132.934 49.783 132.934C50.599 132.934 51.271 132.262 51.271 131.446C51.271 130.63 50.599 129.958 49.783 129.958C48.967 129.958 48.295 130.63 48.295 131.446C48.295 131.782 48.415 132.106 48.607 132.358C48.187 132.586 47.827 132.754 47.443 132.898C46.471 133.294 44.935 133.798 43.531 134.158V132.142ZM53.515 136.582C54.007 136.546 54.907 136.51 55.591 136.51H61.963C62.455 136.51 63.127 136.57 63.439 136.582V134.29C63.091 134.314 62.503 134.374 61.963 134.374H55.591C55.003 134.374 53.995 134.326 53.515 134.29V136.582ZM67.279 140.71C68.323 139.762 69.055 138.574 69.427 137.182C69.739 135.97 69.775 133.462 69.775 131.986C69.775 131.41 69.871 130.774 69.871 130.774H67.735C67.819 131.098 67.867 131.446 67.867 132.01C67.867 133.51 67.855 135.718 67.519 136.702C67.207 137.65 66.595 138.778 65.503 139.534L67.279 140.71ZM72.307 140.77C72.475 140.65 72.607 140.518 72.883 140.374C74.215 139.69 75.967 138.358 76.939 137.122L75.823 135.514C75.079 136.57 74.059 137.434 73.159 137.806V131.902C73.159 131.314 73.255 130.774 73.255 130.774H71.095C71.095 130.774 71.203 131.302 71.203 131.89V138.778C71.203 139.15 71.155 139.522 71.095 139.774L72.307 140.77Z" fill="white"/>
<path fill-rule="evenodd" clip-rule="evenodd" d="M49.7734 82.3453L42.9114 82.3453C42.4692 82.3453 41.7841 82.4861 41.2377 82.8795C40.7413 83.2369 40.2973 83.8412 40.2973 84.9595C40.2973 86.0777 40.7413 86.682 41.2377 87.0394C41.7841 87.4328 42.4692 87.5736 42.9114 87.5736L49.7734 87.5736L49.7734 89.5341L42.9114 89.5341C42.1555 89.5341 41.0434 89.3154 40.0921 88.6305C39.0909 87.9096 38.3367 86.7167 38.3367 84.9595C38.3367 83.2022 39.0909 82.0093 40.0921 81.2884C41.0434 80.6035 42.1555 80.3848 42.9114 80.3848L49.7734 80.3848L49.7734 82.3453Z" fill="white"/>
<path d="M44.545 92.8017L48.793 91.4946L46.1789 93.1284L47.1592 94.7623L41.9309 96.0693L45.5253 94.1087L44.545 92.8017Z" fill="white"/>
<path d="M44.3428 76.4635L48.793 77.7705L46.0544 76.1367L47.0814 74.5029L41.6042 73.1958L45.3697 75.1564L44.3428 76.4635Z" fill="white"/>
<path fill-rule="evenodd" clip-rule="evenodd" d="M59.0313 74.1759C59.0313 73.2736 59.7628 72.5421 60.6651 72.5421C61.5675 72.5421 62.299 73.2736 62.299 74.1759C62.299 75.0783 61.5675 75.8098 60.6651 75.8098C59.7628 75.8098 59.0313 75.0783 59.0313 74.1759ZM60.6651 70.5815C58.68 70.5815 57.0707 72.1908 57.0707 74.1759C57.0707 76.1611 58.68 77.7703 60.6651 77.7703C62.6503 77.7703 64.2595 76.1611 64.2595 74.1759C64.2595 72.1908 62.6503 70.5815 60.6651 70.5815ZM57.0719 83.7131C57.0719 83.2447 57.2083 82.5321 57.5804 81.9689C57.9177 81.4586 58.4608 81.038 59.4464 81.038H61.8862C62.2705 81.038 62.8836 81.1723 63.3779 81.5601C63.8279 81.9132 64.2607 82.5364 64.2607 83.7131V88.8178L62.1259 90.147V99.3368H64.0864V91.2358L66.2213 89.9066V83.7131C66.2213 81.9654 65.5358 80.7611 64.588 80.0175C63.7346 79.348 62.7378 79.1046 62.0114 79.0796L62.0111 79.0775H59.4464C57.7481 79.0775 56.6139 79.8754 55.9447 80.8881C55.3104 81.848 55.1113 82.963 55.1113 83.7131V89.9066L57.2462 91.2358V99.3368H59.2068V90.147L57.0719 88.8178V83.7131Z" fill="white"/>
</svg>
