<svg width="58" height="58" viewBox="0 0 58 58" fill="none" xmlns="http://www.w3.org/2000/svg">
<circle cx="29" cy="29" r="28" fill="white" stroke="#AA076B" stroke-width="2"/>
<path d="M24.665 27.35H23.525V25.43H24.665V27.35ZM24.665 30.845H23.525V28.94H24.665V30.845ZM18.365 28.94H19.445V30.845H18.365V28.94ZM22.04 28.94V30.845H20.93V28.94H22.04ZM20.93 27.35V25.43H22.04V27.35H20.93ZM18.365 25.43H19.445V27.35H18.365V25.43ZM16.79 27.35H14.78V28.94H16.79V30.845H15.005V32.435H28.04V30.845H26.3V28.94H28.25V27.35H26.3V25.43H27.71V23.855H18.71C18.935 23.51 19.13 23.165 19.295 22.805L17.555 22.295C16.895 23.69 15.71 25.055 14.45 25.88C14.855 26.165 15.575 26.735 15.905 27.05C16.205 26.825 16.49 26.555 16.79 26.27V27.35ZM16.325 36.32C17.06 35.54 17.705 34.31 18.035 33.17L16.31 32.75C15.965 33.845 15.29 35 14.63 35.63L16.325 36.32ZM18.995 33.275C19.16 34.19 19.28 35.42 19.28 36.14L21.02 35.885C21.005 35.18 20.84 33.995 20.66 33.08L18.995 33.275ZM21.965 33.305C22.295 34.22 22.64 35.435 22.73 36.155L24.515 35.81C24.38 35.075 24.005 33.905 23.645 33.02L21.965 33.305ZM24.935 33.23C25.595 34.19 26.39 35.51 26.705 36.305L28.535 35.69C28.16 34.865 27.32 33.605 26.645 32.69L24.935 33.23ZM39.785 24.92C39.305 24.365 38.24 23.6 37.4 23.105L36.545 24.305C37.37 24.86 38.405 25.67 38.87 26.255L39.785 24.92ZM35.855 28.085C36.725 28.595 37.82 29.405 38.315 29.945L39.215 28.52C38.675 27.995 37.565 27.26 36.695 26.795L35.855 28.085ZM34.505 23.12C34.34 24.17 33.995 25.685 33.68 26.63L34.805 26.945C35.18 26.075 35.615 24.65 36.005 23.45L34.505 23.12ZM31.595 26.63C31.52 25.7 31.22 24.275 30.83 23.195L29.585 23.525C29.93 24.605 30.23 26.06 30.26 26.975L31.595 26.63ZM35.69 31.565C35.375 31.145 33.95 29.465 33.515 29.03V28.925H35.735V27.26H33.515V22.355H31.865V27.26H29.6V28.925H31.31C30.845 30.29 30.08 31.895 29.33 32.81C29.6 33.305 29.99 34.115 30.14 34.655C30.785 33.755 31.385 32.36 31.865 30.965V36.26H33.515V30.995C33.95 31.685 34.37 32.465 34.595 32.945L35.69 31.565ZM43.625 31.91L43.355 30.245L41.825 30.53V22.28H40.145V30.83L35.69 31.625L35.96 33.29L40.145 32.54V36.29H41.825V32.24L43.625 31.91Z" fill="#AA076B"/>
</svg>
