<svg width="320" height="160" viewBox="0 0 320 160" fill="none" xmlns="http://www.w3.org/2000/svg">
<rect width="320" height="160" rx="4" fill="#EAEDED"/>
<path fill-rule="evenodd" clip-rule="evenodd" d="M261.999 50L263.65 50.7675C267.719 52.658 271.453 55.5279 274.433 59.0968L275.599 60.4932L256.184 71.7026L261.999 50Z" fill="#5FBBB8"/>
<path d="M241.935 108.984C257.718 113.213 273.941 103.846 278.17 88.0635C280.285 80.1691 278.999 72.1645 275.21 65.6059L249.593 80.4062L257.25 51.8289C241.467 47.5999 225.244 56.9662 221.015 72.749C216.786 88.5318 226.153 104.755 241.935 108.984Z" stroke="#768486" stroke-width="4" stroke-linecap="round" stroke-linejoin="round"/>
<g filter="url(#filter0_d)">
<rect x="20" y="20" width="160" height="120" rx="2" fill="white"/>
<rect x="20.5" y="20.5" width="159" height="119" rx="1.5" stroke="#E4E7E7"/>
</g>
<path d="M20 80H180" stroke="#E4E7E7"/>
<path d="M38.328 47.98C37.764 49.516 36.996 50.788 35.988 51.82C34.944 50.752 34.152 49.456 33.6 47.98H38.328ZM41.424 47.98V46.9H36.564V44.932H35.424V46.9H30.636V47.98H32.376C33.036 49.816 33.912 51.376 35.076 52.648C33.84 53.644 32.304 54.376 30.456 54.88C30.684 55.156 31.044 55.684 31.164 55.972C33.048 55.372 34.62 54.568 35.928 53.476C37.224 54.604 38.808 55.432 40.776 55.948C40.956 55.624 41.316 55.108 41.58 54.844C39.696 54.412 38.124 53.656 36.864 52.612C38.04 51.388 38.952 49.864 39.636 47.98H41.424ZM45.144 52.732C44.496 53.56 43.44 54.424 42.444 54.964C42.744 55.144 43.224 55.516 43.464 55.744C44.4 55.108 45.54 54.1 46.296 53.152L45.144 52.732ZM53.532 52.252C52.932 51.436 51.672 50.248 50.652 49.42L49.74 50.008C50.1 50.32 50.484 50.668 50.868 51.028C49.524 51.064 48.18 51.088 46.908 51.112C48.264 50.056 49.776 48.724 50.94 47.524L49.86 46.936C49.116 47.8 48.096 48.796 47.052 49.696C46.728 49.408 46.32 49.096 45.888 48.796C46.536 48.196 47.292 47.404 47.904 46.66L47.808 46.612C49.56 46.48 51.228 46.288 52.572 46.024L51.78 45.076C49.692 45.496 46.104 45.748 43.044 45.82C43.152 46.084 43.284 46.528 43.308 46.816C44.292 46.804 45.336 46.768 46.392 46.708C45.984 47.224 45.492 47.776 45.036 48.232C44.796 48.076 44.556 47.932 44.328 47.8L43.56 48.508C44.448 49.036 45.504 49.804 46.176 50.428C45.852 50.68 45.54 50.92 45.24 51.136C44.28 51.148 43.404 51.16 42.672 51.16L42.792 52.288C44.052 52.264 45.66 52.228 47.388 52.168V55.948H48.564V52.132C49.632 52.108 50.736 52.072 51.816 52.024C52.104 52.348 52.344 52.648 52.524 52.912L53.532 52.252ZM49.56 53.296C50.568 54.016 51.816 55.048 52.404 55.72L53.4 55C52.752 54.328 51.468 53.344 50.484 52.672L49.56 53.296ZM57.264 53.104C56.784 53.104 56.172 52.48 56.172 51.112C56.172 49.648 57.42 47.788 59.556 47.44C59.436 48.484 59.208 49.564 58.908 50.5C58.356 52.336 57.78 53.104 57.264 53.104ZM60.456 55.396C63.36 54.988 64.956 53.26 64.956 50.776C64.956 48.28 63.144 46.288 60.288 46.288C57.312 46.288 54.972 48.58 54.972 51.22C54.972 53.2 56.052 54.532 57.228 54.532C58.416 54.532 59.4 53.176 60.12 50.752C60.444 49.636 60.66 48.484 60.828 47.416C62.652 47.644 63.684 49 63.684 50.728C63.684 52.648 62.328 53.752 60.804 54.1C60.516 54.172 60.168 54.232 59.748 54.268L60.456 55.396ZM68.004 47.86H76.02V49.624H77.124V46.876H75.384C75.756 46.42 76.152 45.892 76.5 45.376L75.324 45.004C75.048 45.568 74.58 46.324 74.16 46.876H72.132L72.72 46.648C72.564 46.168 72.156 45.412 71.748 44.872L70.776 45.232C71.1 45.736 71.448 46.396 71.616 46.876H69.396L69.828 46.672C69.624 46.216 69.144 45.544 68.712 45.064L67.752 45.496C68.1 45.904 68.472 46.444 68.688 46.876H66.96V49.624H68.004V47.86ZM77.304 51.652H72.576V51.496C73.608 50.968 74.664 50.2 75.384 49.432L74.664 48.892L74.424 48.952H68.796V49.924H73.356C72.948 50.248 72.468 50.572 72 50.824H71.436V51.652H66.756V52.684H71.436V54.652C71.436 54.832 71.376 54.88 71.136 54.892C70.896 54.904 70.056 54.904 69.216 54.868C69.384 55.18 69.6 55.636 69.684 55.948C70.728 55.948 71.436 55.936 71.928 55.78C72.42 55.612 72.576 55.3 72.576 54.688V52.684H77.304V51.652ZM84.6 54.496V51.736H88.332V50.668H84.6V48.268H88.776V47.176H84.6V44.944H83.448V47.176H81.276C81.504 46.6 81.72 45.988 81.9 45.376L80.748 45.112C80.304 46.792 79.548 48.436 78.576 49.456C78.876 49.612 79.368 49.936 79.596 50.128C80.016 49.624 80.412 48.988 80.784 48.268H83.448V50.668H80.028V51.736H83.448V54.496H78.696V55.576H89.352V54.496H84.6Z" fill="#768486"/>
<path d="M139.632 55L143.504 43.72H136.736V45.24H141.44L138.064 55H139.632ZM147.522 55L151.394 43.72H144.626V45.24H149.33L145.954 55H147.522ZM165.989 55.128C167.989 55.128 169.205 53.768 169.205 51.56V50.904C169.205 48.76 167.989 47.368 165.989 47.368C163.957 47.368 162.789 48.76 162.789 50.904V51.56C162.789 53.768 163.957 55.128 165.989 55.128ZM165.989 53.768C164.885 53.768 164.213 53.08 164.213 51.576V50.904C164.213 49.48 164.885 48.728 165.989 48.728C167.093 48.728 167.781 49.48 167.781 50.904V51.576C167.781 53.08 167.077 53.768 165.989 53.768ZM155.797 51.32C157.797 51.32 158.997 49.944 158.997 47.736V47.096C158.997 44.952 157.797 43.56 155.797 43.56C153.765 43.56 152.597 44.952 152.597 47.096V47.736C152.597 49.944 153.765 51.32 155.797 51.32ZM155.797 49.96C154.661 49.96 154.021 49.24 154.021 47.768V47.096C154.021 45.64 154.661 44.92 155.797 44.92C156.901 44.92 157.573 45.64 157.573 47.096V47.768C157.573 49.24 156.901 49.96 155.797 49.96ZM161.781 42.856L158.533 55.816H159.973L163.237 42.856H161.781Z" fill="#5FBBB8"/>
<path d="M34.284 112.444C33.876 112.588 33.444 112.72 33.036 112.852V110.14H34.176V109.108H33.036V106.72H34.368V105.688H30.552V106.72H31.968V109.108H30.672V110.14H31.968V113.188C31.392 113.368 30.864 113.512 30.432 113.632L30.696 114.772C31.776 114.424 33.168 113.956 34.476 113.5L34.284 112.444ZM35.904 108.604H37.476V109.924H35.904V108.604ZM35.904 106.42H37.476V107.716H35.904V106.42ZM39.96 107.716H38.424V106.42H39.96V107.716ZM39.96 109.924H38.424V108.604H39.96V109.924ZM38.52 114.544V113.116H41.184V112.108H38.52V110.872H41.028V105.472H34.884V110.872H37.38V112.108H34.776V113.116H37.38V114.544H33.9V115.564H41.568V114.544H38.52ZM45.144 112.732C44.496 113.56 43.44 114.424 42.444 114.964C42.744 115.144 43.224 115.516 43.464 115.744C44.4 115.108 45.54 114.1 46.296 113.152L45.144 112.732ZM53.532 112.252C52.932 111.436 51.672 110.248 50.652 109.42L49.74 110.008C50.1 110.32 50.484 110.668 50.868 111.028C49.524 111.064 48.18 111.088 46.908 111.112C48.264 110.056 49.776 108.724 50.94 107.524L49.86 106.936C49.116 107.8 48.096 108.796 47.052 109.696C46.728 109.408 46.32 109.096 45.888 108.796C46.536 108.196 47.292 107.404 47.904 106.66L47.808 106.612C49.56 106.48 51.228 106.288 52.572 106.024L51.78 105.076C49.692 105.496 46.104 105.748 43.044 105.82C43.152 106.084 43.284 106.528 43.308 106.816C44.292 106.804 45.336 106.768 46.392 106.708C45.984 107.224 45.492 107.776 45.036 108.232C44.796 108.076 44.556 107.932 44.328 107.8L43.56 108.508C44.448 109.036 45.504 109.804 46.176 110.428C45.852 110.68 45.54 110.92 45.24 111.136C44.28 111.148 43.404 111.16 42.672 111.16L42.792 112.288C44.052 112.264 45.66 112.228 47.388 112.168V115.948H48.564V112.132C49.632 112.108 50.736 112.072 51.816 112.024C52.104 112.348 52.344 112.648 52.524 112.912L53.532 112.252ZM49.56 113.296C50.568 114.016 51.816 115.048 52.404 115.72L53.4 115C52.752 114.328 51.468 113.344 50.484 112.672L49.56 113.296ZM57.264 113.104C56.784 113.104 56.172 112.48 56.172 111.112C56.172 109.648 57.42 107.788 59.556 107.44C59.436 108.484 59.208 109.564 58.908 110.5C58.356 112.336 57.78 113.104 57.264 113.104ZM60.456 115.396C63.36 114.988 64.956 113.26 64.956 110.776C64.956 108.28 63.144 106.288 60.288 106.288C57.312 106.288 54.972 108.58 54.972 111.22C54.972 113.2 56.052 114.532 57.228 114.532C58.416 114.532 59.4 113.176 60.12 110.752C60.444 109.636 60.66 108.484 60.828 107.416C62.652 107.644 63.684 109 63.684 110.728C63.684 112.648 62.328 113.752 60.804 114.1C60.516 114.172 60.168 114.232 59.748 114.268L60.456 115.396ZM68.004 107.86H76.02V109.624H77.124V106.876H75.384C75.756 106.42 76.152 105.892 76.5 105.376L75.324 105.004C75.048 105.568 74.58 106.324 74.16 106.876H72.132L72.72 106.648C72.564 106.168 72.156 105.412 71.748 104.872L70.776 105.232C71.1 105.736 71.448 106.396 71.616 106.876H69.396L69.828 106.672C69.624 106.216 69.144 105.544 68.712 105.064L67.752 105.496C68.1 105.904 68.472 106.444 68.688 106.876H66.96V109.624H68.004V107.86ZM77.304 111.652H72.576V111.496C73.608 110.968 74.664 110.2 75.384 109.432L74.664 108.892L74.424 108.952H68.796V109.924H73.356C72.948 110.248 72.468 110.572 72 110.824H71.436V111.652H66.756V112.684H71.436V114.652C71.436 114.832 71.376 114.88 71.136 114.892C70.896 114.904 70.056 114.904 69.216 114.868C69.384 115.18 69.6 115.636 69.684 115.948C70.728 115.948 71.436 115.936 71.928 115.78C72.42 115.612 72.576 115.3 72.576 114.688V112.684H77.304V111.652ZM84.6 114.496V111.736H88.332V110.668H84.6V108.268H88.776V107.176H84.6V104.944H83.448V107.176H81.276C81.504 106.6 81.72 105.988 81.9 105.376L80.748 105.112C80.304 106.792 79.548 108.436 78.576 109.456C78.876 109.612 79.368 109.936 79.596 110.128C80.016 109.624 80.412 108.988 80.784 108.268H83.448V110.668H80.028V111.736H83.448V114.496H78.696V115.576H89.352V114.496H84.6Z" fill="#768486"/>
<path d="M141.577 115V113.48H135.929C136.041 110.648 141.769 111.288 141.769 107.08C141.769 104.968 140.233 103.512 138.041 103.512C135.897 103.512 134.361 105.016 134.361 107.288H135.897C135.897 106.008 136.553 105.016 138.057 105.016C139.305 105.016 140.217 105.784 140.217 107.096C140.217 110.376 134.361 109.528 134.361 113.816V115H141.577ZM149.328 106.84C149.328 107.848 148.448 108.584 147.376 108.584H145.904V109.96H147.424C148.656 109.96 149.504 110.472 149.504 111.736C149.504 113.064 148.416 113.72 147.216 113.72C145.904 113.72 144.976 113 144.976 111.256H143.376C143.376 113.768 144.976 115.176 147.216 115.176C149.488 115.176 151.072 113.848 151.072 111.656C151.072 110.248 150.176 109.464 149.232 109.192C150.256 108.824 150.88 107.928 150.88 106.664C150.88 104.84 149.344 103.512 147.168 103.512C144.88 103.512 143.472 104.936 143.472 107.288H144.992C144.992 105.576 145.872 104.888 147.12 104.888C148.32 104.888 149.328 105.512 149.328 106.84ZM165.989 115.128C167.989 115.128 169.205 113.768 169.205 111.56V110.904C169.205 108.76 167.989 107.368 165.989 107.368C163.957 107.368 162.789 108.76 162.789 110.904V111.56C162.789 113.768 163.957 115.128 165.989 115.128ZM165.989 113.768C164.885 113.768 164.213 113.08 164.213 111.576V110.904C164.213 109.48 164.885 108.728 165.989 108.728C167.093 108.728 167.781 109.48 167.781 110.904V111.576C167.781 113.08 167.077 113.768 165.989 113.768ZM155.797 111.32C157.797 111.32 158.997 109.944 158.997 107.736V107.096C158.997 104.952 157.797 103.56 155.797 103.56C153.765 103.56 152.597 104.952 152.597 107.096V107.736C152.597 109.944 153.765 111.32 155.797 111.32ZM155.797 109.96C154.661 109.96 154.021 109.24 154.021 107.768V107.096C154.021 105.64 154.661 104.92 155.797 104.92C156.901 104.92 157.573 105.64 157.573 107.096V107.768C157.573 109.24 156.901 109.96 155.797 109.96ZM161.781 102.856L158.533 115.816H159.973L163.237 102.856H161.781Z" fill="#5FBBB8"/>
<defs>
<filter id="filter0_d" x="10" y="10" width="180" height="140" filterUnits="userSpaceOnUse" color-interpolation-filters="sRGB">
<feFlood flood-opacity="0" result="BackgroundImageFix"/>
<feColorMatrix in="SourceAlpha" type="matrix" values="0 0 0 0 0 0 0 0 0 0 0 0 0 0 0 0 0 0 127 0"/>
<feOffset/>
<feGaussianBlur stdDeviation="5"/>
<feColorMatrix type="matrix" values="0 0 0 0 0 0 0 0 0 0 0 0 0 0 0 0 0 0 0.04 0"/>
<feBlend mode="normal" in2="BackgroundImageFix" result="effect1_dropShadow"/>
<feBlend mode="normal" in="SourceGraphic" in2="effect1_dropShadow" result="shape"/>
</filter>
</defs>
</svg>
