<svg width="320" height="160" viewBox="0 0 320 160" fill="none" xmlns="http://www.w3.org/2000/svg">
<rect width="320" height="160" rx="4" fill="#EAEDED"/>
<path d="M292.453 74.7422V91.4432" stroke="#5FBBB8" stroke-width="4" stroke-linecap="round" stroke-linejoin="round"/>
<ellipse cx="249.774" cy="102.577" rx="24.7423" ry="7.42268" stroke="#768486" stroke-width="4" stroke-linecap="round" stroke-linejoin="round"/>
<path d="M274.516 83.4022C274.516 79.3027 263.438 75.9795 249.774 75.9795C236.109 75.9795 225.031 79.3027 225.031 83.4022" stroke="#768486" stroke-width="4" stroke-linecap="round" stroke-linejoin="round"/>
<path d="M274.515 102.577V83.4021L295.546 72.268L249.773 50L204 72.268L225.031 83.4021V102.577" stroke="#768486" stroke-width="4" stroke-linecap="round" stroke-linejoin="round"/>
<g filter="url(#filter0_d)">
<rect x="20" y="20" width="160" height="120" rx="2" fill="white"/>
<rect x="20.5" y="20.5" width="159" height="119" rx="1.5" stroke="#E4E7E7"/>
</g>
<path d="M32.916 38.524H35.388V39.496H32.916V38.524ZM32.916 36.76H35.388V37.72H32.916V36.76ZM39.168 36.76V37.72H36.552V36.76H39.168ZM39.168 39.496H36.552V38.524H39.168V39.496ZM40.296 40.348V35.908H36.552V35.032H41.244V34H36.552V32.932H35.388V34H30.804V35.032H35.388V35.908H31.824V40.348H34.524C33.492 41.392 31.932 42.328 30.492 42.844C30.744 43.072 31.08 43.492 31.26 43.78C32.724 43.18 34.272 42.124 35.388 40.912V43.936H36.552V40.864C37.68 42.1 39.276 43.192 40.752 43.792C40.932 43.504 41.28 43.06 41.556 42.832C40.08 42.34 38.484 41.392 37.428 40.348H40.296ZM53.208 34.204H48.564V32.92H47.376V34.204H42.792V35.272H53.208V34.204ZM44.64 40.492C44.208 41.284 43.356 42.256 42.516 42.856C42.78 43.012 43.188 43.288 43.428 43.516C44.28 42.844 45.192 41.8 45.768 40.852L44.64 40.492ZM45.324 37.228H50.712V38.932H45.324V37.228ZM51.888 39.892V36.244H44.208V39.892H47.4V42.688C47.4 42.844 47.34 42.892 47.124 42.892C46.932 42.904 46.176 42.904 45.456 42.88C45.6 43.192 45.768 43.624 45.816 43.936C46.824 43.948 47.52 43.936 47.976 43.78C48.432 43.624 48.564 43.312 48.564 42.712V39.892H51.888ZM50.124 40.984C50.904 41.788 51.852 42.916 52.272 43.612L53.364 43.048C52.896 42.34 51.912 41.26 51.156 40.492L50.124 40.984ZM65.268 37.408V36.256H60.432C60.576 35.068 60.588 33.916 60.6 32.944H59.388C59.376 33.904 59.388 35.056 59.244 36.256H54.78V37.408H59.04C58.56 39.58 57.396 41.74 54.54 42.988C54.852 43.228 55.212 43.624 55.392 43.924C58.116 42.64 59.412 40.564 60.024 38.392C60.96 40.936 62.412 42.88 64.656 43.924C64.836 43.588 65.208 43.12 65.484 42.88C63.216 41.932 61.704 39.904 60.888 37.408H65.268ZM68.004 35.86H76.02V37.624H77.124V34.876H75.384C75.756 34.42 76.152 33.892 76.5 33.376L75.324 33.004C75.048 33.568 74.58 34.324 74.16 34.876H72.132L72.72 34.648C72.564 34.168 72.156 33.412 71.748 32.872L70.776 33.232C71.1 33.736 71.448 34.396 71.616 34.876H69.396L69.828 34.672C69.624 34.216 69.144 33.544 68.712 33.064L67.752 33.496C68.1 33.904 68.472 34.444 68.688 34.876H66.96V37.624H68.004V35.86ZM77.304 39.652H72.576V39.496C73.608 38.968 74.664 38.2 75.384 37.432L74.664 36.892L74.424 36.952H68.796V37.924H73.356C72.948 38.248 72.468 38.572 72 38.824H71.436V39.652H66.756V40.684H71.436V42.652C71.436 42.832 71.376 42.88 71.136 42.892C70.896 42.904 70.056 42.904 69.216 42.868C69.384 43.18 69.6 43.636 69.684 43.948C70.728 43.948 71.436 43.936 71.928 43.78C72.42 43.612 72.576 43.3 72.576 42.688V40.684H77.304V39.652ZM82.2 42.868C81.516 42.04 80.4 40.912 79.548 40.216L78.564 41.08C79.404 41.788 80.424 42.808 81.18 43.732L82.2 42.868ZM86.916 36.472H93V37.6H86.916V36.472ZM86.916 34.456H93V35.548H86.916V34.456ZM95.448 40.18H90.528V38.584H94.152V33.472H85.824V38.584H89.388V40.18H84.6V41.236H89.388V43.936H90.528V41.236H95.448V40.18ZM99.264 37.36H100.608V36.352H99.264V34.42C99.744 34.3 100.2 34.156 100.596 34C100.716 34.228 100.86 34.612 100.896 34.852C102.936 34.672 105.324 34.36 106.956 33.832L106.14 33.016C104.844 33.448 102.6 33.796 100.62 33.988L100.704 33.952L99.888 33.172C99.096 33.544 97.704 33.88 96.468 34.096C96.588 34.324 96.732 34.684 96.792 34.924C97.248 34.852 97.716 34.78 98.196 34.672V36.352H96.552V37.36H98.04C97.656 38.632 97.02 40.084 96.396 40.9C96.564 41.176 96.828 41.632 96.936 41.956C97.38 41.296 97.824 40.312 98.196 39.28V43.96H99.264V38.932C99.6 39.4 99.96 39.928 100.128 40.24L100.764 39.388C100.536 39.112 99.588 38.14 99.264 37.852V37.36ZM105.888 37.9C106.344 37.12 106.896 35.932 107.328 34.876L106.224 34.552C105.936 35.5 105.396 36.772 104.964 37.588L105.888 37.9ZM104.58 36.844C104.496 36.28 104.232 35.428 103.92 34.78L102.984 35.032C103.272 35.692 103.524 36.568 103.584 37.132L104.58 36.844ZM100.956 43.924H101.976V37.708H100.956V43.924ZM100.824 35.392C101.172 36.016 101.508 36.856 101.616 37.408L102.564 37.084C102.444 36.532 102.108 35.716 101.712 35.104L100.824 35.392ZM106.08 38.86V40.144H103.824V38.86H106.08ZM103.824 42.412V41.068H106.08V42.412H103.824ZM102.828 43.972H103.824V43.36H106.08V43.912H107.136V37.912H102.828V43.972ZM114.492 41.98V38.932H117.744V41.98H114.492ZM110.244 38.932H113.364V41.98H110.244V38.932ZM113.364 34.816V37.816H110.244V34.816H113.364ZM117.744 37.816H114.492V34.816H117.744V37.816ZM109.14 33.748V43.84H110.244V43.108H117.744V43.84H118.896V33.748H109.14ZM131.268 37.408V36.256H126.432C126.576 35.068 126.588 33.916 126.6 32.944H125.388C125.376 33.904 125.388 35.056 125.244 36.256H120.78V37.408H125.04C124.56 39.58 123.396 41.74 120.54 42.988C120.852 43.228 121.212 43.624 121.392 43.924C124.116 42.64 125.412 40.564 126.024 38.392C126.96 40.936 128.412 42.88 130.656 43.924C130.836 43.588 131.208 43.12 131.484 42.88C129.216 41.932 127.704 39.904 126.888 37.408H131.268ZM134.004 35.86H142.02V37.624H143.124V34.876H141.384C141.756 34.42 142.152 33.892 142.5 33.376L141.324 33.004C141.048 33.568 140.58 34.324 140.16 34.876H138.132L138.72 34.648C138.564 34.168 138.156 33.412 137.748 32.872L136.776 33.232C137.1 33.736 137.448 34.396 137.616 34.876H135.396L135.828 34.672C135.624 34.216 135.144 33.544 134.712 33.064L133.752 33.496C134.1 33.904 134.472 34.444 134.688 34.876H132.96V37.624H134.004V35.86ZM143.304 39.652H138.576V39.496C139.608 38.968 140.664 38.2 141.384 37.432L140.664 36.892L140.424 36.952H134.796V37.924H139.356C138.948 38.248 138.468 38.572 138 38.824H137.436V39.652H132.756V40.684H137.436V42.652C137.436 42.832 137.376 42.88 137.136 42.892C136.896 42.904 136.056 42.904 135.216 42.868C135.384 43.18 135.6 43.636 135.684 43.948C136.728 43.948 137.436 43.936 137.928 43.78C138.42 43.612 138.576 43.3 138.576 42.688V40.684H143.304V39.652ZM41.016 55.152H36.552V52.932H35.388V55.152H31.044V56.256H41.016V55.152ZM34.824 61.548C34.716 60.264 34.284 58.332 33.672 56.796L32.616 57.084C33.18 58.584 33.612 60.564 33.684 61.848L34.824 61.548ZM37.824 62.34C38.376 60.888 39 58.776 39.432 56.976L38.16 56.736C37.848 58.488 37.224 60.84 36.648 62.34H30.66V63.456H41.376V62.34H37.824ZM46.392 58.884V61.092H44.628V58.884H46.392ZM47.4 57.912H43.608V63.06H44.628V62.064H47.4V57.912ZM52.536 57.912H48.312V63.972H49.38V58.896H51.468V61.536C51.468 61.68 51.42 61.716 51.252 61.728C51.096 61.74 50.556 61.74 49.992 61.716C50.112 62.004 50.256 62.424 50.292 62.724C51.144 62.724 51.708 62.712 52.068 62.556C52.44 62.376 52.536 62.076 52.536 61.56V57.912ZM45.804 55.98C46.68 55.32 47.436 54.612 47.952 53.964C48.516 54.636 49.32 55.332 50.208 55.98H45.804ZM47.316 52.908C46.356 54.276 44.34 55.872 42.264 56.784C42.504 57.036 42.816 57.444 42.948 57.72C43.872 57.276 44.784 56.724 45.6 56.124V56.988H50.436V56.136C51.288 56.736 52.2 57.264 53.04 57.66C53.232 57.336 53.508 56.928 53.784 56.664C51.864 55.932 49.812 54.516 48.48 52.908H47.316ZM64.08 61.032V62.412H61.212V61.032H64.08ZM64.344 55.116V56.148H60.492V55.116H64.344ZM63.588 58.308H61.212V57.048H63.588V58.308ZM58.044 56.928V57.708H56.244V56.928H58.044ZM56.244 59.268V58.464H58.044V59.268H56.244ZM64.608 59.208V56.304H65.388V54.204H62.916V52.92H61.836V54.204H59.496V54.936C59.076 54.336 58.272 53.508 57.576 52.932H56.532C56.124 53.88 55.356 55.044 54.24 55.932C54.468 56.076 54.804 56.412 54.948 56.652C55.056 56.556 55.164 56.472 55.26 56.376V62.316C54.972 62.376 54.72 62.436 54.48 62.484L54.804 63.516C55.8 63.24 57.06 62.892 58.272 62.544C58.44 62.916 58.572 63.264 58.644 63.552L59.604 63.108C59.376 62.352 58.764 61.236 58.152 60.384L57.276 60.78C57.468 61.068 57.672 61.38 57.852 61.716C57.3 61.848 56.76 61.98 56.244 62.1V60.096H59.04V56.112H57.756V55.044H56.808V56.112H55.536C56.268 55.368 56.82 54.576 57.216 53.892C57.84 54.456 58.488 55.272 58.8 55.8L59.496 55.02V56.304H60.204V63.936H61.212V63.36H64.08V63.864H65.112V60.108H61.212V59.208H64.608ZM71.088 56.484C71.148 56.832 71.16 57.12 71.16 57.444C71.16 59.436 70.884 60.948 69.168 62.052C68.784 62.328 68.364 62.52 68.016 62.64L69.12 63.54C72.276 61.92 72.456 59.616 72.456 56.484H71.088ZM76.548 54.18C76.356 54.228 75.816 54.264 75.54 54.264H68.832C68.364 54.264 67.872 54.216 67.428 54.156V55.488C67.944 55.452 68.364 55.416 68.832 55.416H75.42C75.072 56.1 74.016 57.288 72.972 57.9L73.968 58.704C75.252 57.792 76.392 56.268 76.908 55.392C77.004 55.248 77.196 55.02 77.304 54.888L76.548 54.18ZM86.1835 53.928L85.3675 54.276C85.7875 54.852 86.1235 55.476 86.4475 56.16L87.2875 55.788C87.0115 55.236 86.4955 54.396 86.1835 53.928ZM87.7915 53.352L86.9635 53.7C87.3835 54.264 87.7555 54.864 88.0915 55.548L88.9315 55.176C88.6315 54.624 88.1275 53.796 87.7915 53.352ZM81.0235 53.736L80.3395 54.768C81.0715 55.188 82.3555 56.028 82.9675 56.472L83.6875 55.44C83.1115 55.032 81.7675 54.144 81.0235 53.736ZM79.0315 62.28L79.7395 63.516C80.8315 63.312 82.5115 62.736 83.7235 62.028C85.6675 60.9 87.3355 59.364 88.4155 57.732L87.6835 56.46C86.7235 58.164 85.0915 59.772 83.0875 60.912C81.8275 61.608 80.3635 62.052 79.0315 62.28ZM79.1995 56.448L78.5155 57.48C79.2715 57.888 80.5555 58.704 81.1795 59.16L81.8755 58.092C81.3115 57.696 79.9435 56.856 79.1995 56.448ZM94.6075 56.484C94.6675 56.832 94.6795 57.12 94.6795 57.444C94.6795 59.436 94.4035 60.948 92.6875 62.052C92.3035 62.328 91.8835 62.52 91.5355 62.64L92.6395 63.54C95.7955 61.92 95.9755 59.616 95.9755 56.484H94.6075ZM100.068 54.18C99.8755 54.228 99.3355 54.264 99.0595 54.264H92.3515C91.8835 54.264 91.3915 54.216 90.9475 54.156V55.488C91.4635 55.452 91.8835 55.416 92.3515 55.416H98.9395C98.5915 56.1 97.5355 57.288 96.4915 57.9L97.4875 58.704C98.7715 57.792 99.9115 56.268 100.428 55.392C100.524 55.248 100.716 55.02 100.824 54.888L100.068 54.18ZM106.068 61.344C106.872 62.04 107.856 63.06 108.324 63.72L109.332 62.928C108.852 62.292 107.82 61.332 107.028 60.672L106.068 61.344ZM112.836 57.156V56.016H107.868C107.976 54.924 107.988 53.856 108 52.932H106.788C106.776 53.844 106.788 54.912 106.668 56.016H102.288V57.156H106.512C106.08 59.436 104.94 61.704 101.94 63.012C102.276 63.24 102.612 63.648 102.792 63.936C105.768 62.556 107.028 60.228 107.568 57.852C108.48 60.648 109.956 62.808 112.308 63.96C112.5 63.636 112.872 63.168 113.136 62.928C110.832 61.932 109.308 59.772 108.516 57.156H112.836ZM124.896 58.74H120.084V54.804H124.212V53.712H114.804V54.804H118.932V58.74H114.18V59.868H118.932V63.948H120.084V59.868H124.896V58.74ZM115.584 55.608C116.016 56.448 116.424 57.564 116.58 58.248L117.648 57.888C117.492 57.192 117.036 56.124 116.592 55.296L115.584 55.608ZM122.196 58.26C122.64 57.588 123.168 56.508 123.6 55.572L122.412 55.248C122.148 56.088 121.644 57.228 121.236 57.948L122.196 58.26ZM128.82 57.408C128.328 57.012 127.344 56.496 126.576 56.196L125.988 57.036C126.768 57.36 127.728 57.912 128.196 58.332L128.82 57.408ZM127.344 63.78C128.016 62.664 128.772 61.236 129.36 59.988L128.52 59.256C127.86 60.624 126.996 62.136 126.384 63.06L127.344 63.78ZM126.66 53.82C127.428 54.168 128.364 54.756 128.832 55.188L129.468 54.276C129 53.844 128.028 53.316 127.272 53.004L126.66 53.82ZM137.028 60.24H133.764V58.704H136.356V57.66H133.764V56.172H136.764V55.128H135.072C135.408 54.624 135.804 53.94 136.14 53.28L134.952 52.92C134.736 53.544 134.292 54.396 133.944 54.96L134.436 55.128H131.88L132.432 54.888C132.264 54.348 131.784 53.532 131.316 52.944L130.32 53.352C130.704 53.892 131.1 54.6 131.304 55.128H129.768V56.172H132.612V57.66H130.128V58.704H132.612V60.24H129.48V61.308H132.612V63.948H133.764V61.308H137.028V60.24ZM148.788 57.408V56.256H143.952C144.096 55.068 144.108 53.916 144.12 52.944H142.908C142.896 53.904 142.908 55.056 142.764 56.256H138.3V57.408H142.56C142.08 59.58 140.916 61.74 138.06 62.988C138.372 63.228 138.732 63.624 138.912 63.924C141.636 62.64 142.932 60.564 143.544 58.392C144.48 60.936 145.932 62.88 148.176 63.924C148.356 63.588 148.728 63.12 149.004 62.88C146.736 61.932 145.224 59.904 144.408 57.408H148.788ZM151.524 55.86H159.54V57.624H160.644V54.876H158.904C159.276 54.42 159.672 53.892 160.02 53.376L158.844 53.004C158.568 53.568 158.1 54.324 157.68 54.876H155.652L156.24 54.648C156.084 54.168 155.676 53.412 155.268 52.872L154.296 53.232C154.62 53.736 154.968 54.396 155.136 54.876H152.916L153.348 54.672C153.144 54.216 152.664 53.544 152.232 53.064L151.272 53.496C151.62 53.904 151.992 54.444 152.208 54.876H150.48V57.624H151.524V55.86ZM160.824 59.652H156.096V59.496C157.128 58.968 158.184 58.2 158.904 57.432L158.184 56.892L157.944 56.952H152.316V57.924H156.876C156.468 58.248 155.988 58.572 155.52 58.824H154.956V59.652H150.276V60.684H154.956V62.652C154.956 62.832 154.896 62.88 154.656 62.892C154.416 62.904 153.576 62.904 152.736 62.868C152.904 63.18 153.12 63.636 153.204 63.948C154.248 63.948 154.956 63.936 155.448 63.78C155.94 63.612 156.096 63.3 156.096 62.688V60.684H160.824V59.652ZM32.916 78.524H35.388V79.496H32.916V78.524ZM32.916 76.76H35.388V77.72H32.916V76.76ZM39.168 76.76V77.72H36.552V76.76H39.168ZM39.168 79.496H36.552V78.524H39.168V79.496ZM40.296 80.348V75.908H36.552V75.032H41.244V74H36.552V72.932H35.388V74H30.804V75.032H35.388V75.908H31.824V80.348H34.524C33.492 81.392 31.932 82.328 30.492 82.844C30.744 83.072 31.08 83.492 31.26 83.78C32.724 83.18 34.272 82.124 35.388 80.912V83.936H36.552V80.864C37.68 82.1 39.276 83.192 40.752 83.792C40.932 83.504 41.28 83.06 41.556 82.832C40.08 82.34 38.484 81.392 37.428 80.348H40.296ZM53.208 74.204H48.564V72.92H47.376V74.204H42.792V75.272H53.208V74.204ZM44.64 80.492C44.208 81.284 43.356 82.256 42.516 82.856C42.78 83.012 43.188 83.288 43.428 83.516C44.28 82.844 45.192 81.8 45.768 80.852L44.64 80.492ZM45.324 77.228H50.712V78.932H45.324V77.228ZM51.888 79.892V76.244H44.208V79.892H47.4V82.688C47.4 82.844 47.34 82.892 47.124 82.892C46.932 82.904 46.176 82.904 45.456 82.88C45.6 83.192 45.768 83.624 45.816 83.936C46.824 83.948 47.52 83.936 47.976 83.78C48.432 83.624 48.564 83.312 48.564 82.712V79.892H51.888ZM50.124 80.984C50.904 81.788 51.852 82.916 52.272 83.612L53.364 83.048C52.896 82.34 51.912 81.26 51.156 80.492L50.124 80.984ZM60.588 81.956V75.38H64.764V74.228H55.284V75.38H59.34V81.956H54.648V83.072H65.388V81.956H60.588ZM73.644 75.908C73.488 76.292 73.296 76.724 73.116 77.048H70.584L70.932 76.976C70.848 76.688 70.632 76.256 70.416 75.908H73.644ZM77.256 81.164V80.228H72.528V79.496H76.212V78.656H72.528V77.936H76.776V77.048H74.232C74.436 76.712 74.676 76.316 74.904 75.908H77.22V74.972H75.492C75.804 74.528 76.164 73.928 76.488 73.34L75.336 73.052C75.156 73.592 74.784 74.348 74.496 74.828L74.952 74.972H73.656V72.92H72.6V74.972H71.412V72.92H70.368V74.972H69.048L69.66 74.744C69.492 74.276 69.072 73.544 68.7 73.028L67.728 73.352C68.064 73.844 68.424 74.504 68.604 74.972H66.828V75.908H69.552L69.264 75.956C69.456 76.28 69.66 76.712 69.768 77.048H67.308V77.936H71.436V78.656H67.896V79.496H71.436V80.228H66.78V81.164H70.488C69.432 81.908 67.872 82.532 66.444 82.832C66.696 83.072 67.008 83.492 67.176 83.78C68.676 83.36 70.296 82.58 71.436 81.62V83.948H72.528V81.536C73.656 82.568 75.264 83.372 76.824 83.792C76.992 83.492 77.316 83.036 77.568 82.796C76.104 82.52 74.556 81.908 73.5 81.164H77.256ZM89.268 77.408V76.256H84.432C84.576 75.068 84.588 73.916 84.6 72.944H83.388C83.376 73.904 83.388 75.056 83.244 76.256H78.78V77.408H83.04C82.56 79.58 81.396 81.74 78.54 82.988C78.852 83.228 79.212 83.624 79.392 83.924C82.116 82.64 83.412 80.564 84.024 78.392C84.96 80.936 86.412 82.88 88.656 83.924C88.836 83.588 89.208 83.12 89.484 82.88C87.216 81.932 85.704 79.904 84.888 77.408H89.268ZM92.004 75.86H100.02V77.624H101.124V74.876H99.384C99.756 74.42 100.152 73.892 100.5 73.376L99.324 73.004C99.048 73.568 98.58 74.324 98.16 74.876H96.132L96.72 74.648C96.564 74.168 96.156 73.412 95.748 72.872L94.776 73.232C95.1 73.736 95.448 74.396 95.616 74.876H93.396L93.828 74.672C93.624 74.216 93.144 73.544 92.712 73.064L91.752 73.496C92.1 73.904 92.472 74.444 92.688 74.876H90.96V77.624H92.004V75.86ZM101.304 79.652H96.576V79.496C97.608 78.968 98.664 78.2 99.384 77.432L98.664 76.892L98.424 76.952H92.796V77.924H97.356C96.948 78.248 96.468 78.572 96 78.824H95.436V79.652H90.756V80.684H95.436V82.652C95.436 82.832 95.376 82.88 95.136 82.892C94.896 82.904 94.056 82.904 93.216 82.868C93.384 83.18 93.6 83.636 93.684 83.948C94.728 83.948 95.436 83.936 95.928 83.78C96.42 83.612 96.576 83.3 96.576 82.688V80.684H101.304V79.652ZM106.2 82.868C105.516 82.04 104.4 80.912 103.548 80.216L102.564 81.08C103.404 81.788 104.424 82.808 105.18 83.732L106.2 82.868ZM119.268 77.408V76.256H114.432C114.576 75.068 114.588 73.916 114.6 72.944H113.388C113.376 73.904 113.388 75.056 113.244 76.256H108.78V77.408H113.04C112.56 79.58 111.396 81.74 108.54 82.988C108.852 83.228 109.212 83.624 109.392 83.924C112.116 82.64 113.412 80.564 114.024 78.392C114.96 80.936 116.412 82.88 118.656 83.924C118.836 83.588 119.208 83.12 119.484 82.88C117.216 81.932 115.704 79.904 114.888 77.408H119.268ZM123.792 73.4L123.624 73.436H120.984V83.948H121.968V74.444H123.252C123.024 75.26 122.712 76.328 122.412 77.132C123.192 77.996 123.384 78.776 123.384 79.376C123.384 79.724 123.336 80.012 123.168 80.132C123.06 80.204 122.94 80.24 122.796 80.24C122.64 80.252 122.436 80.252 122.184 80.228C122.352 80.492 122.436 80.912 122.448 81.188C122.724 81.2 123.012 81.2 123.24 81.176C123.48 81.14 123.708 81.056 123.888 80.936C124.236 80.696 124.38 80.192 124.38 79.508C124.38 78.788 124.2 77.96 123.384 77.012C123.768 76.076 124.188 74.828 124.524 73.82L123.792 73.4ZM129.792 77.744C129.516 78.872 129.096 79.844 128.532 80.648C127.908 79.808 127.44 78.824 127.104 77.744H129.792ZM130.356 76.7L130.152 76.736H126.252V74.624H131.256V73.604H125.196V77.048C125.196 78.92 125.088 81.464 123.732 83.252C123.96 83.372 124.416 83.732 124.572 83.924C125.784 82.364 126.144 80.072 126.228 78.176C126.624 79.436 127.152 80.552 127.848 81.488C127.176 82.184 126.384 82.7 125.508 83.036C125.724 83.252 126.024 83.684 126.156 83.948C127.056 83.552 127.86 83.024 128.556 82.328C129.216 83 129.984 83.54 130.896 83.936C131.04 83.648 131.388 83.216 131.616 83C130.704 82.652 129.924 82.136 129.264 81.488C130.116 80.336 130.728 78.836 131.04 76.892L130.356 76.7ZM143.268 77.408V76.256H138.432C138.576 75.068 138.588 73.916 138.6 72.944H137.388C137.376 73.904 137.388 75.056 137.244 76.256H132.78V77.408H137.04C136.56 79.58 135.396 81.74 132.54 82.988C132.852 83.228 133.212 83.624 133.392 83.924C136.116 82.64 137.412 80.564 138.024 78.392C138.96 80.936 140.412 82.88 142.656 83.924C142.836 83.588 143.208 83.12 143.484 82.88C141.216 81.932 139.704 79.904 138.888 77.408H143.268ZM146.004 75.86H154.02V77.624H155.124V74.876H153.384C153.756 74.42 154.152 73.892 154.5 73.376L153.324 73.004C153.048 73.568 152.58 74.324 152.16 74.876H150.132L150.72 74.648C150.564 74.168 150.156 73.412 149.748 72.872L148.776 73.232C149.1 73.736 149.448 74.396 149.616 74.876H147.396L147.828 74.672C147.624 74.216 147.144 73.544 146.712 73.064L145.752 73.496C146.1 73.904 146.472 74.444 146.688 74.876H144.96V77.624H146.004V75.86ZM155.304 79.652H150.576V79.496C151.608 78.968 152.664 78.2 153.384 77.432L152.664 76.892L152.424 76.952H146.796V77.924H151.356C150.948 78.248 150.468 78.572 150 78.824H149.436V79.652H144.756V80.684H149.436V82.652C149.436 82.832 149.376 82.88 149.136 82.892C148.896 82.904 148.056 82.904 147.216 82.868C147.384 83.18 147.6 83.636 147.684 83.948C148.728 83.948 149.436 83.936 149.928 83.78C150.42 83.612 150.576 83.3 150.576 82.688V80.684H155.304V79.652ZM34.248 94.552V95.224H32.436V94.552H34.248ZM37.008 95.224H35.232V94.552H37.008V95.224ZM39.804 95.884V96.628H38.016V95.884H39.804ZM35.232 95.884H37.008V96.628H35.232V95.884ZM32.436 95.884H34.248V96.628H32.436V95.884ZM33.012 100.54C33.612 100.168 34.008 99.58 34.284 99.028L33.516 98.692C33.276 99.172 32.832 99.712 32.292 100.036C32.352 99.508 32.388 98.992 32.412 98.5H35.76L35.58 98.632C36.024 98.86 36.576 99.256 36.876 99.544L37.476 99.04C37.296 98.872 37.02 98.68 36.732 98.5H40.296C40.164 98.812 40.008 99.124 39.876 99.364L40.776 99.556C41.016 99.136 41.328 98.5 41.568 97.912L40.836 97.744L40.668 97.78H32.436V97.288H40.836V95.224H38.016V94.552H41.292V93.7H36.936V92.932H35.772V93.7H31.416V97.288C31.416 99.064 31.332 101.548 30.372 103.3C30.588 103.408 31.032 103.744 31.212 103.924C31.824 102.844 32.136 101.44 32.292 100.06L33.012 100.54ZM38.256 98.992C38.784 99.412 39.372 100.024 39.636 100.444L40.38 100.036C40.104 99.604 39.504 99.004 38.964 98.608L38.256 98.992ZM38.304 101.464C37.86 101.776 37.296 102.028 36.672 102.256C36.048 102.04 35.508 101.776 35.088 101.464H38.304ZM39.252 100.78L39.096 100.828H35.736C35.928 100.684 36.096 100.54 36.252 100.384H37.572C38.28 100.384 38.544 100.192 38.616 99.4C38.388 99.364 38.052 99.256 37.872 99.148C37.824 99.64 37.764 99.712 37.452 99.712H35.928C35.496 99.712 35.424 99.676 35.424 99.448V98.8H34.524V99.448C34.524 99.988 34.644 100.228 35.1 100.324C34.428 100.864 33.384 101.404 32.088 101.788C32.28 101.932 32.556 102.232 32.688 102.448C33.24 102.244 33.744 102.028 34.212 101.788C34.572 102.1 34.992 102.376 35.46 102.616C34.38 102.88 33.204 103.048 32.064 103.144C32.22 103.348 32.4 103.708 32.484 103.924C33.888 103.78 35.352 103.528 36.636 103.108C37.896 103.552 39.384 103.816 40.92 103.936C41.028 103.672 41.28 103.276 41.484 103.072C40.236 103 39.012 102.856 37.932 102.604C38.724 102.232 39.408 101.764 39.9 101.2L39.252 100.78ZM45.012 103.708C45.708 103.156 46.104 102.232 46.368 101.392L45.456 101.068C45.24 101.848 44.796 102.664 44.172 103.156L45.012 103.708ZM50.004 97.048H48.72V96.508H50.004V97.048ZM50.004 98.212H48.72V97.648H50.004V98.212ZM50.004 99.4H48.72V98.812H50.004V99.4ZM48.408 94.744C47.988 95.728 47.304 96.736 46.56 97.396C46.776 97.552 47.148 97.864 47.316 98.02C47.472 97.876 47.616 97.708 47.772 97.528V100.12H48.18L47.592 100.672C48.288 101.008 49.152 101.548 49.56 101.956L50.244 101.284C49.836 100.9 49.02 100.42 48.336 100.12H53.208V99.4H50.94V98.812H52.728V98.212H50.94V97.648H52.728V97.048H50.94V96.508H53.028V95.812H51.096C51.24 95.584 51.396 95.332 51.564 95.068L50.556 94.816C50.46 95.092 50.268 95.488 50.1 95.812H48.936C49.092 95.536 49.236 95.248 49.356 94.972L48.504 94.744H53.4V93.808H48.936V92.932H47.772V93.808H43.308V97.348C43.308 99.112 43.236 101.572 42.372 103.3C42.6 103.42 43.044 103.768 43.224 103.96C44.1 102.22 44.304 99.64 44.328 97.756C44.496 97.936 44.676 98.128 44.772 98.248C45.024 98.032 45.276 97.78 45.516 97.504V100.348H46.476V96.256C46.74 95.86 46.98 95.44 47.184 95.02L46.272 94.756C45.828 95.692 45.096 96.64 44.328 97.312V94.744H48.408ZM48.504 102.964C48.048 102.964 47.964 102.928 47.964 102.64V101.152H46.944V102.652C46.944 103.6 47.22 103.864 48.372 103.864H50.124C51 103.864 51.3 103.576 51.408 102.364C51.144 102.304 50.712 102.16 50.508 102.004C50.472 102.856 50.4 102.964 50.028 102.964H48.504ZM50.928 101.356C51.6 102.064 52.308 103.072 52.572 103.744L53.52 103.252C53.208 102.58 52.476 101.62 51.804 100.924L50.928 101.356ZM65.304 97H60.552V96.388H64.152V95.584H60.552V94.972H64.788V94.132H62.496C62.712 93.856 62.94 93.52 63.18 93.172L61.968 92.908C61.824 93.256 61.548 93.772 61.332 94.132H58.668L58.728 94.108C58.584 93.772 58.272 93.268 57.936 92.932L56.964 93.256C57.18 93.52 57.396 93.844 57.54 94.132H55.236V94.972H59.412V95.584H55.872V96.388H59.412V97H54.708V97.876H65.304V97ZM63.54 100.612C63.252 100.984 62.868 101.32 62.412 101.62C62.22 101.308 62.052 100.948 61.92 100.552H65.352V99.7H64.092L64.728 99.004C64.296 98.632 63.444 98.2 62.76 97.948L62.136 98.596C62.82 98.884 63.66 99.352 64.068 99.7H61.668C61.548 99.184 61.476 98.632 61.452 98.044H60.372C60.408 98.62 60.48 99.184 60.588 99.7H58.224V98.92C58.884 98.824 59.508 98.728 60.036 98.596L59.376 97.924C58.32 98.188 56.448 98.392 54.864 98.476C54.972 98.668 55.068 98.98 55.104 99.172C55.752 99.148 56.448 99.1 57.144 99.028V99.7H54.696V100.552H57.144V101.272C56.196 101.344 55.332 101.392 54.648 101.428L54.744 102.292L57.144 102.1V102.88C57.144 103.048 57.096 103.096 56.904 103.096C56.748 103.108 56.112 103.108 55.512 103.072C55.632 103.324 55.776 103.684 55.836 103.948C56.736 103.948 57.324 103.936 57.708 103.804C58.104 103.684 58.224 103.444 58.224 102.904V102.004C58.872 101.956 59.544 101.896 60.204 101.836V101.056C59.544 101.104 58.872 101.152 58.224 101.2V100.552H60.804C60.984 101.14 61.212 101.68 61.488 102.136C60.696 102.532 59.796 102.832 58.908 103.036C59.1 103.24 59.376 103.708 59.484 103.924C60.348 103.66 61.236 103.312 62.04 102.892C62.628 103.552 63.36 103.936 64.176 103.936C65.016 103.936 65.364 103.624 65.532 102.328C65.256 102.256 64.908 102.076 64.692 101.896C64.632 102.664 64.548 102.916 64.236 102.916C63.792 102.928 63.36 102.712 62.964 102.328C63.564 101.92 64.092 101.464 64.488 100.936L63.54 100.612ZM71.952 93.724H69.864V92.932H68.808V93.724H66.648V94.468H71.952V93.724ZM68.1 95.44H70.476V96.004H68.1V95.44ZM71.472 96.58V94.852H67.152V96.58H71.472ZM68.892 99.688C68.892 99.808 68.844 99.856 68.7 99.856C68.556 99.868 68.028 99.868 67.5 99.844C67.596 100.06 67.728 100.336 67.776 100.564C68.544 100.564 69.06 100.564 69.396 100.456C69.756 100.336 69.852 100.168 69.852 99.724V99.016L72.012 98.92L72.036 98.188L70.176 98.26C70.62 97.996 71.1 97.684 71.484 97.372L70.932 96.892L70.728 96.952H67.284V97.612H69.912C69.732 97.744 69.54 97.876 69.372 97.996H68.892V98.308C68.004 98.332 67.2 98.368 66.564 98.38L66.624 99.124C67.272 99.112 68.052 99.076 68.892 99.052V99.688ZM72.528 101.8H76.404V100.912H72.528V100.168H72.288C73.032 99.568 73.524 98.872 73.848 98.14C74.184 98.416 74.484 98.68 74.7 98.908L75.276 98.104C75.012 97.828 74.616 97.504 74.172 97.192C74.328 96.604 74.4 96.016 74.424 95.464H75.372C75.396 98.344 75.54 100.408 76.764 100.408C77.436 100.408 77.604 99.88 77.688 98.572C77.496 98.44 77.244 98.176 77.064 97.948C77.04 98.8 76.992 99.436 76.848 99.436C76.368 99.436 76.356 97.252 76.368 94.48H74.436V93.052H73.476V94.48H72.132V95.464H73.464C73.44 95.836 73.392 96.22 73.308 96.616C73.02 96.424 72.732 96.256 72.456 96.1L71.904 96.808C72.264 97.012 72.648 97.264 73.032 97.54C72.732 98.272 72.252 98.98 71.448 99.58C71.628 99.712 71.88 99.964 72.036 100.168H71.412V100.912H67.716V101.8H71.412V102.724H66.6V103.66H77.4V102.724H72.528V101.8ZM89.268 97.408V96.256H84.432C84.576 95.068 84.588 93.916 84.6 92.944H83.388C83.376 93.904 83.388 95.056 83.244 96.256H78.78V97.408H83.04C82.56 99.58 81.396 101.74 78.54 102.988C78.852 103.228 79.212 103.624 79.392 103.924C82.116 102.64 83.412 100.564 84.024 98.392C84.96 100.936 86.412 102.88 88.656 103.924C88.836 103.588 89.208 103.12 89.484 102.88C87.216 101.932 85.704 99.904 84.888 97.408H89.268ZM92.004 95.86H100.02V97.624H101.124V94.876H99.384C99.756 94.42 100.152 93.892 100.5 93.376L99.324 93.004C99.048 93.568 98.58 94.324 98.16 94.876H96.132L96.72 94.648C96.564 94.168 96.156 93.412 95.748 92.872L94.776 93.232C95.1 93.736 95.448 94.396 95.616 94.876H93.396L93.828 94.672C93.624 94.216 93.144 93.544 92.712 93.064L91.752 93.496C92.1 93.904 92.472 94.444 92.688 94.876H90.96V97.624H92.004V95.86ZM101.304 99.652H96.576V99.496C97.608 98.968 98.664 98.2 99.384 97.432L98.664 96.892L98.424 96.952H92.796V97.924H97.356C96.948 98.248 96.468 98.572 96 98.824H95.436V99.652H90.756V100.684H95.436V102.652C95.436 102.832 95.376 102.88 95.136 102.892C94.896 102.904 94.056 102.904 93.216 102.868C93.384 103.18 93.6 103.636 93.684 103.948C94.728 103.948 95.436 103.936 95.928 103.78C96.42 103.612 96.576 103.3 96.576 102.688V100.684H101.304V99.652ZM113.22 96.604C112.632 96.172 111.228 95.38 110.376 95.008L109.776 95.932C110.58 96.292 111.888 97.048 112.548 97.588L113.22 96.604ZM108.828 94.78C108.288 94.948 107.7 95.092 107.1 95.188C107.28 94.516 107.436 93.856 107.532 93.448L106.224 93.328C106.2 93.952 106.056 94.684 105.876 95.344C105.456 95.38 105.048 95.392 104.652 95.392C104.172 95.392 103.608 95.368 103.14 95.32L103.224 96.424C103.704 96.46 104.196 96.472 104.652 96.472C104.94 96.472 105.216 96.46 105.504 96.448C104.988 97.792 103.992 99.616 103.02 100.78L104.172 101.368C105.144 100.06 106.176 97.984 106.752 96.316C107.544 96.208 108.276 96.052 108.864 95.896L108.828 94.78ZM109.308 101.416C109.308 102.028 109.008 102.532 108.12 102.532C107.304 102.532 106.896 102.184 106.896 101.68C106.896 101.2 107.412 100.852 108.204 100.852C108.588 100.852 108.96 100.9 109.296 100.996C109.308 101.164 109.308 101.296 109.308 101.416ZM109.128 97.132C109.152 97.912 109.212 99.028 109.26 99.964C108.936 99.904 108.612 99.88 108.264 99.88C106.788 99.88 105.78 100.672 105.78 101.788C105.78 103.024 106.896 103.612 108.276 103.612C109.836 103.612 110.448 102.796 110.448 101.788V101.464C111.156 101.848 111.756 102.364 112.224 102.784L112.86 101.764C112.26 101.236 111.42 100.636 110.4 100.264C110.364 99.592 110.328 98.908 110.316 98.524C110.304 98.044 110.292 97.636 110.328 97.132H109.128ZM122.436 95.152C122.172 95.38 121.872 95.56 121.488 95.776C120.876 96.124 119.904 96.604 118.932 97.18C118.44 96.256 117.852 95.044 117.396 93.76L116.208 94.252C116.748 95.524 117.348 96.856 117.9 97.852C116.688 98.716 115.884 99.7 115.884 100.96C115.884 102.856 117.576 103.528 119.868 103.528C121.38 103.528 122.7 103.396 123.648 103.228L123.66 101.872C122.676 102.124 121.08 102.292 119.82 102.292C118.044 102.292 117.156 101.752 117.156 100.816C117.156 99.952 117.816 99.22 118.872 98.536C120 97.792 121.236 97.216 122.016 96.82C122.4 96.616 122.724 96.448 123.036 96.256L122.436 95.152ZM122.472 93.904C122.796 94.372 123.192 95.092 123.432 95.584L124.212 95.236C123.984 94.768 123.552 94.024 123.252 93.58L122.472 93.904ZM123.84 93.4C124.176 93.844 124.572 94.54 124.824 95.056L125.604 94.708C125.388 94.276 124.932 93.52 124.608 93.076L123.84 93.4ZM129.264 101.104C128.784 101.104 128.172 100.48 128.172 99.112C128.172 97.648 129.42 95.788 131.556 95.44C131.436 96.484 131.208 97.564 130.908 98.5C130.356 100.336 129.78 101.104 129.264 101.104ZM132.456 103.396C135.36 102.988 136.956 101.26 136.956 98.776C136.956 96.28 135.144 94.288 132.288 94.288C129.312 94.288 126.972 96.58 126.972 99.22C126.972 101.2 128.052 102.532 129.228 102.532C130.416 102.532 131.4 101.176 132.12 98.752C132.444 97.636 132.66 96.484 132.828 95.416C134.652 95.644 135.684 97 135.684 98.728C135.684 100.648 134.328 101.752 132.804 102.1C132.516 102.172 132.168 102.232 131.748 102.268L132.456 103.396Z" fill="#768486"/>
<path d="M32.672 117.48H43.36V119.832H44.832V116.168H42.512C43.008 115.56 43.536 114.856 44 114.168L42.432 113.672C42.064 114.424 41.44 115.432 40.88 116.168H38.176L38.96 115.864C38.752 115.224 38.208 114.216 37.664 113.496L36.368 113.976C36.8 114.648 37.264 115.528 37.488 116.168H34.528L35.104 115.896C34.832 115.288 34.192 114.392 33.616 113.752L32.336 114.328C32.8 114.872 33.296 115.592 33.584 116.168H31.28V119.832H32.672V117.48ZM45.072 122.536H38.768V122.328C40.144 121.624 41.552 120.6 42.512 119.576L41.552 118.856L41.232 118.936H33.728V120.232H39.808C39.264 120.664 38.624 121.096 38 121.432H37.248V122.536H31.008V123.912H37.248V126.536C37.248 126.776 37.168 126.84 36.848 126.856C36.528 126.872 35.408 126.872 34.288 126.824C34.512 127.24 34.8 127.848 34.912 128.264C36.304 128.264 37.248 128.248 37.904 128.04C38.56 127.816 38.768 127.4 38.768 126.584V123.912H45.072V122.536ZM54.8 126.328V122.648H59.776V121.224H54.8V118.024H60.368V116.568H54.8V113.592H53.264V116.568H50.368C50.672 115.8 50.96 114.984 51.2 114.168L49.664 113.816C49.072 116.056 48.064 118.248 46.768 119.608C47.168 119.816 47.824 120.248 48.128 120.504C48.688 119.832 49.216 118.984 49.712 118.024H53.264V121.224H48.704V122.648H53.264V126.328H46.928V127.768H61.136V126.328H54.8ZM72.16 124.504C71.904 125.144 71.504 125.992 71.168 126.536L71.664 126.664H68.144L68.784 126.488C68.64 125.912 68.272 125.128 67.872 124.504H72.16ZM66.976 121.512H72.96V123.304H66.976V121.512ZM72.944 124.504H74.48V120.296H65.536V124.504H67.328L66.448 124.744C66.784 125.32 67.12 126.088 67.28 126.664H63.168V127.912H76.896V126.664H72.592C72.912 126.12 73.296 125.4 73.648 124.68L72.944 124.504ZM75.904 115.56C75.408 116.12 74.624 116.808 73.904 117.352C73.568 117.032 73.248 116.696 72.96 116.344C73.696 115.832 74.544 115.144 75.248 114.52L74.128 113.72C73.68 114.232 72.944 114.888 72.272 115.432C71.872 114.856 71.536 114.248 71.264 113.624L70 114.008C70.624 115.448 71.456 116.76 72.464 117.896H67.664C68.512 116.936 69.216 115.832 69.68 114.6L68.72 114.104L68.464 114.168H64.096V115.4H67.744C67.36 116.072 66.864 116.728 66.304 117.32C65.84 116.84 65.024 116.248 64.32 115.848L63.52 116.664C64.176 117.08 64.944 117.672 65.424 118.168C64.496 118.968 63.456 119.64 62.448 120.056C62.736 120.312 63.152 120.824 63.328 121.128C64.64 120.52 65.952 119.64 67.072 118.52V119.176H72.928V118.392C73.984 119.464 75.184 120.328 76.512 120.936C76.72 120.552 77.168 119.992 77.504 119.704C76.528 119.336 75.616 118.792 74.768 118.12C75.504 117.608 76.336 116.952 77.008 116.344L75.904 115.56ZM80.256 117.496C81.024 116.632 81.616 115.736 82.064 114.968C82.864 115.736 83.728 116.808 84.176 117.496H80.256ZM87.648 123.896C86.56 124.616 85.488 125.32 84.688 125.816L84.656 125.384L82.576 125.784V121.512H84.736V120.216H82.576V118.76H84.336V117.496H84.208L85.168 116.376C84.608 115.576 83.44 114.392 82.496 113.576H81.232C80.72 114.824 79.728 116.392 78.336 117.576C78.608 117.768 79.056 118.216 79.248 118.52C79.424 118.36 79.584 118.2 79.744 118.056V118.76H81.28V120.216H78.944V121.512H81.28V126.024C80.336 126.2 79.472 126.36 78.768 126.472L79.072 127.832C80.672 127.512 82.768 127.064 84.768 126.632L84.752 126.504L85.136 127.176C86.064 126.536 87.12 125.768 88.096 125.016L87.648 123.896ZM79.216 122.488C79.488 123.4 79.728 124.616 79.76 125.4L80.816 125.128C80.752 124.344 80.496 123.176 80.192 122.232L79.216 122.488ZM83.92 125.112C84.16 124.392 84.448 123.32 84.72 122.392L83.6 122.104C83.488 122.904 83.216 124.104 82.976 124.856L83.92 125.112ZM85.056 121.48C85.696 122.12 86.4 123.016 86.688 123.624L87.76 122.904C87.44 122.312 86.704 121.448 86.048 120.84L85.056 121.48ZM91.296 123.416C91.888 122.872 92.64 122.072 93.28 121.32L92.112 120.584C91.712 121.224 91.008 122.12 90.432 122.696C90.08 121.976 89.824 121.224 89.632 120.536V120.136H93.296V118.856H92.048V114.168H85.632V115.416H90.672V116.552H85.952V117.72H90.672V118.856H84.816V120.136H88.256V126.744C88.256 126.92 88.208 126.968 88.032 126.984C87.872 126.984 87.36 126.984 86.832 126.968C86.992 127.336 87.168 127.896 87.2 128.264C88.064 128.264 88.688 128.248 89.104 128.04C89.536 127.816 89.632 127.448 89.632 126.776V123.704C90.288 125.08 91.264 126.488 92.656 127.352C92.864 126.984 93.328 126.408 93.616 126.136C92.208 125.416 91.216 124.2 90.544 122.904L91.296 123.416ZM104.544 116.088C103.888 116.904 103.024 117.64 102.048 118.264C101.456 117.768 100.432 117.128 99.488 116.648C99.776 116.472 100.064 116.28 100.32 116.088H104.544ZM105.76 114.776L105.52 114.84H101.84C102.16 114.536 102.464 114.216 102.752 113.896L101.104 113.528C100.032 114.856 97.984 116.296 95.168 117.24C95.488 117.48 95.952 117.992 96.16 118.344C96.912 118.04 97.6 117.72 98.24 117.384C99.12 117.848 100.112 118.472 100.752 119.016C98.992 119.912 96.992 120.552 95.04 120.888C95.296 121.192 95.6 121.784 95.728 122.168C100.08 121.24 104.688 119.096 106.72 115.352L105.76 114.776ZM106.864 121.752C106.224 122.808 105.328 123.672 104.272 124.376C103.616 123.768 102.496 123.032 101.52 122.488C101.92 122.248 102.288 122.008 102.656 121.752H106.864ZM107.968 120.408L107.712 120.472H104.24C104.64 120.104 104.992 119.736 105.328 119.352L103.68 118.968C102.448 120.488 100.096 122.072 96.784 123.096C97.088 123.352 97.52 123.912 97.68 124.248C98.576 123.928 99.408 123.576 100.176 123.208C101.136 123.736 102.24 124.52 102.928 125.144C100.992 126.104 98.688 126.648 96.272 126.92C96.528 127.256 96.816 127.88 96.912 128.28C102.208 127.528 106.992 125.592 108.96 120.936L107.968 120.408ZM116.912 113.832C116.656 114.456 116.16 115.336 115.776 115.896L116.768 116.344C117.168 115.848 117.68 115.08 118.192 114.36L116.912 113.832ZM122.864 117.864C122.624 119.592 122.256 121.096 121.712 122.376C121.152 121.032 120.768 119.496 120.48 117.864H122.864ZM115.776 123.16C115.584 123.896 115.328 124.504 114.944 125C114.4 124.728 113.824 124.488 113.264 124.264C113.456 123.912 113.648 123.528 113.856 123.16H115.776ZM125.344 117.864V116.456H120.88C121.104 115.592 121.28 114.696 121.44 113.784L119.936 113.56C119.52 116.376 118.704 119.064 117.376 120.728C117.712 120.968 118.336 121.496 118.56 121.768C118.928 121.288 119.248 120.728 119.552 120.136C119.888 121.544 120.288 122.84 120.832 123.976C120.064 125.08 119.088 125.976 117.808 126.664C117.36 126.344 116.8 125.992 116.192 125.656C116.672 124.984 116.992 124.152 117.2 123.16H118.512V121.928H114.48C114.64 121.592 114.8 121.272 114.944 120.968L114.512 120.872H115.312V118.68C116.032 119.224 116.88 119.896 117.264 120.264L118.064 119.224C117.664 118.936 116.112 117.976 115.392 117.576H118.448V116.376H115.312V113.56H113.936V116.376H112.336L113.392 115.912C113.232 115.352 112.816 114.52 112.368 113.912L111.296 114.36C111.68 114.984 112.08 115.816 112.208 116.376H110.768V117.576H113.536C112.768 118.536 111.616 119.432 110.544 119.864C110.816 120.152 111.152 120.648 111.328 120.984C112.224 120.472 113.168 119.72 113.936 118.888V120.744L113.552 120.664C113.376 121.064 113.184 121.496 112.96 121.928H110.64V123.16H112.352C111.92 123.96 111.504 124.728 111.152 125.32L112.448 125.72L112.656 125.352C113.088 125.544 113.504 125.752 113.92 125.96C113.136 126.488 112.08 126.824 110.688 127.032C110.96 127.32 111.232 127.864 111.328 128.264C113.024 127.912 114.288 127.416 115.216 126.68C115.92 127.096 116.544 127.512 116.992 127.912L117.52 127.368C117.744 127.688 117.968 128.072 118.08 128.312C119.552 127.56 120.72 126.616 121.632 125.448C122.384 126.616 123.312 127.56 124.464 128.248C124.688 127.832 125.168 127.256 125.504 126.968C124.272 126.328 123.296 125.32 122.544 124.056C123.472 122.392 124.032 120.344 124.4 117.864H125.344Z" fill="#5FBBB8"/>
<defs>
<filter id="filter0_d" x="10" y="10" width="180" height="140" filterUnits="userSpaceOnUse" color-interpolation-filters="sRGB">
<feFlood flood-opacity="0" result="BackgroundImageFix"/>
<feColorMatrix in="SourceAlpha" type="matrix" values="0 0 0 0 0 0 0 0 0 0 0 0 0 0 0 0 0 0 127 0"/>
<feOffset/>
<feGaussianBlur stdDeviation="5"/>
<feColorMatrix type="matrix" values="0 0 0 0 0 0 0 0 0 0 0 0 0 0 0 0 0 0 0.04 0"/>
<feBlend mode="normal" in2="BackgroundImageFix" result="effect1_dropShadow"/>
<feBlend mode="normal" in="SourceGraphic" in2="effect1_dropShadow" result="shape"/>
</filter>
</defs>
</svg>
