<svg width="320" height="160" viewBox="0 0 320 160" fill="none" xmlns="http://www.w3.org/2000/svg">
<rect width="320" height="160" rx="4" fill="#EAEDED"/>
<path d="M271 72.039C271 88.4026 250 111 250 111C250 111 229 88.4026 229 72.039C229 66.4591 231.212 61.1077 235.151 57.1622C239.089 53.2166 244.43 51 250 51C255.57 51 260.911 53.2166 264.849 57.1622C268.788 61.1077 271 66.4591 271 72.039Z" stroke="#768486" stroke-width="4" stroke-linecap="round" stroke-linejoin="round"/>
<path d="M250 81C254.971 81 259 76.9706 259 72C259 67.0294 254.971 63 250 63C245.029 63 241 67.0294 241 72C241 76.9706 245.029 81 250 81Z" fill="#5FBBB8"/>
<g filter="url(#filter0_d)">
<rect x="20" y="20" width="160" height="120" rx="2" fill="white"/>
<rect x="20.5" y="20.5" width="159" height="119" rx="1.5" stroke="#E4E7E7"/>
</g>
<path d="M20 50H180" stroke="#E4E7E7"/>
<path d="M20 80H180" stroke="#E4E7E7"/>
<path d="M20 110H180" stroke="#E4E7E7"/>
<path d="M32.916 35.524H35.388V36.496H32.916V35.524ZM32.916 33.76H35.388V34.72H32.916V33.76ZM39.168 33.76V34.72H36.552V33.76H39.168ZM39.168 36.496H36.552V35.524H39.168V36.496ZM40.296 37.348V32.908H36.552V32.032H41.244V31H36.552V29.932H35.388V31H30.804V32.032H35.388V32.908H31.824V37.348H34.524C33.492 38.392 31.932 39.328 30.492 39.844C30.744 40.072 31.08 40.492 31.26 40.78C32.724 40.18 34.272 39.124 35.388 37.912V40.936H36.552V37.864C37.68 39.1 39.276 40.192 40.752 40.792C40.932 40.504 41.28 40.06 41.556 39.832C40.08 39.34 38.484 38.392 37.428 37.348H40.296ZM52.188 38.692V37.792H49.692V36.76H51.96V35.884H50.82C51.024 35.464 51.228 34.984 51.432 34.516L50.424 34.288C50.304 34.744 50.052 35.404 49.848 35.884H47.88L48.516 35.692C48.408 35.32 48.156 34.744 47.892 34.324L47.016 34.552C47.244 34.948 47.484 35.488 47.58 35.884H46.476V36.76H48.636V37.792H46.224V38.692H48.636V40.66H49.692V38.692H52.188ZM54.444 32.092V31.048H49.824C49.872 30.712 49.92 30.376 49.956 30.052L48.732 29.932C48.72 30.268 48.696 30.652 48.66 31.048H43.956V32.092H48.552C48.516 32.476 48.456 32.86 48.42 33.184H44.52V40.924H45.636V34.216H52.764V39.724C52.764 39.916 52.704 39.976 52.488 39.976C52.284 39.988 51.552 40 50.868 39.964C51.024 40.228 51.192 40.648 51.264 40.924C52.212 40.924 52.908 40.924 53.328 40.756C53.748 40.6 53.904 40.324 53.904 39.724V33.184H49.5C49.56 32.848 49.62 32.476 49.668 32.092H54.444ZM61.488 33.484C61.548 33.832 61.56 34.12 61.56 34.444C61.56 36.436 61.284 37.948 59.568 39.052C59.184 39.328 58.764 39.52 58.416 39.64L59.52 40.54C62.676 38.92 62.856 36.616 62.856 33.484H61.488ZM66.948 31.18C66.756 31.228 66.216 31.264 65.94 31.264H59.232C58.764 31.264 58.272 31.216 57.828 31.156V32.488C58.344 32.452 58.764 32.416 59.232 32.416H65.82C65.472 33.1 64.416 34.288 63.372 34.9L64.368 35.704C65.652 34.792 66.792 33.268 67.308 32.392C67.404 32.248 67.596 32.02 67.704 31.888L66.948 31.18ZM77.7835 30.928L76.9675 31.276C77.3875 31.852 77.7235 32.476 78.0475 33.16L78.8875 32.788C78.6115 32.236 78.0955 31.396 77.7835 30.928ZM79.3915 30.352L78.5635 30.7C78.9835 31.264 79.3555 31.864 79.6915 32.548L80.5315 32.176C80.2315 31.624 79.7275 30.796 79.3915 30.352ZM72.6235 30.736L71.9395 31.768C72.6715 32.188 73.9555 33.028 74.5675 33.472L75.2875 32.44C74.7115 32.032 73.3675 31.144 72.6235 30.736ZM70.6315 39.28L71.3395 40.516C72.4315 40.312 74.1115 39.736 75.3235 39.028C77.2675 37.9 78.9355 36.364 80.0155 34.732L79.2835 33.46C78.3235 35.164 76.6915 36.772 74.6875 37.912C73.4275 38.608 71.9635 39.052 70.6315 39.28ZM70.7995 33.448L70.1155 34.48C70.8715 34.888 72.1555 35.704 72.7795 36.16L73.4755 35.092C72.9115 34.696 71.5435 33.856 70.7995 33.448ZM87.4075 33.484C87.4675 33.832 87.4795 34.12 87.4795 34.444C87.4795 36.436 87.2035 37.948 85.4875 39.052C85.1035 39.328 84.6835 39.52 84.3355 39.64L85.4395 40.54C88.5955 38.92 88.7755 36.616 88.7755 33.484H87.4075ZM92.8675 31.18C92.6755 31.228 92.1355 31.264 91.8595 31.264H85.1515C84.6835 31.264 84.1915 31.216 83.7475 31.156V32.488C84.2635 32.452 84.6835 32.416 85.1515 32.416H91.7395C91.3915 33.1 90.3355 34.288 89.2915 34.9L90.2875 35.704C91.5715 34.792 92.7115 33.268 93.2275 32.392C93.3235 32.248 93.5155 32.02 93.6235 31.888L92.8675 31.18Z" fill="#768486"/>
<path d="M139.893 36.352C139.893 38 138.805 38.672 137.637 38.672C136.373 38.672 135.477 37.984 135.477 36.272H133.925C133.925 38.576 135.461 40.176 137.685 40.176C139.909 40.176 141.461 38.656 141.461 36.352V35.856C141.461 33.552 140.021 32.304 138.117 32.304C137.109 32.304 136.261 32.784 135.909 33.216L136.453 30.24H140.837V28.72H135.173L134.133 34.608L135.621 34.944C136.069 34.16 136.709 33.76 137.669 33.76C138.837 33.76 139.893 34.528 139.893 35.856V36.352ZM142.904 37.28H148.104V40H149.624V37.28H151.08V35.824H149.624V28.72H148.152L142.904 35.824V37.28ZM144.488 35.824L148.104 30.928V35.824H144.488ZM165.989 40.128C167.989 40.128 169.205 38.768 169.205 36.56V35.904C169.205 33.76 167.989 32.368 165.989 32.368C163.957 32.368 162.789 33.76 162.789 35.904V36.56C162.789 38.768 163.957 40.128 165.989 40.128ZM165.989 38.768C164.885 38.768 164.213 38.08 164.213 36.576V35.904C164.213 34.48 164.885 33.728 165.989 33.728C167.093 33.728 167.781 34.48 167.781 35.904V36.576C167.781 38.08 167.077 38.768 165.989 38.768ZM155.797 36.32C157.797 36.32 158.997 34.944 158.997 32.736V32.096C158.997 29.952 157.797 28.56 155.797 28.56C153.765 28.56 152.597 29.952 152.597 32.096V32.736C152.597 34.944 153.765 36.32 155.797 36.32ZM155.797 34.96C154.661 34.96 154.021 34.24 154.021 32.768V32.096C154.021 30.64 154.661 29.92 155.797 29.92C156.901 29.92 157.573 30.64 157.573 32.096V32.768C157.573 34.24 156.901 34.96 155.797 34.96ZM161.781 27.856L158.533 40.816H159.973L163.237 27.856H161.781Z" fill="#5FBBB8"/>
<path d="M36.552 66.028V63.124H39.672V66.028H36.552ZM32.28 66.028V63.124H35.388V66.028H32.28ZM36.552 62.032V59.944H35.388V62.032H31.164V67.828H32.28V67.12H35.388V70.936H36.552V67.12H39.672V67.768H40.836V62.032H36.552ZM51.336 67.48L52.068 67.036C51.84 66.7 51.36 66.16 50.952 65.788L50.244 66.172C50.64 66.568 51.096 67.108 51.312 67.48H49.656V65.704H51.9V64.756H49.656V63.304H52.164V62.32H46.176V63.304H48.612V64.756H46.488V65.704H48.612V67.48H46.008V68.404H52.404V67.48H51.336ZM45.36 69.328V61.48H52.968V69.328H45.36ZM44.232 60.448V70.948H45.36V70.36H52.968V70.948H54.156V60.448H44.232Z" fill="#768486"/>
<path d="M140.013 70H141.581V58.72H140.125C140.125 59.536 139.885 59.808 138.669 59.808V61.328C139.261 61.328 139.693 61.264 140.013 61.008V70ZM150.717 70V68.48H145.069C145.181 65.648 150.909 66.288 150.909 62.08C150.909 59.968 149.373 58.512 147.181 58.512C145.037 58.512 143.501 60.016 143.501 62.288H145.037C145.037 61.008 145.693 60.016 147.197 60.016C148.445 60.016 149.357 60.784 149.357 62.096C149.357 65.376 143.501 64.528 143.501 68.816V70H150.717ZM165.989 70.128C167.989 70.128 169.205 68.768 169.205 66.56V65.904C169.205 63.76 167.989 62.368 165.989 62.368C163.957 62.368 162.789 63.76 162.789 65.904V66.56C162.789 68.768 163.957 70.128 165.989 70.128ZM165.989 68.768C164.885 68.768 164.213 68.08 164.213 66.576V65.904C164.213 64.48 164.885 63.728 165.989 63.728C167.093 63.728 167.781 64.48 167.781 65.904V66.576C167.781 68.08 167.077 68.768 165.989 68.768ZM155.797 66.32C157.797 66.32 158.997 64.944 158.997 62.736V62.096C158.997 59.952 157.797 58.56 155.797 58.56C153.765 58.56 152.597 59.952 152.597 62.096V62.736C152.597 64.944 153.765 66.32 155.797 66.32ZM155.797 64.96C154.661 64.96 154.021 64.24 154.021 62.768V62.096C154.021 60.64 154.661 59.92 155.797 59.92C156.901 59.92 157.573 60.64 157.573 62.096V62.768C157.573 64.24 156.901 64.96 155.797 64.96ZM161.781 57.856L158.533 70.816H159.973L163.237 57.856H161.781Z" fill="#5FBBB8"/>
<path d="M33.084 120.964L33.144 122.188C33.444 122.152 33.816 122.116 34.128 122.092C34.62 122.056 36.42 121.96 36.936 121.924C36.18 122.584 34.452 124.096 33.264 124.9C32.652 124.972 31.848 125.08 31.2 125.152L31.308 126.292C32.628 126.064 34.104 125.884 35.292 125.788C34.752 126.172 34.14 126.976 34.14 127.864C34.14 129.748 35.808 130.672 38.772 130.54L39.012 129.304C38.58 129.34 37.944 129.352 37.272 129.28C36.192 129.136 35.328 128.752 35.328 127.672C35.328 126.616 36.372 125.74 37.488 125.572C38.208 125.476 39.372 125.464 40.524 125.536L40.512 124.42C38.928 124.42 36.864 124.564 35.148 124.744C36.048 124.036 37.524 122.8 38.388 122.092C38.592 121.924 38.952 121.684 39.156 121.564L38.4 120.688C38.244 120.748 38.004 120.796 37.68 120.82C36.972 120.904 34.62 121.012 34.116 121.012C33.732 121.012 33.408 121 33.084 120.964ZM46.464 128.104C45.984 128.104 45.372 127.48 45.372 126.112C45.372 124.648 46.62 122.788 48.756 122.44C48.636 123.484 48.408 124.564 48.108 125.5C47.556 127.336 46.98 128.104 46.464 128.104ZM49.656 130.396C52.56 129.988 54.156 128.26 54.156 125.776C54.156 123.28 52.344 121.288 49.488 121.288C46.512 121.288 44.172 123.58 44.172 126.22C44.172 128.2 45.252 129.532 46.428 129.532C47.616 129.532 48.6 128.176 49.32 125.752C49.644 124.636 49.86 123.484 50.028 122.416C51.852 122.644 52.884 124 52.884 125.728C52.884 127.648 51.528 128.752 50.004 129.1C49.716 129.172 49.368 129.232 48.948 129.268L49.656 130.396ZM59.508 119.98C58.86 121.732 57.792 123.484 56.664 124.6C56.844 124.864 57.168 125.452 57.276 125.716C57.612 125.356 57.948 124.948 58.272 124.504V130.936H59.364V122.788C59.808 121.984 60.216 121.132 60.528 120.304L59.508 119.98ZM63.216 129.784C62.4 129.784 62.256 129.64 62.256 128.944V124.9L63.756 124.324V128.224H64.812V123.904L66.396 123.292C66.384 125.032 66.36 126.052 66.288 126.34C66.228 126.604 66.12 126.652 65.94 126.652C65.784 126.652 65.4 126.652 65.1 126.64C65.232 126.892 65.34 127.36 65.364 127.66C65.736 127.672 66.276 127.66 66.636 127.54C67.008 127.42 67.236 127.156 67.308 126.592C67.404 126.088 67.428 124.492 67.44 122.356L67.488 122.188L66.72 121.876L66.516 122.032L66.348 122.164L64.812 122.764V119.968H63.756V123.172L62.256 123.748V121.18H61.152V124.18L59.664 124.756L60.108 125.752L61.152 125.332V128.932C61.152 130.396 61.596 130.78 63.144 130.78H66.06C67.452 130.78 67.776 130.228 67.956 128.524C67.644 128.464 67.2 128.26 66.924 128.08C66.828 129.46 66.696 129.784 65.988 129.784H63.216Z" fill="#768486"/>
<path d="M141.577 130V128.48H135.929C136.041 125.648 141.769 126.288 141.769 122.08C141.769 119.968 140.233 118.512 138.041 118.512C135.897 118.512 134.361 120.016 134.361 122.288H135.897C135.897 121.008 136.553 120.016 138.057 120.016C139.305 120.016 140.217 120.784 140.217 122.096C140.217 125.376 134.361 124.528 134.361 128.816V130H141.577ZM147.216 130.192C149.44 130.192 151.072 129.024 151.072 127.024C151.072 125.792 150.528 124.8 149.344 124.416C150.352 124.016 150.88 123.12 150.88 121.808C150.88 119.824 149.36 118.72 147.216 118.72C145.056 118.72 143.568 119.824 143.568 121.792C143.568 123.168 144.096 124 145.136 124.432C144 124.816 143.376 125.76 143.376 127.024C143.376 129.024 144.944 130.192 147.216 130.192ZM146.864 125.008C146.864 125.008 146.88 125.008 147.664 125.008C148.832 125.008 149.472 125.68 149.472 126.832C149.472 128.272 148.448 128.752 147.216 128.752C145.968 128.752 144.976 128.272 144.976 126.88C144.976 125.6 145.728 125.008 146.864 125.008ZM145.088 122C145.088 120.656 146 120.16 147.216 120.16C148.432 120.16 149.344 120.656 149.344 122.016C149.344 123.344 148.56 123.776 147.216 123.776C145.936 123.776 145.088 123.408 145.088 122ZM165.989 130.128C167.989 130.128 169.205 128.768 169.205 126.56V125.904C169.205 123.76 167.989 122.368 165.989 122.368C163.957 122.368 162.789 123.76 162.789 125.904V126.56C162.789 128.768 163.957 130.128 165.989 130.128ZM165.989 128.768C164.885 128.768 164.213 128.08 164.213 126.576V125.904C164.213 124.48 164.885 123.728 165.989 123.728C167.093 123.728 167.781 124.48 167.781 125.904V126.576C167.781 128.08 167.077 128.768 165.989 128.768ZM155.797 126.32C157.797 126.32 158.997 124.944 158.997 122.736V122.096C158.997 119.952 157.797 118.56 155.797 118.56C153.765 118.56 152.597 119.952 152.597 122.096V122.736C152.597 124.944 153.765 126.32 155.797 126.32ZM155.797 124.96C154.661 124.96 154.021 124.24 154.021 122.768V122.096C154.021 120.64 154.661 119.92 155.797 119.92C156.901 119.92 157.573 120.64 157.573 122.096V122.768C157.573 124.24 156.901 124.96 155.797 124.96ZM161.781 117.856L158.533 130.816H159.973L163.237 117.856H161.781Z" fill="#5FBBB8"/>
<path d="M33.192 98.908V95.86H38.844V98.908H33.192ZM38.844 91.828V94.756H33.192V91.828H38.844ZM32.052 90.7V100.816H33.192V100.036H38.844V100.768H40.032V90.7H32.052ZM54.42 93.484V92.356H49.776V89.932H48.6V92.356H44.004V93.484H47.928C46.944 95.44 45.324 97.276 43.584 98.2C43.824 98.428 44.196 98.848 44.376 99.124C46.056 98.116 47.544 96.436 48.6 94.492V97.684H46.404V98.812H48.6V100.936H49.776V98.812H51.924V97.684H49.776V94.48C50.832 96.424 52.308 98.116 54.024 99.088C54.204 98.788 54.6 98.332 54.864 98.104C53.064 97.192 51.432 95.416 50.46 93.484H54.42Z" fill="#768486"/>
<path d="M147.323 100.176C149.595 100.176 151.083 98.624 151.083 96.288V95.664C151.083 93.488 149.819 92.016 147.659 92.016C147.195 92.016 146.747 92.08 146.347 92.224L148.395 88.72H146.699L144.555 92.464C144.011 93.424 143.579 94.368 143.579 95.872V96.288C143.579 98.624 145.019 100.176 147.323 100.176ZM147.323 98.656C145.995 98.656 145.147 97.952 145.147 96.192V95.616C145.147 94.064 146.011 93.312 147.323 93.312C148.619 93.312 149.515 94.064 149.515 95.616V96.192C149.515 97.952 148.603 98.656 147.323 98.656ZM165.989 100.128C167.989 100.128 169.205 98.768 169.205 96.56V95.904C169.205 93.76 167.989 92.368 165.989 92.368C163.957 92.368 162.789 93.76 162.789 95.904V96.56C162.789 98.768 163.957 100.128 165.989 100.128ZM165.989 98.768C164.885 98.768 164.213 98.08 164.213 96.576V95.904C164.213 94.48 164.885 93.728 165.989 93.728C167.093 93.728 167.781 94.48 167.781 95.904V96.576C167.781 98.08 167.077 98.768 165.989 98.768ZM155.797 96.32C157.797 96.32 158.997 94.944 158.997 92.736V92.096C158.997 89.952 157.797 88.56 155.797 88.56C153.765 88.56 152.597 89.952 152.597 92.096V92.736C152.597 94.944 153.765 96.32 155.797 96.32ZM155.797 94.96C154.661 94.96 154.021 94.24 154.021 92.768V92.096C154.021 90.64 154.661 89.92 155.797 89.92C156.901 89.92 157.573 90.64 157.573 92.096V92.768C157.573 94.24 156.901 94.96 155.797 94.96ZM161.781 87.856L158.533 100.816H159.973L163.237 87.856H161.781Z" fill="#5FBBB8"/>
<defs>
<filter id="filter0_d" x="10" y="10" width="180" height="140" filterUnits="userSpaceOnUse" color-interpolation-filters="sRGB">
<feFlood flood-opacity="0" result="BackgroundImageFix"/>
<feColorMatrix in="SourceAlpha" type="matrix" values="0 0 0 0 0 0 0 0 0 0 0 0 0 0 0 0 0 0 127 0"/>
<feOffset/>
<feGaussianBlur stdDeviation="5"/>
<feColorMatrix type="matrix" values="0 0 0 0 0 0 0 0 0 0 0 0 0 0 0 0 0 0 0.04 0"/>
<feBlend mode="normal" in2="BackgroundImageFix" result="effect1_dropShadow"/>
<feBlend mode="normal" in="SourceGraphic" in2="effect1_dropShadow" result="shape"/>
</filter>
</defs>
</svg>
