<svg width="184" height="38" viewBox="0 0 184 38" fill="none" xmlns="http://www.w3.org/2000/svg">
<path fill-rule="evenodd" clip-rule="evenodd" d="M25.6543 23.3687C25.6543 23.3687 28.4625 21.8136 30.3641 20.6825C32.2658 19.5515 34.5279 17.4641 35.049 14.8528C35.5702 12.2414 35.3096 9.11168 32.9616 8.7624C32.1688 8.64597 31.2568 8.89546 30.3641 9.37504C30.3641 9.37504 30.9463 15.1438 25.6543 17.8245V23.3687Z" fill="#FE8C00"/>
<path d="M25.6573 23.7596C25.588 23.7596 25.5187 23.7402 25.4577 23.7042C25.3385 23.6349 25.2637 23.5046 25.2637 23.366V17.8245C25.2637 17.6776 25.3468 17.5417 25.4799 17.4752C30.4753 14.9442 29.9818 9.46929 29.9763 9.41385C29.9597 9.25583 30.04 9.10337 30.1814 9.02852C31.2071 8.47687 32.1884 8.24955 33.0229 8.37153C33.799 8.48796 34.4228 8.87051 34.8746 9.51364C35.6785 10.6558 35.8892 12.6794 35.4401 14.9276C34.7693 18.2902 31.5425 20.4386 30.5695 21.018C28.6845 22.1379 25.8763 23.6958 25.8486 23.7097C25.7904 23.7457 25.7238 23.7596 25.6573 23.7596ZM26.051 18.0629V22.6979C26.9768 22.1823 28.812 21.1483 30.1676 20.3416C31.0685 19.8038 34.0596 17.8189 34.6695 14.7724C35.077 12.7293 34.9134 10.933 34.2315 9.96273C33.9044 9.49701 33.4719 9.23089 32.9064 9.14772C32.2966 9.05901 31.5619 9.21702 30.7719 9.60512C30.8079 10.7999 30.6416 15.5957 26.051 18.0629Z" fill="#312F30"/>
<path fill-rule="evenodd" clip-rule="evenodd" d="M38.3619 5.54116C36.2745 2.75795 32.7067 2.5833 29.4883 4.23549C26.2699 5.88768 24.1797 8.7596 22.3528 11.8062C20.526 14.8527 20.3652 20.5079 20.3652 20.5079V26.3376V32.1674V37.6091L25.6572 34.5653V29.1236C27.6337 27.9871 29.7877 26.7451 31.3983 25.8137C35.3125 23.5517 37.4887 21.3755 39.3155 17.2007C41.1451 13.0259 40.4493 8.32715 38.3619 5.54116ZM35.0547 14.8527C34.5336 17.4641 32.2715 19.5515 30.3698 20.6825C29.5576 21.1649 27.6171 22.2654 25.66 23.3687V17.8245C25.66 17.8245 25.4854 16.5049 26.3558 13.8936C27.2262 11.2822 30.6193 8.41308 32.9673 8.7596C35.3153 9.10889 35.5759 12.2414 35.0547 14.8527Z" fill="#AA076B"/>
<path d="M20.3643 38C20.295 38 20.2285 37.9834 20.1675 37.9473C20.0456 37.878 19.9707 37.7477 19.9707 37.6063V20.5079C19.9762 20.2612 20.1537 14.703 22.0138 11.6066C23.8018 8.62377 25.9252 5.6271 29.3044 3.88898C32.947 2.0178 36.6229 2.57499 38.6715 5.30831C41.0056 8.41863 41.4186 13.3752 39.675 17.3615C37.8897 21.4393 35.7774 23.7402 31.5942 26.1575C30.0363 27.0584 27.9711 28.2477 26.0472 29.3537V34.5681C26.0472 34.7095 25.9724 34.8398 25.8504 34.9091L20.5584 37.9529C20.5002 37.9834 20.4336 38 20.3643 38ZM33.5403 3.56187C32.3233 3.56187 31.0038 3.90007 29.6648 4.58756C26.4602 6.23143 24.4172 9.12553 22.6874 12.0085C20.9354 14.9304 20.758 20.4635 20.758 20.519V36.93L25.2655 34.338V29.1236C25.2655 28.9823 25.3403 28.852 25.4623 28.7827C27.4388 27.6461 29.5928 26.4042 31.2034 25.4728C35.2202 23.1525 37.2494 20.9459 38.957 17.0427C40.5925 13.3059 40.2183 8.67367 38.045 5.7768C36.9472 4.31312 35.356 3.56187 33.5403 3.56187ZM25.6563 23.7596C25.587 23.7596 25.5205 23.743 25.4567 23.7069C25.3375 23.6376 25.2627 23.5073 25.2627 23.3687V17.8466C25.2405 17.6249 25.1518 16.2554 25.9779 13.7716C27.0618 10.5227 30.818 8.0444 33.0219 8.37428C33.7981 8.49071 34.4218 8.87326 34.8737 9.5164C35.6776 10.6585 35.8882 12.6822 35.4392 14.9331C34.7655 18.2957 31.5416 20.4441 30.5685 21.0235C29.6925 21.5447 27.5192 22.7755 25.8504 23.7152C25.7894 23.743 25.7229 23.7596 25.6563 23.7596ZM32.5728 9.12553C30.5325 9.12553 27.5386 11.5789 26.7264 14.0183C25.9031 16.4855 26.0444 17.7635 26.0472 17.7746C26.05 17.7912 26.05 17.8078 26.05 17.8245V22.6951C28.1208 21.528 29.5373 20.7186 30.1666 20.3443C31.0675 19.8065 34.0586 17.8217 34.6685 14.7751C35.076 12.7321 34.9125 10.9357 34.2305 9.96548C33.9034 9.49976 33.471 9.23364 32.9054 9.15048C32.8001 9.13384 32.6892 9.12553 32.5728 9.12553Z" fill="#312F30"/>
<path d="M7.7622 29.2401C8.66314 29.4286 9.55576 29.2012 10.3846 28.7438C10.3846 28.7383 10.2322 27.89 10.4733 26.5511L5.56113 23.8178C5.55836 23.8178 4.77662 28.6108 7.7622 29.2401Z" fill="#EC008C"/>
<path d="M8.41364 29.7002C8.16692 29.7002 7.92297 29.6753 7.68457 29.6254C6.28742 29.3315 5.4142 28.1977 5.15639 26.3487C4.97343 25.0292 5.16748 23.8067 5.1758 23.7568C5.1952 23.6293 5.27837 23.5211 5.39202 23.4657C5.50845 23.4103 5.64151 23.413 5.75517 23.4768L10.6674 26.2101C10.8143 26.2905 10.8919 26.4568 10.8642 26.6231C10.6397 27.8706 10.7755 28.6718 10.7755 28.6801C10.8032 28.8436 10.7256 29.0127 10.5787 29.0931C9.84128 29.4951 9.11499 29.7002 8.41364 29.7002ZM7.84535 28.8547C8.51066 28.9961 9.2231 28.8824 9.96603 28.5193C9.93831 28.1811 9.92168 27.5657 10.0436 26.759L5.891 24.4498C5.8023 25.6612 5.83002 28.4306 7.84535 28.8547Z" fill="#312F30"/>
<path d="M11.2398 33.7641C8.85573 35.0171 6.91524 34.9368 5.76758 34.6845L6.21389 34.837L20.36 37.6091V20.5078C20.3573 20.5189 19.7807 24.0007 18.3752 26.1962C16.967 28.3918 15.129 31.7183 11.2398 33.7641Z" fill="#6190E8"/>
<path d="M20.3626 38C20.3377 38 20.3127 37.9972 20.2878 37.9917L6.14164 35.2195C6.125 35.2168 6.10837 35.2112 6.09174 35.2057L5.64543 35.0532C5.44861 34.9867 5.33772 34.776 5.39316 34.5764C5.44861 34.3768 5.65097 34.2521 5.85611 34.2992C6.98991 34.5487 8.81397 34.5958 11.0622 33.4149C14.5107 31.6019 16.332 28.7078 17.6598 26.5982C17.7929 26.3848 17.9232 26.1796 18.0507 25.9828C19.3952 23.8815 19.9745 20.4774 19.9801 20.4441C20.0134 20.2417 20.1991 20.0976 20.3987 20.117C20.601 20.1336 20.7591 20.3027 20.7591 20.5079V37.6091C20.7591 37.7255 20.7064 37.8392 20.6149 37.9113C20.5428 37.9695 20.4541 38 20.3626 38ZM9.10227 35.0005L19.9718 37.1295V23.6376C19.6585 24.5746 19.2427 25.5753 18.7105 26.407C18.5857 26.601 18.4582 26.8061 18.3251 27.0168C16.9502 29.204 15.0651 32.2007 11.4281 34.1107L11.2451 33.7642L11.4281 34.1107C10.5964 34.5487 9.82025 34.8287 9.10227 35.0005Z" fill="#312F30"/>
<path fill-rule="evenodd" clip-rule="evenodd" d="M30.7335 0.720421C30.7335 0.720421 27.2905 -0.510403 24.1719 1.78769C21.056 4.08301 19.6367 6.03736 18.2395 8.73186C14.8464 15.2685 16.4376 18.9028 14.3752 24.1061C13.66 25.9135 10.7465 29.8693 7.76366 29.24C4.78085 28.6108 5.55982 23.8178 5.55982 23.8178L0.392578 26.8034C0.392578 26.8034 0.947003 33.5368 5.62635 34.6512C6.74906 34.9257 8.75608 35.0726 11.2454 33.7642C15.1347 31.7183 16.9727 28.3918 18.3809 26.1935C19.7864 23.9952 20.363 20.5079 20.363 20.5079C20.363 20.5023 20.5238 14.8499 22.3478 11.8062C24.1746 8.76236 26.2621 5.89044 29.4833 4.23548C31.7204 3.08782 34.1266 2.81892 36.0865 3.70046L30.7335 0.720421Z" fill="#87DCFF"/>
<path d="M7.21692 35.2334C6.5627 35.2334 5.99719 35.1475 5.53147 35.0338C3.49119 34.5487 1.88335 32.963 0.888162 30.4543C0.150776 28.5997 0.00662566 26.9059 0.00108141 26.8366C-0.0100071 26.6842 0.0648403 26.54 0.19513 26.4652L5.36514 23.4796C5.49543 23.4047 5.65899 23.4103 5.78374 23.4962C5.90848 23.5822 5.97224 23.7318 5.94729 23.8815C5.93897 23.9259 5.26258 28.3142 7.84342 28.8575C10.5851 29.4369 13.3655 25.5919 14.0086 23.9647C14.8708 21.7914 15.0787 19.9035 15.3004 17.9076C15.6026 15.1826 15.9131 12.3634 17.8896 8.55724C19.2868 5.8655 20.7227 3.84462 23.9384 1.47723C27.1845 -0.915118 30.7162 0.304618 30.8632 0.357288C30.8826 0.365605 30.902 0.373921 30.9214 0.385009L36.2771 3.36504C36.4601 3.46761 36.5322 3.6977 36.4379 3.88343C36.3436 4.07194 36.1191 4.15233 35.9251 4.06639C34.1481 3.27079 31.8667 3.46207 29.6628 4.5931C26.4583 6.23974 24.4152 9.13384 22.6854 12.0141C20.9306 14.9414 20.756 20.4663 20.756 20.5217C20.756 20.5384 20.7532 20.5578 20.7504 20.5744C20.7255 20.7213 20.1433 24.1698 18.7074 26.4097C18.5826 26.6038 18.4551 26.8089 18.3221 27.0196C16.9471 29.2068 15.062 32.2035 11.425 34.1135C9.80609 34.9645 8.37567 35.2334 7.21692 35.2334ZM0.810542 27.014C0.965781 28.2005 1.85841 33.3484 5.71443 34.2687C6.87318 34.5542 8.74159 34.6346 11.0591 33.4149C14.5076 31.6019 16.3289 28.7078 17.6567 26.5982C17.7898 26.3848 17.9201 26.1796 18.0476 25.9828C19.3339 23.9758 19.9188 20.7823 19.9715 20.4663C19.9881 20.0006 20.2099 14.6088 22.0118 11.6038C23.7998 8.62099 25.9232 5.62433 29.3025 3.8862C30.755 3.1405 32.2464 2.76627 33.6408 2.78844L30.5721 1.08081C30.2505 0.978244 27.1651 0.0689871 24.4041 2.10373C21.3132 4.38241 19.9299 6.32567 18.5882 8.91484C16.6782 12.5935 16.376 15.3379 16.0822 17.9908C15.8549 20.0422 15.6414 21.9799 14.7405 24.253C14.3635 25.2038 13.4293 26.6897 12.1901 27.8734C10.671 29.3232 9.11306 29.9276 7.67987 29.6282C5.12674 29.0904 4.99922 26.0216 5.08793 24.5469L0.810542 27.014Z" fill="#312F30"/>
<path d="M59.2286 10.1983V21.638C59.2286 24.9369 58.4039 25.7351 56.7544 25.7351C55.6105 25.7351 54.3069 25.1498 54.3069 22.915V21.9573H50.6621V22.782C50.6621 26.613 53.0831 29.2468 56.7544 29.2468C60.4524 29.2468 62.8734 26.613 62.8734 22.782V10.1983H59.2286Z" fill="#312F30"/>
<path d="M69.8422 28.9541V24.4847H72.0237C75.6951 24.4847 78.3289 22.1701 78.3289 17.7538V17.0089C78.3289 12.6192 75.6951 10.1983 72.0237 10.1983H66.1974V28.9541H69.8422ZM71.6513 13.71C73.1943 13.71 74.7374 14.2687 74.7374 17.0355V17.7272C74.7374 20.2546 73.2475 20.9995 71.6513 20.9995H69.8422V13.71H71.6513Z" fill="#312F30"/>
<path d="M85.9021 29.2202C89.3873 29.2202 91.489 26.9588 91.489 23.2875V19.6959C91.489 16.1576 89.3873 13.843 85.9021 13.843C82.3106 13.843 80.2887 16.1576 80.2887 19.6959V23.2875C80.2887 26.9588 82.3106 29.2202 85.9021 29.2202ZM85.9021 16.9823C87.0727 16.9823 88.0305 17.674 88.0305 19.2703V23.793C88.0305 25.3892 87.0461 26.1075 85.9021 26.1075C84.6783 26.1075 83.7472 25.3892 83.7472 23.793V19.2703C83.7472 17.674 84.6783 16.9823 85.9021 16.9823Z" fill="#312F30"/>
<path d="M101.07 13.843C99.3669 13.6302 97.5578 14.3751 97.1322 16.0246V14.0026H93.8865V28.9541H97.345V20.7335C97.345 18.3391 98.4092 17.0621 101.07 17.275V13.843Z" fill="#312F30"/>
<path d="M102.494 17.0887H103.931V23.4205C103.931 27.0653 104.915 29.167 108.932 29.167C109.331 29.167 109.73 29.1404 110.183 29.0872V25.9745C109.863 26.0277 109.571 26.0277 109.331 26.0277C107.655 26.0277 107.389 25.203 107.389 23.5003V17.0887H110.129V14.0293H107.389V10.9698H105.075C105.075 13.444 104.409 14.2687 102.467 14.2687C102.467 15.2264 102.494 16.131 102.494 17.0887Z" fill="#312F30"/>
<path d="M124.842 25.4424H127.316L130.216 18.3923V28.9541H133.861V10.1983H130.243L126.092 20.6005L121.942 10.1983H118.324V28.9541H121.969V18.4455L124.842 25.4424Z" fill="#312F30"/>
<path d="M140.963 29.1936C143.144 29.1936 144.288 27.8102 144.501 27.3047V28.9541H147.747V14.0026H144.501V15.6787C144.288 15.1998 143.144 13.8164 140.963 13.8164C138.356 13.8164 136.547 15.4659 136.547 19.3235V23.6599C136.547 27.4909 138.302 29.1936 140.963 29.1936ZM142.16 26.0809C140.883 26.0809 140.032 25.2562 140.032 23.3939V19.5895C140.032 17.7538 140.883 16.9291 142.16 16.9291C143.384 16.9291 144.288 17.7272 144.288 19.5363V23.3939C144.288 25.2296 143.437 26.0809 142.16 26.0809Z" fill="#312F30"/>
<path d="M149.762 17.0887H151.199V23.4205C151.199 27.0653 152.183 29.167 156.2 29.167C156.599 29.167 156.998 29.1404 157.451 29.0872V25.9745C157.131 26.0277 156.839 26.0277 156.599 26.0277C154.923 26.0277 154.657 25.203 154.657 23.5003V17.0887H157.397V14.0293H154.657V10.9698H152.343C152.343 13.444 151.678 14.2687 149.735 14.2687C149.735 15.2264 149.762 16.131 149.762 17.0887Z" fill="#312F30"/>
<path d="M166.71 23.1545C166.71 25.1764 165.832 26.0809 164.581 26.0809C163.145 26.0809 162.426 25.0433 162.426 23.0746V19.5629C162.426 17.674 163.304 16.9823 164.581 16.9823C165.912 16.9823 166.71 17.8602 166.71 19.962H170.168C170.168 16.0778 168.279 13.8164 164.581 13.8164C161.016 13.8164 158.968 16.1044 158.968 19.7491V23.3673C158.968 26.9588 161.016 29.2202 164.581 29.2202C168.253 29.2202 170.168 26.9322 170.168 23.1545H166.71Z" fill="#312F30"/>
<path d="M175.894 19.6427C175.894 17.7272 176.559 16.9557 178.022 16.9557C179.804 16.9557 180.177 18.0465 180.177 20.5206V28.9541H183.662V19.1904C183.662 15.1732 181.773 13.8164 179.326 13.8164C176.958 13.8164 175.894 15.4393 175.894 15.4393V8.86806H172.435V28.9541H175.894V19.6427Z" fill="#312F30"/>
</svg>
