<svg width="135" height="50" viewBox="0 0 135 50" fill="none" xmlns="http://www.w3.org/2000/svg">
<path d="M12.3547 0V16.4985C12.3547 21.2562 11.1653 22.4073 8.7864 22.4073C7.13656 22.4073 5.2565 21.5631 5.2565 18.3402V16.9589H0V18.1483C0 23.6734 3.49154 27.4719 8.7864 27.4719C14.1196 27.4719 17.6112 23.6734 17.6112 18.1483V0H12.3547Z" fill="#312F30"/>
<path d="M28.429 27.0499V20.6039H31.5752C36.8701 20.6039 40.6686 17.2659 40.6686 10.8967V9.82236C40.6686 3.49154 36.8701 0 31.5752 0H23.1725V27.0499H28.429ZM31.0381 5.06465C33.2635 5.06465 35.4888 5.87039 35.4888 9.86073V10.8583C35.4888 14.5033 33.3402 15.5776 31.0381 15.5776H28.429V5.06465H31.0381Z" fill="#312F30"/>
<path d="M52.3581 27.4335C57.3844 27.4335 60.4155 24.1722 60.4155 18.8773V13.6976C60.4155 8.59456 57.3844 5.2565 52.3581 5.2565C47.1784 5.2565 44.2623 8.59456 44.2623 13.6976V18.8773C44.2623 24.1722 47.1784 27.4335 52.3581 27.4335ZM52.3581 9.78399C54.0463 9.78399 55.4276 10.7816 55.4276 13.0837V19.6063C55.4276 21.9085 54.008 22.9444 52.3581 22.9444C50.5932 22.9444 49.2503 21.9085 49.2503 19.6063V13.0837C49.2503 10.7816 50.5932 9.78399 52.3581 9.78399Z" fill="#312F30"/>
<path d="M75.0001 5.2565C72.5445 4.94955 69.9354 6.02387 69.3215 8.40272V5.48671H64.6406V27.0499H69.6285V15.194C69.6285 11.7408 71.1632 9.89909 75.0001 10.206V5.2565Z" fill="#312F30"/>
<path d="M77.8217 9.93746H79.8936V19.0692C79.8936 24.3257 81.3132 27.3568 87.1069 27.3568C87.6824 27.3568 88.2579 27.3184 88.9102 27.2417V22.7526C88.4498 22.8293 88.0277 22.8293 87.6824 22.8293C85.2652 22.8293 84.8815 21.6399 84.8815 19.1843V9.93746H88.8334V5.52508H84.8815V1.11269H81.5434C81.5434 4.68097 80.5842 5.87039 77.7833 5.87039C77.7833 7.25166 77.8217 8.55619 77.8217 9.93746Z" fill="#312F30"/>
<path d="M98.6435 15.8462H105.703V27.0499H110.96V0H105.703V11.242H98.6435V0H93.387V27.0499H98.6435V15.8462Z" fill="#312F30"/>
<path d="M121.967 27.0499V20.0668H124.692L128.298 27.0499H134.054L129.526 18.839C132.404 17.5344 134.207 14.7335 134.207 10.5514V9.78399C134.207 3.49154 130.6 0 125.229 0H116.711V27.0499H121.967ZM124.576 5.06465C126.955 5.06465 128.989 5.9855 128.989 9.70725V10.4746C128.989 14.0429 126.879 15.0405 124.576 15.0405H121.967V5.06465H124.576Z" fill="#312F30"/>
<path d="M5.86606 47.7839L8.55186 41.6066V49.8318H10.1969V37.9975H8.58543L5.27854 45.6353L1.98843 37.9975H0.376953V49.8318H2.02201V41.6401L4.69102 47.7839H5.86606Z" fill="#5FBBB8"/>
<path d="M30.1785 49.8318L26.4015 37.9975H24.5551L20.711 49.8318H22.4232L23.2457 47.1628H27.6437L28.4495 49.8318H30.1785ZM25.4783 39.8104L27.2409 45.736H23.6654L25.4783 39.8104Z" fill="#5FBBB8"/>
<path d="M47.9116 41.7912C47.8612 39.4411 46.2497 37.7793 43.95 37.7793C41.6335 37.7793 40.022 39.4747 40.022 41.8919V45.9038C40.022 48.3211 41.6335 49.9997 43.95 49.9997C46.2833 49.9997 47.9116 48.3211 47.9116 45.9038V44.0574H43.9668V45.5178H46.2665V45.9542C46.2665 47.5657 45.2425 48.405 43.95 48.405C42.691 48.405 41.6671 47.5825 41.6671 45.9542V42.3787C41.6671 40.2637 42.4896 39.374 43.95 39.374C45.2425 39.374 46.2329 40.1965 46.2665 41.7912H47.9116Z" fill="#5FBBB8"/>
<path d="M67.2249 49.8318L63.448 37.9975H61.6015L57.7575 49.8318H59.4697L60.2922 47.1628H64.6902L65.4959 49.8318H67.2249ZM62.5248 39.8104L64.2873 45.736H60.7119L62.5248 39.8104Z" fill="#5FBBB8"/>
<path d="M77.2788 39.5922H81.7776L76.8928 49.8318H84.1108V48.2371H79.3603L84.2619 37.9975H77.2788V39.5922Z" fill="#5FBBB8"/>
<path d="M95.2554 37.9975V49.8318H96.9004V37.9975H95.2554Z" fill="#5FBBB8"/>
<path d="M116.44 49.8318V37.9975H114.779V46.5249L110.011 37.9975H108.484V49.8318H110.129V41.338L114.896 49.8318H116.44Z" fill="#5FBBB8"/>
<path d="M129.668 44.6113H133.261V43.1509H129.668V39.5922H134.604V37.9975H128.023V49.8318H134.604V48.2371H129.668V44.6113Z" fill="#5FBBB8"/>
</svg>
