<svg width="560" height="520" viewBox="0 0 560 520" fill="none" xmlns="http://www.w3.org/2000/svg">
<mask id="mask0" mask-type="alpha" maskUnits="userSpaceOnUse" x="0" y="0" width="560" height="520">
<rect width="560" height="520" fill="#F9F9FB"/>
</mask>
<g mask="url(#mask0)">
<path d="M377.852 309.824C376.832 309.824 375.812 309.538 374.914 309.007C373.159 307.987 372.057 306.069 372.057 304.028V222.437C372.057 220.274 373.281 218.274 375.24 217.294C448.79 180.03 441.525 99.4186 441.443 98.6023C441.198 96.2758 442.382 94.0309 444.464 92.9289C459.566 84.8065 474.014 81.4596 486.3 83.2555C497.728 84.9698 506.912 90.6024 513.565 100.072C525.401 116.888 528.503 146.683 521.891 179.785C512.014 229.294 464.504 260.926 450.178 269.457C422.423 285.947 381.077 308.885 380.669 309.089C379.812 309.62 378.832 309.824 377.852 309.824ZM383.648 225.947V294.191C397.281 286.6 424.301 271.375 444.26 259.498C457.525 251.58 501.565 222.356 510.544 177.499C516.544 147.418 514.136 120.969 504.096 106.684C499.279 99.8267 492.912 95.9084 484.586 94.6839C475.606 93.3778 464.79 95.7043 453.158 101.419C453.688 119.01 451.239 189.621 383.648 225.947Z" fill="white"/>
<path d="M299.874 519.495C298.854 519.495 297.874 519.25 296.976 518.719C295.18 517.699 294.078 515.781 294.078 513.699V261.947C294.16 258.315 296.772 176.479 324.159 130.888C350.486 86.9704 381.75 42.8486 431.505 17.2571C485.137 -10.2936 539.258 -2.08959 569.421 38.1547C603.788 83.95 609.87 156.929 584.196 215.622C557.911 275.662 526.81 309.539 465.219 345.13C442.28 358.395 411.872 375.905 383.546 392.191V468.965C383.546 471.047 382.444 472.965 380.648 473.985L302.731 518.801C301.874 519.25 300.894 519.495 299.874 519.495ZM493.871 12.4408C475.953 12.4408 456.525 17.4203 436.811 27.5426C389.628 51.7464 359.547 94.358 334.078 136.806C308.282 179.826 305.67 261.294 305.67 262.111V503.74L372.036 465.577V388.803C372.036 386.721 373.138 384.803 374.934 383.783C404.036 367.048 435.75 348.763 459.464 335.049C518.606 300.886 548.483 268.396 573.625 210.928C597.706 155.908 592.196 87.7051 560.197 45.0526C544.034 23.5019 520.606 12.4408 493.871 12.4408ZM377.791 309.824C376.771 309.824 375.791 309.579 374.852 309.049C373.097 308.028 371.995 306.11 371.995 304.069V222.764C371.669 219.499 370.363 199.336 382.526 162.765C398.485 114.929 453.79 78.4399 486.239 83.297C497.667 85.0112 506.851 90.6438 513.504 100.113C525.34 116.929 528.442 146.725 521.83 179.867C511.912 229.377 464.443 261.009 450.117 269.539C437.219 277.213 405.219 295.335 380.648 309.171C379.75 309.579 378.771 309.824 377.791 309.824ZM479.627 94.358C449.586 94.358 405.505 130.48 393.546 166.398C381.424 202.724 383.505 221.54 383.546 221.703C383.587 221.948 383.587 222.193 383.587 222.438V294.151C414.076 276.968 434.933 265.05 444.198 259.539C457.464 251.621 501.504 222.397 510.483 177.541C516.483 147.459 514.075 121.011 504.034 106.725C499.218 99.8682 492.851 95.9498 484.524 94.7254C482.973 94.4805 481.341 94.358 479.627 94.358Z" fill="white"/>
<path d="M123.968 397.267C120.336 397.267 116.744 396.9 113.234 396.165C92.6626 391.838 79.8057 375.145 76.0098 347.921C73.3159 328.492 76.1731 310.493 76.2955 309.758C76.5812 307.88 77.8057 306.289 79.4791 305.472C81.1934 304.656 83.1525 304.697 84.826 305.636L157.151 345.88C159.315 347.064 160.458 349.512 160.049 351.961C156.743 370.329 158.743 382.124 158.743 382.247C159.151 384.655 158.009 387.145 155.845 388.328C144.988 394.247 134.295 397.267 123.968 397.267ZM115.601 384.818C125.397 386.9 135.886 385.226 146.825 379.879C146.417 374.9 146.172 365.839 147.968 353.961L86.826 319.962C85.5199 337.798 85.928 378.573 115.601 384.818Z" fill="white"/>
<path d="M299.843 519.514C299.476 519.514 299.109 519.473 298.741 519.391L90.4587 478.575C90.2138 478.535 89.9689 478.453 89.724 478.371L83.1527 476.127C80.2548 475.147 78.6221 472.045 79.4384 469.106C80.2547 466.167 83.2343 464.331 86.2547 465.025C102.948 468.698 129.805 469.392 162.907 452.004C213.681 425.311 240.497 382.699 260.048 351.639C262.007 348.496 263.926 345.475 265.803 342.577C285.599 311.639 294.129 261.517 294.211 261.028C294.701 258.048 297.435 255.926 300.374 256.211C303.354 256.456 305.68 258.946 305.68 261.966V513.759C305.68 515.473 304.905 517.146 303.558 518.208C302.496 519.065 301.19 519.514 299.843 519.514ZM134.05 475.351L294.088 506.698V308.047C289.476 321.843 283.354 336.578 275.517 348.822C273.681 351.679 271.803 354.7 269.844 357.802C249.599 390.005 221.845 434.127 168.294 462.249L165.6 457.147L168.294 462.249C156.05 468.698 144.621 472.82 134.05 475.351Z" fill="white"/>
<path d="M106.259 478.763C96.6268 478.763 88.3004 477.498 81.4433 475.825C51.4029 468.682 27.7298 445.335 13.077 408.397C2.21997 381.091 0.0975538 356.153 0.0159223 355.133C-0.147341 352.888 0.954684 350.765 2.87302 349.663L78.9944 305.705C80.9127 304.603 83.3209 304.684 85.1576 305.95C86.9943 307.215 87.933 309.419 87.5657 311.623C87.4432 312.276 77.4842 376.887 115.484 384.887C155.85 393.418 196.789 336.806 206.258 312.847C218.952 280.848 222.013 253.052 225.278 223.665C229.727 183.543 234.298 142.034 263.4 85.9935C283.971 46.3615 305.114 16.6068 352.46 -18.2499C400.255 -53.4738 452.254 -35.5149 454.418 -34.7394C454.703 -34.617 454.989 -34.4945 455.275 -34.3313L534.131 9.54566C536.825 11.0558 537.886 14.4435 536.498 17.1782C535.11 19.9537 531.804 21.1373 528.947 19.872C502.784 8.15792 469.193 10.9742 436.744 27.627C389.561 51.8716 359.48 94.4832 334.011 136.891C308.175 179.992 305.603 261.338 305.603 262.154C305.603 262.399 305.563 262.685 305.522 262.93C305.154 265.093 296.583 315.868 275.441 348.847C273.604 351.704 271.726 354.724 269.767 357.826C249.523 390.03 221.768 434.152 168.218 462.274C144.381 474.804 123.32 478.763 106.259 478.763ZM11.9341 357.745C14.2198 375.214 27.3625 451.009 84.1372 464.56C101.198 468.764 128.708 469.947 162.83 451.988C213.605 425.295 240.421 382.683 259.971 351.622C261.931 348.48 263.849 345.459 265.726 342.561C284.665 313.011 293.277 265.991 294.053 261.338C294.297 254.481 297.563 175.094 324.093 130.85C350.419 86.9323 381.684 42.8105 431.438 17.219C452.826 6.23958 474.785 0.729459 495.315 1.05599L450.132 -24.0865C445.397 -25.5967 399.969 -38.9843 359.317 -9.0255C313.807 24.525 293.44 53.1369 273.685 91.2588C245.563 145.421 241.115 185.829 236.788 224.89C233.441 255.093 230.298 283.623 217.033 317.092C211.482 331.092 197.727 352.969 179.483 370.398C157.116 391.744 134.177 400.642 113.076 396.234C75.4842 388.316 73.6067 343.133 74.9128 321.419L11.9341 357.745Z" fill="white"/>
</g>
</svg>
